<?xml version="1.0" standalone="no"?>
<!DOCTYPE svg PUBLIC "-//W3C//DTD SVG 1.1//EN" "http://www.w3.org/Graphics/SVG/1.1/DTD/svg11.dtd" >
<svg xmlns="http://www.w3.org/2000/svg">
<metadata></metadata>
<defs>
<font id="ar_darlingregular" horiz-adv-x="1013" >
<font-face units-per-em="2048" ascent="1638" descent="-410" />
<missing-glyph horiz-adv-x="614" />
<glyph horiz-adv-x="0" />
<glyph horiz-adv-x="682" />
<glyph unicode=" "  horiz-adv-x="614" />
<glyph unicode="&#x09;" horiz-adv-x="614" />
<glyph unicode="&#xa0;" horiz-adv-x="614" />
<glyph unicode="!" horiz-adv-x="602" d="M39 362l65 44q20 -2 63.5 -6.5t63.5 -4.5q51 0 191 19q78 10 117 10q-111 -49 -257.5 -55.5t-242.5 -6.5zM51 815q0 88 14.5 266.5t14.5 266.5q14 -41 20 -136.5t6 -185.5v-31v-24v-25q0 -37 -1 -69.5t-1 -61.5v-51.5t2 -54.5q0 -53 -4 -98.5t-18 -82.5q-16 84 -24.5 154 t-8.5 133zM55 324q8 4 22.5 15t20.5 13l-2 -184q0 -27 6.5 -80t6.5 -80l-27 -10q-14 63 -20.5 157.5t-6.5 168.5zM92 -10q35 0 86 6q119 14 146 14l204 -6l-378 -47zM98 1384q133 0 235.5 -7t213.5 -25l-133 -2l-260 4zM123 33v319q90 -8 123 -9t69 -1q72 0 160 10 q12 -78 12 -153q0 -82 -12 -166h-352zM123 514l49 27l369 14l20 -31q-57 0 -145 -5t-101 -5h-192zM131 567q0 63 7 195.5t7 181.5q0 66 -4 143q-10 195 -10 244q68 -23 133 -22q39 0 95.5 7t107.5 15q0 -57 6 -174t6 -176q0 -70 -6 -207t-6 -207q-80 8 -113 9.5t-53 1.5 q-74 0 -170 -11zM500 371l49 20l-8 -356l-33 16l2 164q0 33 -5 89t-5 67zM500 920q0 -59 6 -176t6 -177q20 100 28.5 201.5t8.5 214.5l-6 338h-43v-401z" />
<glyph unicode="&#x22;" horiz-adv-x="677" d="M45 864l37 54l4 194q0 45 -12 117q-4 23 -23 119l-6 -172q0 -25 6 -76t6 -76q0 -27 -6 -80t-6 -80zM45 1374q63 0 127 -2t127 -4l-18 -29l-125 -6h-101zM76 1325q39 -8 86 -8q53 0 81.5 4t43.5 4q-20 -92 -31.5 -206.5t-11.5 -225.5h-127zM80 872l135 -2l59 2l-88 -18 q-20 0 -50 6t-56 12zM279 913l40 25l-12 367q0 -98 -6 -168t-22 -224zM362 887l179 -17v-36q-43 6 -90.5 20t-88.5 33zM381 1325q41 8 92 8q29 0 45.5 -1t73.5 -7l-43 -432h-127l2 51q0 86 -11.5 181.5t-31.5 199.5zM393 1348l41 24h74q62 0 121 6v-30l-142 -7zM567 838 l70 254q0 49 -10.5 110.5t-18.5 118.5q0 -78 -8 -158q-14 -106 -20 -157q-4 -20 -8.5 -42t-4.5 -44v-82z" />
<glyph unicode="#" horiz-adv-x="1064" d="M94 610l31 121h190l37 172h-192l30 121h191l47 188h121l-47 -188h133l49 188h121l-47 -188h186l-29 -121h-188l-37 -172h191l-31 -121h-191l-47 -196h-123l52 196h-135l-50 -196h-120l49 196h-191zM106 586l160 8l-30 -180l-11 139zM121 858l45 174l-21 -149 q29 0 88.5 -4.5t88.5 -4.5zM137 758l189 37l-50 -43zM168 1059l176 47l25 170l176 6l-29 -35l-100 6l-47 -166l2 -49zM203 389q29 4 59 8l100 -2l-40 -16q-39 0 -70 4t-49 6zM375 428l31 107l-9 -101zM422 592l86 -2l-41 -187l14 148q-33 10 -59 41zM434 731h135l37 172 h-135zM442 371q16 16 40 21t61 5h50.5h37.5l51 189q14 2 54 8t59 6l49 -10l-144 -39l-47 -180h-211zM463 752l31 127l14 -99l33 -2l20 -30zM518 1028l57 246l-6 -201l33 14l82 166l117 -20q-33 4 -76 -8.5t-63 -30.5l-46 -156zM551 831l16 33l6 -26zM676 393l51 135l41 23z M721 756l35 118l45 5zM780 762l162 20l-20 -41zM786 1055q8 27 21.5 81t21.5 74l43 50q0 -37 -49 -132q-27 -49 -37 -73zM803 1038l33 39l125 2l40 -20l-59 -154l19 137zM813 850l16 33h105zM866 596l37 119l19 2z" />
<glyph unicode="$" horiz-adv-x="1169" d="M57 1065q0 168 129 248q106 66 281 65l-6 -24l-121 -21q-39 -41 -88 -67q-39 -20 -105 -39l-53 -215q0 -63 9.5 -114.5t29.5 -119.5q0 6 -53 164q-23 68 -23 123zM86 272l27 13q0 -39 11 -87t17 -71l-43 68l-2 12zM90 303l88 96l211 43q-41 -4 -149.5 -56t-149.5 -83z M100 156q113 -86 171.5 -112t211.5 -64l2 20q-190 39 -209 45q-156 51 -155 254q47 12 131 58t127 61q0 -74 16 -103q25 -43 90 -43q2 33 5.5 64t3.5 72q0 59 -4.5 91.5t-4.5 49.5l-258 14q-6 29 -32.5 60.5t-55.5 44.5l-24 98l112 -133l-2 -12q53 -27 127 -46 q53 -12 133 -22v10q-197 0 -286 113q-80 100 -80 307q0 168 104 252q78 63 262 102q6 47 7 93q0 14 -1.5 31.5t-7.5 47.5l213 15v-131h13q57 0 110 -19.5t107 -56.5q-61 12 -115 24q-14 4 -115 31v-37q109 -29 217 -57q84 -43 113 -193q-115 -66 -254 -129q0 43 -17.5 74 t-58.5 37q-12 -66 -12 -127q0 -66 12 -127q193 0 279 -121q74 -104 74 -311q0 -240 -66 -293q-29 -25 -287 -86v-31l213 56l39 -54l-252 -22v-90l-213 2l2 106q-80 0 -198 39q-59 18 -117 39zM379 944q0 -68 20.5 -92.5t85.5 -24.5q6 33 10.5 58t4.5 43q0 20 -4 42.5 t-9 45.5l-79 -17l43 35h34v33q-63 0 -84.5 -29.5t-21.5 -93.5zM459 1542q14 0 49 10q57 16 78 17h67l43 -19l-22 -14q-6 -4 -60.5 -6t-78.5 -2h-50zM518 -195q49 -6 96 -6h31h20.5t20.5 2v-20q-16 0 -47 -4t-45 -4zM696 272q47 6 65.5 45t18.5 93q0 53 -18.5 92t-65.5 47 v-31l68 -55q-12 -41 -19.5 -79t-7.5 -75q-14 31 -23 96.5t-18 92.5v-226zM762 838l170 -21q18 -43 52 -87t67 -85q-82 82 -131 117q-64 45 -158 76zM768 942q39 8 64.5 14.5t41 11.5t45 28.5t58.5 45.5h90q-27 0 -170 -71q-66 -33 -102 -33zM950 1296l101 -108l-2 -109 l-19 109zM954 8q45 51 70 119q16 43 41 227l20 11l7 -89l-99 -241zM1047 612l26 -10l2 -201v43q0 53 -5 95.5t-23 72.5z" />
<glyph unicode="%" horiz-adv-x="1955" d="M76 1038v69.5t8 96.5q41 29 70.5 53.5t70.5 65.5q-10 -4 -27.5 -8t-25.5 -6q-49 -53 -51 -56q-33 -41 -33 -112q0 -10 4 -38t4 -30l-2 -215q-6 51 -12 104.5t-6 75.5zM88 870q84 -141 119 -161q6 -4 199 -45q-68 14 -139.5 30.5t-123.5 36.5q-8 4 -29.5 62.5t-25.5 76.5z M100 950v117q0 125 65.5 185.5t192.5 60.5h82q131 0 201 -58.5t70 -187.5v-117q0 -135 -61.5 -194.5t-198.5 -59.5h-91q-260 0 -260 254zM119 1202q8 31 60 73t83 46h2l12 -2h52h39q37 0 60.5 3t49.5 11q-41 10 -57 10q-37 0 -82 -6t-86 -12q-31 -25 -70 -59 q-29 -27 -63 -64zM262 956q0 -68 24.5 -98.5t90.5 -30.5h55q68 0 93.5 30t25.5 101v105q0 68 -26.5 94.5t-92.5 26.5h-55q-66 0 -90.5 -24.5t-24.5 -94.5v-109zM270 1024v37q0 29 7.5 54.5t25.5 41.5l-14 -43q0 -76 5 -127t21 -108q18 -12 37 -39l-26 8q-29 33 -42.5 79 t-13.5 97zM330 1167l174 -2q-23 -23 -62 -22h-77zM397 852l33 -12l74 16l-53 4zM399 684q23 -14 31 -14l8 2q39 -6 58 -8zM475 1335l31 -26l201 -45l-7 -64l-20 53q-47 25 -72 35q-78 39 -86 39zM489 694l54 -30l143 94q-63 -37 -76 -43q-41 -19 -86 -19zM514 1130 q14 -10 19.5 -30.5t5.5 -44.5l-4 -29zM516 903l14 -33l2 138l-10 18v-49zM553 -53q100 0 198.5 -13.5t178.5 -44.5l-10 -28q-88 0 -182.5 23.5t-184.5 62.5zM608 -4v43q0 119 58 350q41 170 122 434q51 162 103 326q-66 -291 -132.5 -577.5t-150.5 -575.5zM637 -29 q76 201 145 445q55 195 117 456l102 459q74 -25 113 -37q72 -23 117 -22q-20 -109 -47 -211q-16 -66 -103 -346q-109 -403 -215 -805q-55 20 -114.5 40.5t-114.5 20.5zM657 31q23 219 66 427t108 441q39 137 130 422q-61 -326 -123 -651q-79 -369 -181 -639zM672 711 q16 25 33 49q25 41 24 53v68v24q0 31 -1 69t-5 77t-8 69.5t-4 44.5q0 25 4 44.5t6 31.5q14 -94 22.5 -175t8.5 -169l-4 -104q-16 -23 -35 -41zM913 -70q59 152 138 387q94 281 153 504q74 274 74 379l-21 74zM975 1370l12 37q68 0 154 -23q63 -16 151 -51zM1032 1348l41 -2 q98 -20 197 -39l47 -37q-94 23 -143 35q-91 23 -142 43zM1186 457l4 104q16 25 35 43l41 41q-16 -25 -33 -49q-25 -41 -25 -53q0 -68 1 -130.5t5.5 -104.5t8.5 -72.5t4 -45.5q0 -16 -4 -36.5t-9 -38.5q-28 176 -28 342zM1227 289v114q0 137 59.5 196.5t198.5 59.5h92 q258 0 258 -256v-114q0 -246 -256 -246h-82q-131 0 -197 55q-74 61 -73 191zM1231 92l6 64l20 -54q61 -35 105.5 -54t99.5 -28l-30 27zM1251 598q74 41 76 43q41 18 86 18l35 3l-53 30zM1386 293q0 -68 26 -95.5t93 -27.5h54q68 0 92 26.5t24 94.5v108q0 70 -24.5 99.5 t-91.5 29.5h-54q-68 0 -93.5 -29.5t-25.5 -101.5v-104zM1399 301l4 29l20 -105q-14 10 -19 29.5t-5 46.5zM1405 348l10 -18v49l4 74l-12 32zM1432 190q23 20 61 21h80l33 -23zM1432 498l55 -2l53 8l-33 10zM1440 692l98 -22q-23 16 -33 16l-6 -2q-16 0 -30.5 2t-28.5 6z M1458 23q18 -4 33.5 -7.5t26.5 -3.5q37 0 80.5 6.5t87.5 12.5q31 23 67 57q29 27 64 64q-6 -23 -30 -43.5t-30 -26.5q-39 -33 -69.5 -42t-75.5 -9h-74h-31.5t-48.5 -8zM1532 692q66 -14 140.5 -30.5t121.5 -36.5q6 -2 27.5 -62.5t25.5 -77.5q-76 139 -118 162q-9 4 -197 45z M1585 514q43 -10 66 -76q16 -49 16 -106v-37q0 -29 -7 -54.5t-26 -41.5l13 43q0 94 -5.5 139t-19.5 96q-18 10 -37 37zM1712 31q8 6 26.5 10t26.5 6q49 53 52 55q31 41 30 113l-6 68l2 213q4 -43 11.5 -98.5t7.5 -80.5v-102q-7 -43 -9 -63q-35 -25 -73 -58q-31 -27 -68 -63z " />
<glyph unicode="&#x26;" horiz-adv-x="1427" d="M68 451q0 135 47 245q63 150 176 150l28 -4l-139 -88q-23 -55 -43 -109q-31 -82 -31 -170q0 -37 25 -181t37 -164.5t55 -44.5t51 -50l64 -35l-150 41q-41 12 -80.5 174t-39.5 236zM158 449q0 188 26 247q41 90 197 140q-68 80 -68 198q0 180 99 244q78 51 270 51h31 l231 -69l-164 -226q-27 10 -67 10h-41q-57 0 -81 -16t-24 -47q0 -25 62 -92q43 -47 45 -51l256 -381l53 26v31q0 57 6 103.5t19 111.5q49 -14 112 -14q49 0 99.5 6t68.5 8q-12 -68 -12 -135q0 -74 12 -145q-31 -8 -67 -9q-35 0 -66 9q-8 -45 -22.5 -107.5t-26.5 -110.5 l182 -231h-260l-76 66q-41 -35 -101 -48.5t-126 -13.5h-223q-182 0 -271 137q-74 115 -73 308zM258 1071q0 193 131 262q98 53 318 53q29 0 131 -53q59 -33 69 -39q-57 16 -121.5 35t-103.5 19q-8 0 -18 4q-25 10 -31 10q-29 0 -71 -16.5t-56 -20.5q-72 -20 -144 -41 q-51 -29 -69 -194q-10 -172 -12 -193q-12 57 -17.5 93t-5.5 81zM358 -14q53 -23 123 -39.5t129 -16.5l84 56q-29 -4 -63.5 -11.5t-48.5 -7.5l-93 6q-8 0 -34.5 7.5t-40.5 7.5zM385 461q0 -98 52 -144.5t153 -46.5h49q43 0 61.5 5.5t63.5 27.5q-105 194 -234 348 q-74 -14 -109.5 -63t-35.5 -127zM406 442q0 -23 8 -47t22 -59l-2 90q0 20 4 37.5t6 28.5q10 47 11 49q14 39 65 39l39 -5l-45 48q-57 -14 -73.5 -31t-26.5 -76q-4 -18 -6 -34.5t-2 -39.5zM485 317h47h37q27 0 54 2q55 8 88 11l22 -25q-29 -4 -65.5 -7t-51.5 -3 q-25 0 -67.5 9t-63.5 13zM612 954q45 -45 80 -94q29 -41 103 -174q-35 94 -72 172q-57 119 -90 148zM688 -39l109 21l8 -35zM813 1014q20 12 89 98t77 109l14 47l-30 32l6 -45q-57 -78 -84 -116q-49 -70 -72 -125zM825 657q29 -39 60 -88q22 -35 55 -92l-27 115zM829 -31 l2 -51l142 98q-18 0 -49 -14t-39 -16zM942 766l33 -201l12 195h90q37 0 76 -2t76 -8l-12 36q-6 8 -64.5 12.5t-105.5 4.5h-43q-23 0 -31.5 -11.5t-18.5 -27.5zM993 0l90 -18l207 6l25 -13q-18 0 -103 -10q-33 -4 -61 -4l-123 4zM1122 223q0 57 31 133q25 51 35 76 q-8 -63 -10 -70q-9 -42 -23 -65q-8 -12 -8 -37q0 -23 -2 -35q18 -31 55 -78q80 -102 98 -131zM1247 791l19 -33l39 -6q0 -43 4 -147.5t4 -112.5l-4 -58l37 10q-2 27 -3.5 50.5t-1.5 56.5v61q0 37 -3 81t-11 93z" />
<glyph unicode="'" horiz-adv-x="440" d="M86 842l37 53l4 195q0 45 -12 116q-4 23 -23 119l-6 -172q0 -25 6 -76t6 -76q0 -27 -6 -80t-6 -79zM90 1372q63 0 127 -2t127 -4l-18 -29l-125 -6h-101zM121 1323q39 -8 86 -8q53 0 81.5 4t43.5 4q-20 -92 -31.5 -206.5t-11.5 -225.5h-127zM125 870l135 -2l59 2l-102 -22 zM303 911l33 -34l-4 426q0 -98 -6.5 -168t-22.5 -224z" />
<glyph unicode="(" horiz-adv-x="778" d="M70 524q0 268 10 450.5t26 217.5q0 -76 -4 -256.5t-4 -192.5q0 -96 4 -320t4 -239q0 -27 4.5 -52.5t10.5 -51.5q-35 88 -43 191.5t-8 252.5zM111 664v141.5t2 126.5q0 135 8 192q16 106 72 179q-4 -33 -33 -108t-29 -87q0 -49 14 -199q8 -86 9 -121q0 -92 -7 -215 q-14 -287 -14 -358q0 -4 13.5 -67.5t29.5 -133.5q-37 80 -51 259.5t-14 390.5zM156 270v779q0 217 137 332.5t358 115.5q-8 -20 -10 -39.5t-2 -46.5q0 -31 6 -92.5t6 -85.5q-154 0 -209 -119q-39 -82 -39 -258v-72.5t3 -70.5q0 -27 -2.5 -96.5t-2.5 -108.5q0 -244 72 -338 q59 -78 178 -78q14 -27 15 -63q0 -49 -6.5 -109.5t-8.5 -93.5q-233 0 -358 102q-137 113 -137 342zM201 -20q74 -63 106 -86q78 -58 121 -64l244 -39h-124t-124 -2q-8 0 -16.5 5t-16.5 9l-67 27q-33 20 -71 66.5t-52 83.5zM211 1321q47 86 59 106q55 88 90 89q18 0 57.5 6 t57.5 6q27 0 84.5 -7.5t77.5 -7.5q-190 0 -246 -26q-35 -16 -90 -74q-45 -47 -90 -92zM451 727q0 -176 5 -298t21 -257q0 39 6 94q14 131 15 164q0 125 -4.5 414t-4.5 307l-36 -45q0 -94 -1 -188.5t-1 -190.5zM512 1157l14 27q47 16 82 24.5t80 8.5q0 -6 -16 -21 q-4 -4 -19 -14l-45 -6zM672 1522l26 -60q2 -20 2 -41.5v-42.5v-110l-24 -43q0 49 5 133t5 100zM682 66l8 45q6 -57 12.5 -110.5t6.5 -78.5t-6.5 -57.5t-12.5 -63.5q0 18 -4 55.5t-4 57.5v152z" />
<glyph unicode=")" horiz-adv-x="772" d="M66 1395q0 25 6 57.5t12 63.5q0 -45 6 -107q14 -141 14 -178l-20 -25q-6 57 -12 110.5t-6 78.5zM76 -145q12 76 17 127t5 110q0 -27 4 -91.5t4 -70.5l-4 -135zM86 100q0 8 63.5 27.5t112.5 32.5l19 -15q-49 -20 -96.5 -32.5t-98.5 -12.5zM98 1178l23 26q35 0 79.5 -11.5 t73.5 -29.5l5 -133l-17 86q-4 27 -76 45q-6 2 -88 17zM102 1526q10 -2 35 -2h42t44 2q25 0 37 -2l191 -37q41 -25 79.5 -82t53.5 -111l-113 131q-8 8 -60.5 34t-90 29t-109.5 9t-109 29zM123 84q229 0 229 223v709q0 106 -59.5 157.5t-169.5 51.5q0 29 2 88t2 90v53 q-4 25 -4 35q233 0 358 -102q137 -113 137 -342l-4 -353q0 -43 2 -133t2 -135q0 -375 -137 -500q-117 -106 -358 -106v264zM137 -197q68 4 115 7.5t77.5 10.5t47 14t36 13.5t74.5 65.5q37 41 76 82q-27 -84 -101.5 -145.5t-162.5 -61.5q-27 0 -59 4q-83 10 -103 10zM276 741 q0 -100 4.5 -330.5t4.5 -244.5q10 6 23.5 21.5t13.5 23.5q0 135 4 447.5t4 332.5q0 29 -11.5 72t-21.5 82q0 -49 5 -129t5 -94q0 -31 -8 -66q-23 -96 -23 -115zM553 -84l121 332v674q0 176 -45 389q47 -115 61.5 -235t14.5 -283l-15 -588zM569 1407q55 -121 78 -330 q16 -158 17 -385v-43v-37v-30v-25v-25q0 -39 -1 -75.5t-1 -71.5q0 -86 -23 -187.5t-57 -183.5q4 35 25.5 100.5t21.5 92.5q0 59 4 197.5t4 146.5v149.5t2 153.5q0 166 -14.5 300t-55.5 253z" />
<glyph unicode="*" horiz-adv-x="567" d="M16 913l11 17l26 -103zM18 1114l54 123l-27 55zM37 965l147 71l-145 68l41 119l145 -86l4 186h129l-2 -184l138 90l47 -125l-146 -68l146 -71l-49 -113l-136 82v-186h-129l-2 186l-137 -86zM37 997l127 39l-127 41l94 -41zM72 1288l129 -112l-13 159l-4 -123l-106 101z M104 834l80 36l-41 -43zM186 723l25 172l2 -152l133 -16zM254 1382l125 -16l-119 -18zM373 881l8 -133l18 59l47 6zM375 1176l43 32l-43 123v-155zM426 1241l88 49l-80 -86zM449 1024l118 68l-41 165l103 -188zM528 856l13 109l51 -4z" />
<glyph unicode="+" horiz-adv-x="1267" d="M86 561v266l23 33l12 -289zM117 930l278 2l-274 -43zM143 594v246h144h149h49v282q33 0 98.5 -2t100.5 -2h39q23 0 59 4v-282q23 0 109 -3t131 -3h43h33q18 6 24 6v-246h-340v-281h-297v281h-342zM160 559l209 10l41 -293l-84 250zM160 866l309 66l8 -72zM418 559l33 10 l12 -276l-31 -23zM438 956l25 238v-221zM469 252l23 43l315 4l-4 270l323 -10l-305 -18l64 -301zM496 1182l315 49l4 -379l-8 303l-307 -4zM834 938l10 225l30 -219zM866 909l267 -39l-261 -8zM885 516l33 -16l-23 -152zM1155 578l4 256l23 16z" />
<glyph unicode="," horiz-adv-x="704" d="M76 -137q6 10 20.5 24.5t28.5 24.5l-2 -166q0 -14 4 -47t4 -49q-18 86 -22 106q-14 57 -33 107zM115 391q6 10 20.5 24.5t28.5 24.5q0 -70 -4 -151q-10 -203 -10 -252q0 63 -6.5 128.5t-28.5 225.5zM123 485q96 12 221 16.5t240 4.5l39 -62q-135 18 -260 29.5t-240 11.5z M141 -102q96 0 121 34q18 25 19 127h-84q-12 78 -15.5 112t-3.5 87q0 88 19 174l153 6l215 -6v-414q0 -197 -121 -258q-80 -41 -303 -41v179zM158 -309l366 65l70 -14l-391 -78zM567 -184q14 106 28.5 217.5t14.5 204.5q0 33 -5 89t-5 66l49 21q2 -18 2 -62q0 -102 -30 -278 q-21 -115 -54 -258z" />
<glyph unicode="-" horiz-adv-x="1193" d="M39 731q0 27 5 69t11 81l25 26l-6 -205q0 -37 1 -70.5t7 -72.5l-29 -12q0 31 -4 67q-10 94 -10 117zM92 743q0 29 1 58.5t7 60.5h981v-256q-170 0 -565 4t-420 4zM98 541l4 34q23 -2 93.5 -11t107.5 -9h291q47 0 141 6t142 6l188 -4q-88 -23 -162 -29t-207 -6h-55h-59 q-152 4 -258.5 8.5t-225.5 4.5zM102 915q12 0 216 4.5t292 4.5q78 0 236 -16.5t235 -16.5l-954 -10zM127 600h371q403 0 491.5 -3t102.5 -13q-98 0 -324.5 -4.5t-245.5 -4.5q-29 0 -63.5 -1t-77.5 -1q-102 0 -166.5 5.5t-87.5 21.5zM1085 909l43 -2v-334l-26 -26l4 309z" />
<glyph unicode="." horiz-adv-x="661" d="M59 362l66 44q113 0 226.5 -1.5t228.5 -1.5q-31 0 -96.5 -14t-98.5 -14q-53 0 -161.5 -6.5t-164.5 -6.5zM76 324q8 4 22.5 15t20.5 13l-2 -184q0 -27 6 -80t6 -80l-27 -10q-14 63 -20 157.5t-6 168.5zM113 -10q37 0 92 6q127 14 160 14l204 -6l-399 -47zM143 33v319 q90 -8 123 -9t70 -1q82 0 180 10q6 -35 8 -88t2 -59q0 -33 -1 -59.5t-9 -112.5h-373zM541 371l49 20l-8 -356l-33 16l2 164q0 33 -5 89t-5 67z" />
<glyph unicode="/" horiz-adv-x="864" d="M57 12q100 0 195.5 -13t179.5 -44l-10 -31q-80 0 -177.5 24.5t-187.5 63.5zM111 61v43q0 121 57 353q39 158 123 430q51 164 102 327q-66 -291 -131 -579q-71 -302 -151 -574zM139 37q115 307 213 672q92 348 152 688q90 -14 131 -23.5t98 -38.5q-14 -25 -90 -323 q-111 -442 -147 -584q-88 -340 -129 -440q-84 29 -111 35q-56 14 -117 14zM162 96q0 205 49 439q35 166 115 434q106 360 125 428q0 -195 -42 -416t-114 -471q-51 -181 -133 -414zM416 -4l35 4q31 150 120 422q117 356 142 444q68 246 67 400l-41 10zM430 1481 q100 -8 189.5 -27.5t175.5 -54.5l-318 37zM537 1411h38q39 -8 98.5 -18.5t98.5 -22.5l47 -35q-94 25 -141 35q-75 18 -141 41z" />
<glyph unicode="0" horiz-adv-x="1206" d="M68 877q0 164 17 212t112 162q-35 -61 -54 -98q-37 -72 -37 -109q0 -121 14.5 -362.5t14.5 -362.5q0 -33 -6 -72.5t-12 -76.5q-49 355 -49 707zM135 651q0 242 19 334q31 152 125 221q109 80 327 80q268 0 379 -127q105 -119 105 -391v-250q0 -231 -89 -352 q-102 -141 -323 -141h-111q-213 0 -313 110q-119 129 -119 516zM143 123l9 129q6 -27 12 -49.5t20 -57.5l250 -149l146 4l12 -51l-160 20q-66 25 -182 92q-53 31 -107 62zM174 1157q57 43 99 81t94 87l151 -22q-20 -4 -91 -15.5t-83 -17.5q-23 -10 -86 -53q-31 -23 -84 -60z M383 578q0 -193 61 -252q53 -52 170 -52q129 0 174.5 52.5t45.5 183.5q0 45 3 125t3 82q0 193 -66 262q-53 57 -164 57q-156 0 -200 -118q-27 -70 -27 -261v-79zM410 530l6 68l28 -229q-20 16 -27 66t-7 95zM420 637l4 295l41 -8q-10 -66 -19.5 -134.5t-9.5 -123.5 q0 -31 6.5 -88.5t6.5 -85.5q-10 37 -19.5 76.5t-9.5 68.5zM465 319l37 31q10 -2 34.5 -6t34.5 -4h52l131 29l-31 -54q-37 -4 -76 -8t-43 -4q-33 0 -51 2q-61 12 -88 14zM465 958q37 29 52 36t54 7l84 -2q-43 -6 -88 -17t-57 -28zM477 1343q10 -2 48 -9t44 -7q10 0 11 4 q29 -18 34 -28zM602 1343q25 -14 104.5 -20t104.5 -18l115 -60q-78 14 -171 41t-153 57zM604 6l227 2l-28 -39l-158 8q-14 12 -41 29zM688 991l41 -16q43 -61 61.5 -106.5t18.5 -108.5q0 -39 4 -132t4 -102q0 -61 -10 -107t-41 -81l22 86q0 39 -5 105.5t-5 80.5 q0 141 -8 191q-14 61 -25 114q-10 -2 -30.5 30t-26.5 46zM860 41l107 72q16 16 59 82q25 37 35 51q-12 -31 -20.5 -51.5t-22.5 -42.5l-68 -76l-59 -23zM893 2l104 88q49 61 99 123q0 -8 -54 -86q-37 -53 -65 -92zM954 1231q20 -6 42 -12.5t28 -12.5q18 -18 49 -129 q16 -57 37 -145q-53 119 -70 153q-37 76 -86 146zM1092 279l10 675q0 -63 18 -235q10 -97 10 -144v-73q0 -74 -7 -125t-31 -98z" />
<glyph unicode="1" horiz-adv-x="919" d="M76 1092q14 80 131 147q162 92 172 104l16 -22q-129 -74 -168 -96q-63 -38 -108 -138l8 -92l4 -92q0 -35 -5 -94t-5 -72l-25 -20q0 37 6.5 114.5t6.5 116.5q0 33 -8.5 66t-24.5 78zM127 707l25 -23l124 64l101 116q-125 -80 -250 -157zM145 758q0 55 2.5 114.5t4.5 118.5 q0 61 -7 121q31 45 93 88q16 12 188 111q53 -6 104 -6q49 0 98.5 2t98.5 4q0 -43 6 -129t6 -131v-602q0 -72 -6 -219.5t-6 -221.5l-37 -2q-45 0 -74 2q-113 8 -120 8h-54q-25 -6 -34 -8l2 651v201v58q-84 -63 -125 -91q-68 -43 -140 -69zM338 627l2 -236q23 84 39 213 t16 230l-2 18q-20 -55 -37.5 -108.5t-17.5 -116.5zM342 -37q68 0 207 -8t209 -8l28 39h-99t-118 -2q-47 0 -107.5 2t-90.5 14l-6 88q0 31 8 76q20 111 20 131v24l-16 156q-18 -96 -23 -125q-12 -74 -12 -125v-262zM385 1368l78 -31h176q27 0 59.5 6.5t63.5 12.5 q-55 8 -103.5 11t-121.5 3h-39zM524 1389l307 -7l-274 -10zM756 332l6 -332q25 57 37 315t12 656q0 68 -17.5 165t-31.5 185q0 -88 7 -245.5t7 -203.5q0 -84 -6 -200q-14 -272 -14 -340zM793 1339l30 -73q0 -37 -6 -83t-12 -89z" />
<glyph unicode="2" horiz-adv-x="1331" d="M88 55v123q0 78 19.5 149.5t62.5 129.5q-27 -61 -34 -134t-7 -178v-120l23 -60l65 35q39 -8 83 -18.5t77 -10.5t94 11q111 18 154 18q41 0 211 -25q70 -10 125 -10l188 6l-100 -34q-59 0 -156 12q-207 27 -256 26q-61 0 -168 -12q-215 -25 -276 -24l-82 22zM117 893v147 l123 236q57 33 141 50t162 34q-219 -72 -296 -159t-130 -308zM145 858h197q18 0 57 6t60 6l59 -6l6 47l29 -90q-88 0 -141 2q-215 8 -236 8zM154 145q0 319 178 461q78 61 334 144q182 57 182 170q0 92 -49 118q-31 16 -135 17q-104 0 -139.5 -33t-35.5 -137q-49 8 -110 8 q-35 0 -118 -4t-89 -4q0 442 438 442q350 0 461 -104q96 -92 96 -287q0 -231 -176 -340q-8 -6 -332 -127q-178 -68 -178 -197q156 14 334 15q59 0 180 -7.5t164 -7.5q8 -49 8 -108q0 -27 -4 -78t-4 -78q-68 0 -226.5 -4t-168.5 -4q-104 0 -345 4t-257 4q-4 33 -6 63.5 t-2 73.5zM190 510l25 82q51 53 180 126t367 177v61l-119 25l-92 -18l12 43l117 6l119 -31l12 -86l-49 -68q-12 -6 -268 -104q-107 -41 -123 -51q-33 -20 -92 -78q-31 -29 -89 -84zM537 303q86 14 185 30.5t157 16.5q43 0 135 -10t141 -14l-22 -41q-74 8 -149 16t-140 8z M545 369l92 92q74 33 205 74q104 31 211 63q63 90 67 94q41 53 82 84l-82 -147q-74 -55 -375 -160q-137 -47 -200 -100zM631 1360q162 0 278 -23q172 -33 242 -116q39 -70 57.5 -171.5t18.5 -197.5l-45 -49q0 35 10 100.5t10 95.5q0 39 -12 73t-35 81q-76 150 -266.5 167 t-257.5 40zM1022 532l125 109q12 16 41 78.5t45 91.5l-68 -180l-129 -101zM1147 1251l41 -43q10 -18 16 -49t15 -67zM1186 197q0 6 4 45t8 67l35 -59q0 -68 -8 -131.5t-27 -153.5q0 39 -6 117t-6 115z" />
<glyph unicode="3" horiz-adv-x="1212" d="M86 983v64q0 31 4 58.5t10 55.5l60 66q-29 -51 -39 -123t-10 -156v-47q43 0 86 -2l86 -4q66 4 133 10v51l22 -65q-53 -18 -106 -21.5t-148 -3.5l-94 6q-2 29 -3 61t-1 50zM92 186l4 -131l35 -55h68q-2 6 -42 43t-44 53q-10 61 -14.5 126t-4.5 132zM96 397l27 -18h94 q33 0 64.5 5t76.5 17l-49 19q-41 0 -107.5 -6t-105.5 -17zM119 225l2 140l233 18v-18q0 -59 12.5 -85t39.5 -26q29 0 59.5 -1t62.5 -1q168 0 227.5 40t59.5 116q0 94 -42 123.5t-126 29.5q-18 0 -58 -2t-61 -2q-29 0 -45 -3t-32 -15l-7 258q33 0 90.5 -4.5t81.5 -4.5 q72 0 105 27q41 35 41 121q0 53 -18.5 86t-67.5 33h-219q-43 0 -55.5 -28t-12.5 -75v-30l-254 -2v137q0 127 80 195.5t211 68.5h82t84 2q287 0 381 -96q84 -86 84 -262q0 -109 -19 -156q-27 -66 -108 -111q90 -16 121 -125q20 -70 20 -190q0 -197 -45 -277 q-63 -113 -244 -112l-385 6q-2 -2 -13 -3t-24 -3q-109 0 -175 60.5t-66 170.5zM188 1260q51 51 105 83q61 39 127 39q139 0 253.5 -8t295.5 -31q10 0 17 -13t11 -44q-33 20 -57 33q-47 27 -61 27h-117q-88 0 -144.5 2t-103.5 4h-64.5t-78.5 -9q-55 -27 -84 -38 q-92 -43 -99 -45zM248 -37l2 21l297 -11q-68 0 -175.5 -5t-123.5 -5zM338 -53q102 -8 138 -9t77 -1q33 -4 68 -9q12 0 44.5 15.5t55.5 25.5l-84 8l-19 -6l-34 -4l-143.5 -14t-102.5 -6zM391 524q0 80 6 157t23 112q2 -8 2 -136.5t14 -142.5l29 2l37 -29l-78 2zM397 281 q76 12 170 18t174 6q-57 -16 -107 -25.5t-99 -9.5q-27 0 -48.5 1t-89.5 10zM416 995q94 8 137 9.5t68 1.5l112 -25l-24 45q-10 -4 -22.5 -4h-18.5l-88 6l-52 -2l-106 6zM432 831h68q20 0 47.5 1.5t62.5 7.5l95 43l32 67l-4 -69l-33 -50q-63 -12 -127 -22h-116zM496 506 l14 22q4 -6 124 -8t124 -10zM727 -72l188 43q-16 -2 -51 -2h-51h-31zM915 -16q18 6 50 26q16 12 45 35l-9 -51zM999 1257q16 -20 45 -61t46 -70q-16 59 -23 80q-21 53 -29 80zM1004 696l47 -80l6 -22l14 -51v88zM1024 -12q10 6 31.5 29.5t28 38t30.5 83.5q18 55 33 92 l-17 -118q-20 -43 -32.5 -69t-32.5 -56h-41zM1026 27q57 86 75.5 142t18.5 153q0 59 -6 112q-12 78 -16 113q14 -23 19 -45.5t5 -59.5q0 -18 -1 -36.5t-1 -36.5q0 -16 -1 -39t-7 -52.5t-22 -60.5q-43 -78 -48 -94zM1044 780q2 6 14.5 22.5t12.5 20.5v2l2 11l4 38l2 33 q0 20 -8 43q4 -8 11.5 -21.5t7.5 -21.5q-12 -25 -13 -41l-2 -59zM1053 1112l34 -72l3 86l-21 -24zM1085 967v41l2 32l13 -39q-2 -14 -15 -34z" />
<glyph unicode="4" horiz-adv-x="1456" d="M90 586l19 -340q0 49 5 129t5 94zM113 645q12 -25 18 -90.5t6 -130.5v-25q0 -84 -6 -127q16 23 33.5 194t19.5 202q57 80 183 221q104 119 213.5 245t146.5 187l-113 -61q-6 -35 -118 -179q-96 -123 -220 -264t-163 -172zM176 479q0 45 2 68.5t8 79.5q117 150 279 344 q119 143 285 340q39 0 116.5 6t116.5 6q43 0 77 -2t68 -10v-752q29 -12 78 -12q25 0 53.5 4t47.5 8v-266h-179l7 -121l-7 -164q-74 -8 -163 -8h-78q-53 6 -78 8q0 31 -2 94.5t-2 96.5v47q4 33 4 47q-63 -6 -160.5 -8t-109.5 -2q-76 0 -202 5t-151 5q-8 88 -9 126t-1 60z M178 262q111 0 180 2q279 8 306 8l110 -6l6 -57q0 -27 -6 -80t-6 -80q0 -25 6 -49l-47 72l25 84l-7 63q-219 0 -374.5 11.5t-192.5 31.5zM461 559q94 -8 130 -9t75 -1h36q27 0 53.5 2t53.5 8q12 117 12 236q0 113 -12 223q-76 -135 -158 -243.5t-190 -215.5zM526 586 q72 66 137.5 157t110.5 185q10 -45 14.5 -112.5t4.5 -129.5l-29 35l-6 100q-45 -70 -103 -131q-78 -86 -129 -104zM768 1360q90 0 195.5 4t177.5 8l28 -51l7 -741l-23 36q0 72 -6 223.5t-6 229.5q0 68 2 119t10 106l-25 27h-28q-109 0 -213.5 8t-118.5 31zM784 -18 q37 0 128.5 -4.5t97.5 -4.5l98 27l22 -43l-34 -23h-29q-100 0 -197 13zM1151 270l8 -245l-4 -48l47 23l-26 242l94 -4h82l-52 28q-16 4 -39.5 4h-35.5h-74zM1210 569q35 5 72 9h59l-16 -265l12 -39q10 57 18.5 127t8.5 129v82h-102z" />
<glyph unicode="5" horiz-adv-x="1236" d="M78 1075l14 49l6 -426zM90 424q45 14 94 15t88 1q6 0 91.5 -2t117.5 -2l-2 -26l-41 -11q-8 0 -135 4.5t-182 4.5q16 -94 33 -189q31 -135 86 -160q121 -53 217 -67q59 -8 227 -8q82 0 199 32q139 40 168 93q29 63 59 127l-27 -127l-196 -129l-473 -7l-201 45 q-45 94 -82 199q-51 145 -41 207zM98 516q10 18 20.5 70.5t10.5 77.5l-25 555l19 69q0 -117 16.5 -354t16.5 -356l-15 -52q55 16 146.5 23.5t175.5 7.5l29 -25q-47 0 -193 -14q-84 -8 -117 -8zM147 1327q84 31 227.5 38t342.5 7h348l61 -51q-53 8 -112 17.5t-96 9.5 q-96 0 -482 -15q-166 -6 -289 -6zM154 381q23 4 47 4h39h28l205 -4q0 -76 66 -98q37 -12 131 -13q70 0 100 62q25 49 25 125q0 94 -31 133q-37 45 -129 45q-51 0 -91 -11.5t-50 -45.5q-10 -2 -35 -4.5t-45 -2.5h-25l-233 7v733q90 0 241.5 5t182.5 5q115 0 294 -5t205 -5 v-248h-604l-4 -111l4 -75q39 14 81 20t87 6q264 0 363 -88q106 -96 106 -356q0 -279 -123 -373q-104 -80 -395 -80q-248 0 -336 64q-104 76 -104 311zM170 1376l418 23q41 -6 82 -10zM489 377l62 -51h147l41 59l2 49q0 47 -9 92t-32 76l66 -49l6 -156l-22 -69l-48 -37 l-143 2q-16 0 -39.5 30.5t-30.5 53.5zM502 911v43q121 0 229.5 -5t179.5 -21l176 -107q29 -47 44.5 -120.5t15.5 -137.5q-18 -145 -35 -291q0 23 7 105t7 129q0 201 -49 274q-61 90 -260 131q-55 10 -90 13.5t-68 3.5h-110zM530 1028q61 12 129 16.5t148 4.5q55 0 109.5 -1 t107.5 -1l53 -13l29 13q0 57 -2 114.5t-4 114.5q20 -29 30 -115q8 -98 11 -127l-17 -41q-98 0 -221 11q-297 25 -373 24zM1118 172l33 328l-21 -367z" />
<glyph unicode="6" horiz-adv-x="1331" d="M92 430q0 309 12.5 458.5t38.5 282.5l56 60q-39 -117 -54.5 -225.5t-15.5 -241.5q0 -41 -6 -129t-6 -135v-64q6 -29 8 -41zM106 381q14 -78 54.5 -168.5t91.5 -149.5q94 -49 213 -68.5t242 -19.5q68 0 178 26t209 48l-318 -100q-383 0 -481 53q-133 72 -189 379zM141 477 v361q0 276 144 389q127 98 411 98q217 0 336 -78q143 -94 144 -299h-299q0 68 -39 101q-45 39 -172 38h-43q-94 0 -128 -47t-34 -145v-137q41 61 72.5 76.5t109.5 15.5h113q240 0 327 -70q104 -82 105 -313q0 -295 -135 -387q-107 -74 -420 -74q-260 0 -376 106.5 t-116 364.5zM203 1163l73 125l166 86h205q61 0 137 -10t148 -18h-361q-102 0 -209 -46q-124 -53 -159 -137zM459 444q0 -94 40 -129.5t138 -35.5h59q94 0 133 28q47 35 48 125q0 104 -38.5 142t-142.5 38h-65q-96 0 -134 -35.5t-38 -132.5zM467 842q0 -25 2 -35l63 49 q33 4 99.5 6t99.5 2h31l69 -6l-34 27q-33 4 -70 10t-63 6q-35 0 -88.5 -8t-86.5 -21l5 117q-27 -59 -27 -147zM485 401l27 -71q74 -14 121 -21.5t100 -7.5l105 37l-289 16q-23 20 -34 86t-11 109q-8 -55 -10 -74q-9 -56 -9 -74zM510 1034l244 6l80 -28l16 -107l12 2l-16 119 q-51 18 -110.5 32.5t-100.5 14.5q-29 0 -54.5 -5t-52.5 -9zM549 586l246 -8l65 -132q-23 29 -72 74q-33 31 -43 33l-131 22zM803 1331l43 2l244 -61q68 -104 94 -170q35 -86 35 -193l-275 -4l-67 6l2 21l129 4q43 0 87 -2t89 -4l8 22l-29 193l-123 123zM881 879l249 -72 l113 -143l-37 -547q-37 -47 -98 -80q-25 -12 -119 -53l148 94q23 51 46 179t23 185q0 53 -4 97q-14 154 -14 163q-35 66 -141 103q-133 47 -166 74z" />
<glyph unicode="7" horiz-adv-x="1347" d="M113 1243l6 113q12 -29 16 -115t4 -199q-14 101 -26 201zM131 983l27 41l569 12l33 -18q-41 -92 -96.5 -191.5t-108.5 -193.5q-63 -117 -96 -197q-49 -131 -68 -178q-31 -76 -100 -180q0 43 90 248q59 133 181 387t130 270l-71 14q-57 0 -174 -8t-175 -8zM160 1049v262 h999v-254l-518 -1049h-354l514 1041h-641zM168 1352l74 20q123 0 612 -14q209 -6 367 -6l-11 -262l-22 -25l-12 256l-25 22q-25 0 -419 4.5t-564 4.5zM231 -39l27 133l27 -121h342l8 -28zM264 156v77l219 385zM514 668l43 182l74 80zM655 -35l381 791l33 -6 q-104 -238 -188 -402q-113 -223 -226 -383zM727 0q68 104 129 225q52 101 111 236l37 31q0 -82 -125 -289q-49 -80 -97 -158zM1001 532q16 45 46 125q23 63 43 129l-27 9q47 82 94 163q56 103 72 177q-10 -88 -19 -174q-8 -33 -98 -209q-55 -111 -111 -220z" />
<glyph unicode="8" horiz-adv-x="1376" d="M104 379l89 225l-48 -211l52 -256l196 -137l-55 -20l-121 79zM156 846q0 53 14 211q8 90 8 127l35 22q-14 -82 -24.5 -173t-10.5 -167q0 -16 27.5 -68.5t43 -65.5t32.5 -21q29 -16 32 -19q-12 -18 -55 -45q-18 -10 -35 -20l8 39zM178 424q0 129 53.5 188.5t180.5 75.5 q-129 20 -170 76.5t-41 198.5q0 174 90 260q109 102 424 102q252 0 340 -55q121 -76 121 -307q0 -141 -33 -191q-39 -59 -168 -84q145 -16 188 -96q33 -61 33 -223q0 -252 -154 -322q-90 -41 -383 -41q-248 0 -356 82q-125 94 -125 336zM231 1257q41 27 143.5 67t139.5 40 q25 0 58.5 1t74.5 1q76 0 137.5 -6t69.5 -23q-55 8 -88 8.5t-59 0.5q-102 0 -200.5 -13.5t-182.5 -38.5l-78 -98zM319 -43q55 0 166 -6t168 -6q88 0 244 37q182 43 225 90l-75 -72q-8 -4 -93 -31q-174 -53 -182 -53q-184 0 -278.5 10.5t-174.5 30.5zM408 -31l16 15l266 2 l58 -21zM498 440q0 -133 35.5 -168.5t162.5 -35.5q96 0 139.5 36.5t43.5 133.5q0 94 -49.5 127.5t-147.5 33.5q-113 0 -135 -10q-49 -23 -49 -117zM500 936q0 -90 55 -127q45 -31 141 -31h49q82 0 108 25.5t26 132.5q0 119 -35 142.5t-162 23.5q-182 0 -182 -166zM532 901 q0 20 4.5 63.5t4.5 63.5l30 -180q55 -4 111.5 -16.5t101.5 -32.5h-79q-37 0 -80 5t-66 15zM541 446q23 -37 32 -61q2 -6 33 -109l-39 62q-14 53 -26 108zM573 518q8 2 53.5 11.5t63.5 9.5t48 -5.5t48 -7.5l41 -34q-121 18 -127 18q-68 8 -127 8zM588 1061q41 4 83 8t48 4 l94 -20q-70 -10 -117 -15.5t-102 -5.5zM645 285l115 14l92 78q-25 -59 -78 -98l-96 -21zM778 1389l53 6l62 -21l33 -53q-20 14 -42 30.5t-38 24.5zM817 954l19 43l12 -123zM952 1337l74 11l174 -154q4 -29 9 -56.5t5 -58.5q0 -35 -6 -104.5t-6 -102.5q2 16 2 60 q0 82 -15 169t-44 134q-78 78 -193 102zM1012 -43l96 61l-16 -53zM1061 688q53 33 74 51q37 31 57 74l-37 -119zM1145 0q8 55 47 193q29 104 29 198q0 47 -27 174q-12 58 -12 74l4 35l82 -328z" />
<glyph unicode="9" horiz-adv-x="1376" d="M131 659l33 512v-497l39 -72zM152 410q12 -111 26 -222l64 -106l174 -82l-217 51q-47 170 -47 359zM176 864q0 297 121 387q98 74 414 74q340 0 434 -145q70 -109 69 -482q0 -403 -84 -528q-111 -164 -485 -164q-246 0 -340 66q-117 80 -117 311q41 6 82 6h25l192 -6 q0 -84 48 -115q39 -25 124 -24q141 0 181 94q27 143 43 235q-53 -55 -119 -73.5t-158 -18.5q-240 0 -327 70q-102 80 -103 313zM184 426l295 -18l-282 -13zM188 582l78 -37l158 -72l266 -12q57 10 117 20l24 -45l-358 -4l-258 105zM188 1217l164 147l-137 -174zM285 0 q86 0 215 -8q288 -19 360 -19l172 58l-4 -58q-66 0 -156 -6q-211 -14 -262 -14q-55 0 -149 16.5t-176 30.5zM336 1303l287 81q47 0 185 -9t179 -54q-104 14 -204.5 18t-217.5 4q-37 0 -114 -16q-39 -8 -115 -24zM487 899q0 -102 27 -131t131 -29h68q100 0 139 23 q53 31 53 123q0 188 -198 188h-62q-94 0 -126 -39t-32 -135zM516 385l82 -76q23 -12 57.5 -24.5t67.5 -22.5q-39 0 -84 4t-74 13zM516 934l49 80l-14 -137q45 -31 76 -56q6 -6 69 -57q-41 4 -83 19.5t-83 37.5zM645 1049l154 -7l55 -61l10 -178q-18 59 -26.5 89t-20.5 52 l-63 72zM717 780l108 15l9 -21zM979 1364q45 -12 102.5 -51t92.5 -76l4 -49q-39 45 -91.5 91t-107.5 85zM1051 57q63 82 105 136.5t44 60.5l21 139l14 -41l-43 -157q-10 -18 -53 -74q-53 -68 -60 -76zM1182 1155l43 27l37 -729l-35 -11l-13 674zM1251 1184l23 -47l-2 -756z " />
<glyph unicode=":" horiz-adv-x="655" d="M59 362l66 44l129 -3l313 7q-123 -25 -244.5 -36.5t-263.5 -11.5zM66 971l65 43l129 -2l313 6q-109 -29 -233.5 -38t-273.5 -9zM76 324q8 4 22.5 15t20.5 13l-2 -184q0 -27 6 -80t6 -80l-27 -10q-14 63 -20 157.5t-6 168.5zM82 932q12 4 26.5 16.5t16.5 12.5l-2 -185 q0 -27 6 -80t6 -80l-26 -10q-14 63 -20.5 157.5t-6.5 168.5zM113 -10q37 0 92 6q127 14 160 14l204 -6l-399 -47zM119 596q84 10 143.5 16t108.5 6q35 0 115.5 -4t86.5 -4l-397 -45zM143 33v319q49 -8 93.5 -12t97.5 -4q84 0 182 16q8 -33 10 -62.5t2 -70.5q0 -39 -4 -92 t-8 -94h-373zM150 641q12 80 12 158q0 80 -12 159h372v-317q-96 12 -188 12t-184 -12zM541 371l49 20l-8 -356l-33 16l2 164q0 33 -5 89t-5 67zM545 979l49 18q0 -59 -4 -201.5t-4 -152.5l-31 16l2 162q0 25 -6 78t-6 80z" />
<glyph unicode=";" horiz-adv-x="651" d="M55 -137q6 10 20.5 24.5t28.5 24.5l-2 -166q0 -14 4.5 -47t4.5 -49q-18 86 -23 106q-14 57 -33 107zM66 971l65 43l129 -2l313 6q-109 -29 -233.5 -38t-273.5 -9zM82 932q12 4 26.5 16.5t16.5 12.5l-2 -185q0 -27 6 -80t6 -80l-26 -10q-14 63 -20.5 157.5t-6.5 168.5z M94 391q6 10 20.5 24.5t28.5 24.5l-2 -409q-12 59 -19 112.5t-28 247.5zM102 475l217 -2q45 0 114 7.5t130 15.5l39 -62q-137 0 -257 9.5t-243 31.5zM119 596q84 10 143.5 16t108.5 6q35 0 115.5 -4t86.5 -4l-397 -45zM121 -102q96 0 121 34q18 25 18 127h-84q12 90 12 179 q0 96 -12 194q33 -6 83 -14t108 -8q43 0 81.5 5t96.5 17v-414q0 -197 -121 -258q-80 -41 -303 -41v179zM137 -309l350 59l86 -8l-391 -78zM150 641v317q90 -8 121.5 -9t68.5 -1q80 0 182 10q0 -23 2 -72.5t2 -76.5q0 -29 -2 -85t-2 -83h-372zM545 979l49 18q0 -59 -4 -201.5 t-4 -152.5l-31 16l2 162q0 25 -6 78t-6 80zM547 -184q20 178 31.5 280.5t11.5 141.5q0 33 -5 89t-5 66l28 21q6 -49 12.5 -98.5t6.5 -69.5q0 -14 -23 -133q-29 -147 -57 -297z" />
<glyph unicode="&#x3c;" horiz-adv-x="888" d="M82 608l59 -221l443 -311l-488 317zM96 676h39l-6 -254zM141 643l15 33l565 336zM147 416v188l545 371v-256l-321 -205l321 -207v-256zM207 354l483 -319l41 18l-26 -45q-51 18 -246 160q-102 74 -252 186zM442 516l263 -156l-11 -20zM463 541q78 51 117 75q94 57 116 58 l-186 -176zM715 971l37 6l30 -279l-59 11zM721 88l8 262l53 -268z" />
<glyph unicode="=" horiz-adv-x="1030" d="M94 313q0 33 6.5 73t12.5 79l24 27q0 -39 -4 -129.5t-4 -96.5q0 -31 1 -61.5t7 -63.5l-28 -10q0 31 -5 68q-10 92 -10 114zM102 555l4 317l27 -2l-8 -264l20 -53zM139 879q141 0 285 6q428 18 475 18l-20 -41h-168h-86q-274 0 -372.5 4t-113.5 13zM147 326q0 29 1.5 58.5 t7.5 59.5h757v-254q-190 0 -380.5 2.5t-380.5 4.5zM150 571q78 0 235.5 -16t235.5 -16q47 0 141 4t141 4l-24 35zM150 600v256q129 0 434 -4t325 -4l4 -129v-31v-53q-6 -27 -8 -35h-755zM158 498l24 -35l729 12q-66 0 -293 21q-113 10 -178 10q-47 0 -141 -4t-141 -4z M184 182q203 0 460 -1t280 -15q-80 0 -268.5 -4t-200.5 -4h-62q-90 0 -134 3t-75 21zM915 492h46l-3 -336l-26 -25l4 307zM924 903l30 -24q2 -37 7.5 -87.5t5.5 -60.5q0 -27 -6.5 -69.5t-10.5 -79.5l-24 -27l6 205v37v65q-6 29 -8 41z" />
<glyph unicode="&#x3e;" horiz-adv-x="851" d="M74 993l45 -61l-8 -262zM88 43q0 63 7 129t22 139l8 -262zM109 967l26 45q51 -18 246 -160q102 -74 252 -186l-483 319zM119 8l579 369l-14 -33zM135 659l10 21l283 -182zM143 346l179 133h55q-76 -51 -117 -76q-94 -57 -117 -57zM147 45v256l322 205l-322 207v256 l545 -365v-188zM168 -10q33 49 242 166q109 61 272 147zM256 944l487 -317l15 -215l-60 221zM705 344l6 254l32 -254h-38z" />
<glyph unicode="?" horiz-adv-x="1028" d="M-12 1225q133 125 159 143q86 61 310 62q84 0 205.5 -20.5t168.5 -55.5q-88 27 -165.5 40t-155.5 13h-180q-45 0 -166 -74q-106 -66 -150 -108q35 -57 97.5 -116.5t119.5 -82.5q-72 0 -172 113q-29 33 -71 86zM45 1208q94 115 193 150q76 27 233 26h94q215 0 300 -82.5 t85 -300.5q0 -213 -104 -294q-129 -54 -256 -107q-2 -8 -3 -29.5t-1 -33.5v-64h-379v117q0 178 226 245.5t226 133.5q0 72 -34.5 92t-112.5 20h-36.5t-37.5 2q-59 0 -105 -9t-81 -38q-115 80 -207 172zM121 342l65 43l129 -2l326 6q-104 -29 -237.5 -38t-282.5 -9zM141 303 q8 4 22.5 15.5t20.5 13.5l-2 -185q0 -27 6.5 -80t6.5 -79l-27 -11q-14 63 -20.5 157.5t-6.5 168.5zM147 621l35 55l68 112q10 10 26 19q27 14 31 16q98 57 166 78q82 20 166 43l-55 -47q-104 0 -231.5 -74.5t-184.5 -160.5l10 -162l-24 -45zM174 -31q37 0 92 6 q127 15 160 15l205 -6l-400 -47zM205 12v320h373v-320h-373zM213 461l334 6q-59 -8 -100 -12t-78 -4q-33 0 -89.5 5t-66.5 5zM252 1032q57 18 110.5 28.5t112.5 10.5l76 -4q-84 -10 -134 -20.5t-106 -30.5zM545 1038l57 6l49 -55zM598 350l49 21l-8 -357l-33 17l2 143 q0 37 -5 100.5t-5 75.5zM614 479l9 84l45 47l135 39l110 111l-133 -154l-106 -24zM842 1372l96 -74l29 -174l-35 127q-8 16 -43 62q-25 29 -47 59zM895 688q57 66 74 207q8 78 22 227q0 -16 5 -100t5 -133l-40 -150z" />
<glyph unicode="@" horiz-adv-x="2011" d="M84 799q0 209 43 336q63 190 225 190q-109 -74 -168 -201q-67 -149 -67 -434q0 -141 30 -311q10 -33 33 -88q4 -20 37 -80l21 -31q0 -84 -27 -149q-84 154 -105.5 330t-21.5 438zM158 684q0 387 216 612.5t603 225.5q373 0 615.5 -229.5t242.5 -600.5q0 -209 -74 -323 q-90 -139 -293 -140q-176 0 -229 152q-92 -141 -131 -172q-76 -51 -221 -51q-211 0 -318 168q-90 147 -90 370q0 242 121 351.5t361 109.5q98 0 169 -61q51 -35 127 -142l7 107h166q-12 -123 -25 -219q-41 -254 -41 -371q0 -49 35 -77.5t90 -28.5q6 0 27.5 26.5t54.5 52.5 l6 95q0 389 -117 567q-150 223 -508 223h-59q-45 0 -81 2t-73 19q-178 2 -282 -197q-90 -164 -90 -350q0 -377 24 -479q70 -272 574 -273q109 0 262 29t221 78l90 -111q-109 -100 -258.5 -147t-310.5 -47q-430 0 -620.5 191.5t-190.5 639.5zM246 -10q16 -4 59 -31 q63 -41 129 -55.5t186.5 -40t131.5 -31.5l-52 -70q-123 70 -243 136q-96 55 -207 188zM326 1397q61 18 148 43.5t134 38.5l-225 -99q-2 0 -20.5 4.5t-36.5 12.5zM401 655v185q0 25 9.5 82t17.5 139h49q0 -47 -26 -187q-20 -59 -21 -98q0 -37 14.5 -185.5t14.5 -225.5 q-20 14 -29.5 78.5t-10.5 105.5t-9.5 68.5t-8.5 37.5zM459 311q102 -92 211 -178l346 -53q-10 0 -37 -3t-49 -3h-53q-47 0 -160 11.5t-127 31.5q-51 45 -66 65q-51 63 -65 129zM463 1098q49 121 133 155q20 12 221 37q-35 -25 -112.5 -45t-106.5 -43zM502 1491 q59 23 176 52.5t166 29.5q57 0 178 -12.5t176 -12.5q-152 0 -336 -18.5t-360 -38.5zM670 631q0 -111 73.5 -173.5t186.5 -62.5q287 0 287 273q0 119 -74 179t-191 60q-135 0 -208.5 -72.5t-73.5 -203.5zM713 512q33 -2 78 -8t106 -6q127 0 285 65q-66 -127 -187 -127 q-104 0 -152 12.5t-130 63.5zM713 668q8 47 18.5 72.5t20.5 58.5q25 33 91 53t115 20q82 0 160 -43t78 -131v-16q-88 143 -274 143q-49 0 -109 -51q-53 -53 -100 -106zM776 -238l121 76l377 -35q61 59 139 115q100 63 258 156v-101q-72 -53 -203 -112q-61 -35 -196 -99 q-39 6 -201 7q-66 0 -170 -2.5t-125 -4.5zM858 1212l29 27l28 -20zM909 1300q82 -10 170 -19.5t156 -27.5q20 -2 72 -28q25 -12 73 -33l-127 -14q-63 37 -122.5 58t-221.5 64zM1085 88q78 18 116 52t38 100v24l70 -80h80l-23 -41zM1221 1513q51 -10 91 -14t193 -22 q133 -123 168 -158q78 -90 146 -311q59 -193 69 -238q29 -123 29 -233q0 -25 -3 -50.5t-3 -44.5q-18 213 -64 402q-61 254 -151 366q-74 92 -152 187q-160 59 -323 116zM1409 438q0 139 12.5 285.5t28.5 288.5q0 -160 7 -286t30 -249zM1645 127q-6 14 36 74q25 37 48 69 q61 88 90 152q25 78 55 164q-13 -76 -19 -148q-16 -115 -65 -172q-72 -72 -145 -139z" />
<glyph unicode="A" horiz-adv-x="1306" d="M45 45q39 49 107 317q43 178 86 359l-156 -711zM68 14q190 0 344 17q6 20 8 55t2 39q8 4 12 46t4 48q8 -27 8 -65q0 -25 -2 -53.5t-2 -30.5l7 -64h-84q-51 0 -170 4t-127 4zM92 201q59 252 129 501q21 76 144 498l30 17q-45 -160 -96 -338q-57 -199 -100 -338 q-18 -59 -107 -340zM109 43l317 1192h410l317 -1192h-264l-74 287h-364l-78 -287h-264zM164 580q31 145 63 290q45 183 92 283l13 8q-35 -131 -77 -278.5t-91 -302.5zM387 1249q20 6 41 17q31 16 33 26q12 2 30.5 2h43.5q8 0 59 -5t80 -5q27 0 52.5 1t51.5 1h37l-2 -29 q-8 0 -132 -4t-179 -4h-115zM461 254l24 65l162 7q39 0 88 -9q16 -2 51 -8l-8 21q-131 0 -192 -23q-14 -6 -125 -53zM500 526h262l-131 484zM522 537l109 407l-86 -391l137 2l4 -18h-164zM653 870l49 -190l7 78zM707 582v12l2 22l24 -63l-24 -10zM786 254h1q16 0 45 -114 q30 -116 47 -117h82t90 2q59 0 95 -2.5t71 -12.5q-23 -14 -75 -18t-91 -4l-230 6q-6 -2 -7 6t-1 29v30q0 29 -8.5 81.5t-18.5 113.5zM852 1266l51 -25q27 -127 39 -190q25 -115 49 -191q-49 119 -78 201q-38 111 -61 205zM965 827l43 17q27 -160 47 -246q10 -45 102 -399 l-47 47l-8 -19q-2 27 -4 56q0 193 -49 335q-20 59 -84 209zM1157 168q16 -43 43 -82q43 -63 49 -72l-47 9q-6 16 -19.5 46.5t-17.5 50t-8 48.5z" />
<glyph unicode="B" horiz-adv-x="1398" d="M53 137l56 4q-23 72 -35.5 212.5t-12.5 240.5l2 174l7 -156v-28q0 -174 -3.5 -303t-13.5 -144zM90 -2l19 16l18 -18q0 322 -2 643.5t-4 642.5h26q0 -182 -14 -411.5t-28.5 -476.5t-14.5 -396zM104 -43l2 20l295 -10q-68 0 -174.5 -5t-122.5 -5zM127 1358q66 12 147.5 18 t151.5 6q111 0 270 -20q352 -45 451 -45l-109 45q-57 -16 -158.5 -23.5t-230.5 -7.5q-61 0 -133 1t-154 3q-43 0 -109.5 7.5t-125.5 15.5zM154 -6q0 113 4 205q14 319 14 346q0 160 -4 289q-14 453 -14 485q152 -18 301 -19q72 0 131 5q205 14 219 14q197 0 281.5 -79 t84.5 -275v-41q0 -109 -26.5 -156t-79.5 -70q109 -14 147 -114q27 -68 27 -201q0 -213 -72 -297q-79 -92 -288 -92q-102 0 -275.5 5t-208.5 5q-59 0 -119.5 -2t-121.5 -8zM401 -53q164 0 299 -23l-22 27l20 26q-37 -12 -138 -21t-159 -9zM473 258q74 -8 168 -8h55 q109 0 156 22q70 35 70 136q0 102 -74 137q-45 22 -153 22h-9h-49q-84 0 -164 -12q18 -74 19 -152q0 -84 -19 -145zM473 819q27 0 91.5 4t70.5 4q18 0 55 -4t58 -4q55 0 80.5 30t25.5 87q0 55 -25.5 87t-80.5 32h-275q6 -16 9 -47t3 -64t-1 -69.5t-11 -55.5zM498 838h284 l-262 18l2 82l-22 6zM500 977l112 27q43 0 100.5 -8.5t110.5 -14.5l-12 37l-18 10l-27 -2l-76 4l-72 -4l-112 6zM510 319l10 187l25 8l2 -6q0 -25 -25 -117q-12 -45 -12 -72zM526 287q51 8 97.5 10t109.5 2l8 -16l-86 -4q-31 0 -69.5 3t-59.5 5zM586 537l245 -17l70 -74 l-16 -124l-49 -33l30 92l-28 108zM780 -84l109 23l8 -37zM881 -31l2 -51l164 53h-83t-83 -2zM1047 -16q18 8 56 21.5t77 25.5l-27 -37zM1102 1257q61 -59 112 -131q-32 76 -65 154l-2 6zM1155 696q18 -25 39 -49q29 -39 31 -53l20 37zM1165 1112l43 -72l6 86l-28 -24z M1184 27q86 170 92 184q24 63 24 117q0 60 -9 116t-17 113q16 -18 22.5 -47t6.5 -59q0 -18 -1.5 -38t-1.5 -38q0 -16 -1 -37t-7 -50.5t-57 -107.5q-27 -41 -31 -57zM1208 903q23 -31 33 -51.5t10 -34.5v-39q0 -14 -2 -20l-14 -27q8 29 8 45q0 12 -15.5 63.5t-19.5 63.5z M1208 967v73l17 -39zM1247 -12q14 18 23.5 44.5t23.5 94.5q2 16 15.5 43t29.5 61l-20 -118l-12 -19q-4 -8 -9 -20q-10 -45 -12 -47l-26 -39h-13z" />
<glyph unicode="C" horiz-adv-x="1529" d="M55 514l54 -88q14 -25 26 -115q4 -39 12 -47l23 -28l-2 -9l8 -16q20 -29 27.5 -77t13.5 -91l92 -102l-108 84q-33 90 -62 180q-35 113 -84 309zM86 1169l72 103q45 10 73 35q43 47 88 96q14 14 80 20.5t179 10.5q-45 -10 -92.5 -21.5t-88.5 -23.5q-80 -29 -170 -101 q-109 -86 -116 -155l-19 -166zM111 686q10 -72 30.5 -208t53.5 -226q6 -18 20 -57t29 -62l73 -98l17 -68q-121 123 -178 336q-45 170 -45 383zM111 723v129q0 18 22.5 122.5t59.5 254.5q12 8 80.5 54t70.5 63l43 -37q-29 -4 -84 -39q-39 -25 -76 -56q-8 -43 -21 -86t-30 -75 q0 -2 -14 -21q-6 -10 -8 -18zM156 694q0 338 82 471q109 176 417 176h213q295 0 396 -84q115 -96 114 -380q-35 6 -63 6q-31 0 -92.5 -6.5t-94.5 -6.5l-79 7q0 113 -72 151q-49 27 -166 27h-84q-150 0 -205 -84q-43 -66 -43 -209q0 -53 3 -139t3 -88q0 -180 80 -222 q45 -24 238 -24h16q98 0 135 10q94 27 95 164q20 6 52 12t52 6q31 0 92.5 -10t93.5 -10q25 0 39 2q0 -297 -125 -387q-100 -74 -415 -74h-146q-346 0 -454 176q-82 133 -82 516zM385 1350q6 2 29.5 14t31.5 12l7 -8q10 0 31.5 11.5t31.5 15.5t75.5 7t125.5 3l-168 -31z M391 0l268 -35q12 -2 42 2t36 4q4 0 48 -4t61 -4q27 0 131 14q45 7 76 7q27 0 39 -4q-96 -20 -210 -44t-167 -24q-61 0 -146.5 12.5t-144.5 28.5zM514 602l8 27q0 4 -4 51t-4 65q0 25 5 46.5t16 50.5v-23q0 -6 14 -96q4 -27 4 -57v-250zM537 868l10 121l37 29 q-16 -37 -17 -74v-14zM567 371q8 -2 45 -15q49 -12 76 -12l150 31q12 2 45 8h71l64 111q-16 -47 -21 -66q-10 -39 -10 -66l4 -10l6 2q-190 -18 -381 -35zM612 1024h258l129 -47l13 -49q-98 45 -198.5 70.5t-201.5 25.5zM645 1366q59 18 121 37l106 7q-25 -6 -44 -12t-54 -22 l-43 -16zM782 1358q47 6 99 16q74 17 92 31q172 -31 317 -70q29 -45 50.5 -96t21.5 -90l-72 137l-162 64q-66 8 -97.5 8h-74.5h-174zM1061 852l205 6h67.5t71.5 -6l-4 360q10 -96 26.5 -193t42.5 -212h-12q-23 0 -98 20q-37 10 -62 11q-12 0 -27.5 -3.5t-37.5 -11.5 q-78 8 -123 14.5t-49 14.5zM1079 500q31 16 162 23t133 7l-28 -30l-66 -17q-31 0 -85 5.5t-116 11.5zM1145 -8l123 49q-14 -10 -29 -21.5t-27 -25.5zM1276 49q18 16 57 49q23 20 51 54l46 -5q-31 -29 -75 -57.5t-79 -40.5zM1376 209l15 27q2 4 2 40v62q0 41 10 85t22 87 l7 -231v-80z" />
<glyph unicode="D" horiz-adv-x="1441" d="M53 8q18 121 25.5 230.5t7.5 253.5l-4 557l49 -160q-33 -109 -39 -142.5t-6 -84.5v-140q0 -45 -1 -93t-1 -101q0 -33 5 -146.5t20 -169.5zM63 -45l93 31q8 0 144 -4.5t196 -4.5q-76 -10 -170.5 -16t-262.5 -6zM106 16q0 150 12.5 402t25 484.5t12.5 420.5h-23l7 -1307 l-15 17zM129 1370l107 33q12 0 36.5 -6t34.5 -6q29 0 144 14q49 6 84 6q25 0 88 -15.5t96 -15.5q131 0 254 -16t246 -49l-50 43q-25 0 -187.5 5t-266.5 5q-147 0 -294 1t-292 1zM154 860q0 106 6 231.5t16 241.5l141 6q86 0 222.5 -5t156.5 -5q385 0 494 -94 q123 -106 123 -487v-152q0 -387 -148 -506q-111 -90 -438 -90h-35h-30h-27h-25h-75.5t-77.5 2h-25l-256 6l4 111q0 113 -8 276q-18 371 -18 465zM410 -49q33 8 77.5 10t102.5 2h24h60q-14 -4 -35 -8t-35 -4h-194zM496 272h276q104 0 158 66q65 79 65 270v6v115 q0 147 -41 229q-57 113 -188 113h-270q12 -86 15 -200.5t3 -159.5q0 -164 -3 -234.5t-15 -204.5zM541 307q8 41 8 92q0 39 -2 79t-4 81v105q0 109 7 205t23 190l5 -45q0 -100 -25 -441q-12 -170 -12 -266zM586 295l14 33l205 -21l-14 -20zM606 -84l125 39q12 4 56 6t51 2 q68 8 147.5 21.5t167.5 27.5l10 17q-10 -2 -157 -45q-45 -14 -95 -21zM616 1053l224 -13l86 -84q-23 18 -35 27q-29 20 -42 27.5t-92 20.5t-141 22zM836 283l147 176l-25 252q-2 -2 -3 -36t-1 -57v-98q0 -37 -47 -119q-37 -59 -71 -118zM1178 1307q29 -10 59.5 -19.5 t52.5 -21.5q39 -64 80 -127zM1188 -47l22 27l-10 -23zM1202 25l49 -19l62 254q22 114 22 290v15v252q0 59 -5 169t-9 128l16 -18q2 -31 5.5 -58.5t3.5 -64.5v-211q0 -340 -32 -490.5t-112 -246.5zM1229 -68q18 33 55 99q29 53 43 104l21 -29q-8 -14 -41 -65 q-53 -88 -78 -109zM1323 166q6 18 23 59q2 8 22 103q-6 20 -10 39.5t-4 29.5v39q0 39 4 81t14 52l4 -168t2 -165v-80z" />
<glyph unicode="E" horiz-adv-x="1222" d="M20 -25q147 0 363 9q483 18 608 18q82 0 166 -12l-2 49q-137 -39 -506 -57q-258 -12 -524 -13zM61 874q20 -211 42 -441t22 -400l22 24l-22 -4v93.5t2 101.5q0 268 -16.5 406t-49.5 220zM66 1239q23 -70 26.5 -177.5t3.5 -287.5l-6 -88l55 6q-27 82 -38 163t-11 179 q0 59 10 129q4 33 15 78zM94 37l23 16l20 -18q0 109 6.5 326t6.5 325q0 84 -6.5 254t-6.5 254h29q0 -305 -16.5 -582.5t-55.5 -574.5zM125 1249q164 16 335 21.5t408 5.5h246l-74 8q-41 0 -163 -14q-70 -8 -99 -8q-113 0 -205 -5q-322 -14 -346 -14zM156 489q0 123 6 367 t6 367h854l20 -238h-555q8 -41 9 -92q0 -31 -3.5 -69t-5.5 -58h553q-2 -27 -3 -46.5t-1 -33.5q0 -25 2 -78t2 -80l-137 7q-102 0 -206.5 -2.5t-209.5 -4.5q4 -35 8.5 -73.5t4.5 -71.5q0 -57 -13 -113q49 8 120 12.5t134 4.5q55 0 179 -8.5t161 -8.5v-239q-59 0 -120.5 -2 t-120.5 -4q-168 0 -336 2l-336 4q0 74 -6 227.5t-6 230.5zM166 1243l399 -20l-393 10l-4 -6zM516 834q86 -8 172 -35q-41 0 -83 -1t-83 -1zM520 506l549 4l-20 -18l-517 -7zM526 950h488q-10 4 -172 21q-54 4 -160 16zM528 291v33q41 6 78.5 11t55.5 5q16 0 41.5 -7 t56.5 -16l-230 -36zM557 1260q172 -18 276.5 -32t127.5 -24l100 51q-84 0 -252 2.5t-252 2.5zM569 840q14 -4 27.5 -4h28.5h53q33 0 49 -4.5t25 -6.5l252 -57h-82h-37q-23 0 -47.5 1t-55.5 7l-123 60q-16 2 -40.5 3t-49.5 1zM821 332l6 -49q78 16 158 16l135 -6 q8 -16 18.5 -30.5t22.5 -29.5q-80 45 -169 72t-171 27zM993 950l101 -16l2 -21zM1040 528l56 -8q0 86 -3 123t-16 107l29 4l-33 24q0 -74 -7 -131t-26 -119zM1042 1223l2 6l23 -111q-2 20 -10.5 52.5t-14.5 52.5zM1067 1118l27 -149l24 16l-37 109zM1073 1106l14 131l62 -8 l-23 31q-6 -23 -30 -89q-12 -37 -19 -53zM1092 287l57 12q-4 -10 -10 -28.5t-6 -39.5q0 -16 4.5 -56t3.5 -42l-3 -139q-18 78 -32 153.5t-14 139.5z" />
<glyph unicode="F" horiz-adv-x="1222" d="M49 -4l21 18l20 -20q0 238 5 605.5t5 422.5q0 49 -8 126t-14 146h49q0 -301 -20.5 -611t-57.5 -687zM72 -56l112 36l27 -5q23 0 117 -10q37 -4 69 -4l119 6l-199 -23q-29 -4 -54 -9t-54 -5q-25 0 -58.5 4t-78.5 10zM102 1374q4 -45 12.5 -136t14.5 -140l-12 262 q55 0 163.5 -6t163.5 -6h236q199 0 459 24l-82 -59zM117 16q14 74 19 149t5 220v53q0 37 -8 125q-14 156 -14 207v205l37 -111q0 -23 -7.5 -88t-7.5 -98v-227q0 -90 10.5 -217.5t20.5 -219.5zM147 834q0 82 6.5 243.5t6.5 243.5h913v-236q-141 13 -282 13q-51 0 -156 -6.5 t-158 -6.5v-272q51 8 121 12t135 4q127 0 268 -16v-264h-524v-551h-317q0 139 -6.5 417.5t-6.5 418.5zM504 256v86q0 43 2 89t8 89l41 -6q0 -57 -18.5 -156.5t-21.5 -126t-5 -76t-2 -89.5v-54q0 45 -1 105.5t-3 138.5zM504 856v162l24 43zM520 956l49 19l-12 -111zM559 1073 h97.5t125.5 2q133 0 204 -3t85 -11zM596 844l471 8l12 -25h-100q-41 0 -180.5 8.5t-202.5 8.5zM623 512l114 29l205 -45l-115 -2q-47 0 -83.5 4t-120.5 14zM942 522h70l8 -24l-55 18zM1024 786l55 -8q-14 -39 -21 -79t-14 -89zM1067 537v20v51.5t4 55.5q0 -25 9.5 -69 t11.5 -58h-25zM1100 1038q18 88 25.5 138.5t7.5 117.5l-21 -2q6 -25 25 -78q20 -74 20 -129q-12 -6 -34.5 -23.5t-22.5 -23.5z" />
<glyph unicode="G" horiz-adv-x="1503" d="M51 729q12 -104 30.5 -197.5t29.5 -109.5l-11 -27q111 -117 217 -207q139 -119 267 -182q154 -78 286 -78l189 13q-51 8 -268.5 20t-344.5 62q-8 4 -86 75q-59 55 -84 80q-80 80 -102 107q-63 74 -70.5 123t-7.5 92q0 39 6.5 118.5t6.5 116.5zM102 766q0 -59 7.5 -176 t17.5 -127q-14 -4 -23 -21l48 -53q-31 63 -38.5 113.5t-7.5 134.5v108q0 27 15 136q6 47 6 77q0 6 -12.5 22.5t-12.5 27.5q0 23 127 211q121 178 133 188l82 37q-57 -49 -198.5 -253t-141.5 -247zM154 670q0 340 82 483q111 193 417 193h207q219 0 359 -101 q158 -113 157 -323h-334q-14 86 -98 116q-57 20 -166 21h-53q-145 0 -195 -78q-36 -57 -36 -207v-8v-160q0 -203 59 -257t264 -54q162 0 199 47q31 39 31 205h-234v256q63 0 192.5 -7.5t176.5 -7.5q102 0 194 15v-336q0 -254 -147 -365q-129 -96 -393 -96h-144 q-291 0 -424 193q-114 165 -114 466v5zM166 1145q51 94 102 190l172 31l-92 -41q-31 -25 -92 -88q-45 -47 -90 -92zM455 1395l577 -11l119 -51l-154 37l-86 -4t-86 -2h-27.5t-27.5 2zM516 502l74 -148l-4 -2q-4 14 -4 51t-3.5 47.5t-23.5 38.5q-8 11 -8 19q0 10 -4 153.5 t-4 202.5v25q0 41 9 55t23 14t27 -18q4 -6 4 -14q0 -49 -35 -201q-49 -217 -51 -223zM596 -35q92 0 274.5 16.5t272.5 16.5l-51 -37q-29 16 -46.5 20.5t-72.5 12.5h-4q-27 0 -129 -22q-111 -25 -135 -38zM625 340l368 4l-37 -22l-290 -3zM711 1014h73q70 -29 148 -58.5 t135 -40.5l215 -8l107 -4l-50 -29q-80 6 -172 13.5t-139 21.5q-8 2 -82 55.5t-86 57.5l-94 8l-47 4zM750 541q0 49 4 166.5t4 126.5l33 -9l-3 -39q0 -39 2.5 -116.5t2.5 -118.5l163 -57l66 -121l-12 114q-2 20 -44 27.5t-110 7.5q-25 0 -44 -1t-34 -1q-28 1 -28 21zM831 827 l476 -14q-45 0 -99.5 -1t-120.5 -1h-43q-51 0 -116.5 2t-96.5 14zM1159 18l51 29q25 -8 43 -8q29 0 41 27q31 72 51.5 144.5t30.5 147.5l51 -20l-16 39q-6 -14 -15.5 -45t-19.5 -66q-39 -117 -47 -129q-18 -31 -106 -102q-8 -8 -27.5 -12.5t-36.5 -4.5zM1174 1315l79 -2v-13 zM1257 1276l33 43l92 -127q12 -39 25 -148q6 -59 16 -151q2 8 -20.5 20.5t-22.5 18.5q0 4 5.5 26.5t5.5 34.5q0 35 -39 118t-66 99q10 27 27 43q-8 6 -27.5 12.5t-28.5 10.5zM1399 397v17q0 53 5 142t5 108q0 31 -4 55t-6 39q6 -18 15.5 -43t17.5 -45l-7 -35 q-8 -41 -14 -111.5t-12 -126.5z" />
<glyph unicode="H" horiz-adv-x="1327" d="M61 231v76v162q0 45 6.5 133t6.5 133q16 -167 16 -317q0 -68 -8 -207t-8 -209q-4 33 -8.5 87t-4.5 142zM63 -63q43 8 140 24q143 25 239 25l15 -45zM78 1018q0 80 2 162t4 163q16 -96 19 -190t3 -266l-6 -207q-10 76 -16 164t-6 174zM100 1378q141 0 216 -6t112 -22 l-209 -9q-66 0 -119 37zM131 424v242l2 667h320q-10 -51 -12.5 -93t-2.5 -110q0 -51 7.5 -158.5t7.5 -146.5q57 -4 112.5 -8t102.5 -4q96 0 192 12v537h320v-1352h-320v551q-51 10 -107.5 17.5t-101.5 7.5q-53 0 -83.5 -3t-114.5 -22v-579h-320zM457 1227q0 31 1 60.5 t9 62.5q14 -123 31.5 -260.5t17.5 -231.5l19 -10l-68 4q0 86 -2 139q-8 215 -8 236zM467 424v61l2 64h113l104 -31l-4 25l-18 -2q-12 0 -36 5t-30 5q-41 0 -74 -29q-20 -186 -28 -278q-16 -166 -17 -279q0 76 -6 229.5t-6 229.5zM590 838l213 -4l-6 40zM770 1384 q10 0 25.5 -26.5t27.5 -28.5q0 -86 5.5 -220t5.5 -155v-30q0 -23 -3 -46.5t-8 -46.5q-18 137 -35.5 287t-17.5 266zM795 301q0 12 19.5 66.5t19.5 97.5q0 12 -5 45l15 -395q0 -12 -2 -28.5t-8 -55.5l-27 2q0 43 -6 133t-6 135zM842 -43q92 13 184 23q39 0 101.5 -5.5 t72.5 -5.5l6 -35zM858 1380l31 31q6 -4 59 -5t92 -1h148l-43 -23l-19 2l-129 -6zM1194 -72l27 238q12 -84 12 -170v-35l-2 -33h-37zM1206 1339l37 72q0 -35 5.5 -104.5t6.5 -106.5q0 -119 -26 -602q-12 -223 -12 -360l6 294v414q0 66 -8.5 197t-8.5 196z" />
<glyph unicode="I" horiz-adv-x="655" d="M76 1352q84 10 143.5 16t108.5 6q35 0 102.5 -4t101.5 -4l-399 -47zM92 524q0 115 4 209q14 326 15 350q0 -113 16 -342t16 -344q0 -61 -4 -204.5t-4 -151.5q-31 98 -37 202.5t-6 280.5zM96 -20q92 25 215 34t246 9l-4 -33q-55 -6 -117.5 -14.5t-103.5 -8.5 q-39 0 -117 6.5t-119 6.5zM123 932q0 53 4 177t4 132q55 -403 55 -815v-43q0 -147 -12 -295q-31 176 -41 382t-10 462zM170 25q10 109 11 260t3 247q0 131 -4 283q-10 379 -10 475h317v-1265h-317zM238 1313q18 8 125.5 15t154.5 7l55 -22h-335zM510 1233q0 -244 4 -440 q14 -688 14 -738q49 453 50 914q0 59 -8.5 127.5t-16.5 136.5h-43z" />
<glyph unicode="J" horiz-adv-x="1202" d="M55 547q27 -6 58.5 -7t62.5 -1q61 0 100 2q156 8 173 8l-56 -39q-74 -8 -147 -14q-31 0 -71 4t-77 8q-2 -6 -13 -69.5t-11 -88.5q0 -41 25.5 -125t25.5 -121q0 -20 -12 -28l-25 8zM102 481q86 -12 172 -12q74 0 146 12q0 -135 18 -172q33 -65 148 -65h4q84 0 124 30.5 t40 112.5v997h315v-1026q0 -227 -129 -311q-104 -67 -348 -67q-299 0 -394.5 101t-95.5 400zM111 25l18 32q160 -69 301 -120zM442 557l64 -229l176 -39q-37 -6 -53.5 -8t-50.5 -2q-41 0 -67 6t-44 26zM475 -55q109 2 227.5 13.5t243.5 27.5l-414 -84q0 10 -28.5 20 t-28.5 23zM678 1442q23 0 45 2t45 4q106 0 190 -6.5t115 -16.5q-51 -10 -102 -18q-39 14 -58 14q-39 0 -101 -5t-73 -5l-6 -174q0 -109 4 -199q14 -311 15 -336v-167q0 -39 -6.5 -95.5t-10.5 -107.5q-25 262 -41 557t-16 553zM995 25q37 20 72 49.5t47 42.5q0 45 7 139 t7 129q0 96 4.5 322.5t4.5 244.5q0 135 -6.5 258t-24.5 238l-16 -614q0 -100 -2.5 -302t-2.5 -303q0 -78 -18 -110q-37 -47 -72 -94z" />
<glyph unicode="K" horiz-adv-x="1452" d="M82 786q0 111 10 203.5t35 233.5q0 -141 -2 -286.5t-4 -289.5l-4 8q-14 -27 -25 -39q-4 4 -7 65.5t-3 104.5zM94 375q0 -31 10.5 -64.5t20.5 -66.5l2 92q0 133 -18 266q0 -39 -5 -84q-10 -115 -10 -143zM94 1391q146 25 322 41q94 4 188 10q-31 -14 -58.5 -58.5 t-27.5 -80.5l-6 -306l-6 312q0 33 4 62.5t10 62.5q-68 0 -201 -2t-202 -2zM104 -16l15 12l16 -21q6 41 8 104.5t2 72.5v24q0 37 -1 76t-1 78v22l-2 957l23 -2q0 -330 -3 -504t-15.5 -378t-41.5 -441zM152 666q0 125 8 372.5t8 372.5h319v-571h43l351 463h393l-447 -578 l521 -692h-400l-411 540h-50v-569h-319q0 109 -8 330t-8 332zM160 -6l4 -55q12 6 82.5 8t154.5 2h183q-57 16 -106.5 23.5t-115.5 7.5l-38 -3l-5 -4q-31 0 -86 9.5t-73 11.5zM510 473q0 -51 4 -173t4 -132q0 -33 5 -80t12 -88l6 162q0 35 -4.5 106.5t-4.5 108.5l43 31z M510 930l8 -53l207 315q-39 -55 -107 -141q-83 -107 -108 -121zM514 506l12 20q96 -111 207 -260q45 -59 195 -270q-41 117 -187 266q-201 209 -227 244zM764 1194l84 117q-23 -20 -46.5 -52t-37.5 -65zM866 1335q43 0 130 -7t118 -7h170q-68 14 -155 20.5t-166 6.5 q-18 0 -48 -5.5t-49 -7.5zM874 709l54 59l86 -242q35 -29 58.5 -68.5t45.5 -76.5q121 -174 155 -219t103 -133q-88 111 -133 166q-82 104 -127 174q-8 16 -14 30.5t-12 20.5l-82 82q-8 8 -33 73q-10 29 -21 48q-27 59 -80 86zM897 817q193 219 211 242q117 139 195 262 l-43 -125l-70 -68q-53 -78 -107 -153q-25 -25 -46 -48.5t-36 -60.5zM936 6v12l188 -26zM1108 10l250 -37l16 29h-135q-74 0 -131 8z" />
<glyph unicode="L" horiz-adv-x="1118" d="M63 307q0 -47 4.5 -159.5t4.5 -120.5q20 129 31.5 204.5t12.5 102.5q0 25 -5 86t-5 65zM86 522l6 -4q4 0 8 19.5t4 46.5l12 166l1 -222zM92 -10l17 14l18 -16q0 80 5 223t5 168v117v98v86v80v67v62v49v43v39v37v30v25v25q0 35 -1 69.5t-1 71.5v18l23 2 q0 -307 -17.5 -639.5t-48.5 -668.5zM104 -41l256 -2q-33 -2 -67.5 -7.5t-134.5 -19.5zM111 1360h53q49 0 162.5 -4t122.5 -4l-308 4l2 -191v-284zM166 526q0 131 6 395.5t6 397.5q63 14 135 14q39 0 84 -3t101 -11v-1059q55 0 182 4t135 4q43 0 86 -1t90 -7v-264h-813 q0 88 -6 264t-6 266zM270 -49l115 4h369q25 0 41 -1t61 -7l59 49q-170 0 -331.5 -10.5t-313.5 -34.5zM492 1083v142q0 43 6 96t8 82l14 2q4 -27 4 -68v-77q0 -246 2 -494t4 -494l58 7q-55 174 -75.5 374.5t-20.5 429.5zM565 739l53 -440l-34 -8q-10 102 -14.5 219t-4.5 229z M633 -58l10 3l162 16q16 2 34.5 2h28.5h62q10 0 34.5 8.5t39.5 8.5l-41 -54h-9q-53 0 -159.5 8t-161.5 8zM674 295l67 -2h295l-104 33h-101q-53 0 -98 -19q-37 -18 -57 -26zM1004 270l36 -14v-186q0 -31 -6 -68t-12 -72l22 7q-23 125 -31.5 200.5t-8.5 132.5z" />
<glyph unicode="M" horiz-adv-x="1880" d="M86 610l29 86q-8 -78 -10.5 -151.5t-2.5 -167.5q0 -68 2 -201t2 -201l35 60q-10 27 -10 80q0 31 4 55q-12 18 -30.5 213t-18.5 227zM90 1161v168q41 33 84 66l-43 26q-12 -90 -22 -180q0 -16 8 -51t8 -51l-10 -488q-14 111 -19.5 234t-5.5 276zM143 10v1313q55 0 145.5 5 t108.5 5q43 0 88 -2t88 -8l349 -952l366 950h430v-1315q-72 -10 -131 -10q-61 0 -139 10v1086l-393 -1080h-246l-389 1061q0 -184 -4 -610t-4 -453h-269zM143 -12q51 0 170 4t127 4l-28 878q0 -141 18 -329q43 -442 43 -553q-53 0 -163.5 -2t-166.5 -2zM193 1376 q55 -10 114.5 -13t149.5 -3h86l32 -27l-372 21q-6 6 -10 22zM510 827q86 -307 111 -381q71 -214 155 -366l-61 2q-18 37 -66 209q-53 195 -82 311q-49 197 -57 225zM608 1274q29 -63 68 -168t59 -158q8 -20 35 -51q8 -10 29 -29q20 -66 43.5 -135t58.5 -119l-16 -6l14 -65 q-39 102 -94 243q-12 29 -98 244q-49 121 -99 244zM709 0q10 2 26.5 10t26.5 15l125 -56zM942 -33l148 17l-3 -7zM956 492q14 172 47 283.5t97 240.5q74 143 147 287q-39 -111 -76 -222q-39 -70 -75 -137q-29 -80 -72 -223q-35 -115 -68 -229zM1085 66q-2 -23 29 -23l8 29 q29 96 58 194q12 31 73 168q78 176 115 289l21 190q-4 -53 -29 -120q-68 -191 -70 -205q-4 -23 -23.5 -127.5t-33.5 -157.5q-74 -115 -148 -229v-8zM1311 1346l8 14l57 -8l328 14l-21 -14zM1464 0l117 -14l-108 -9zM1602 -29l174 17q-18 -6 -77 -11.5t-97 -5.5zM1720 20 l56 5q-20 137 -28 306t-7 361v94q8 -59 8 -135q0 -104 -14.5 -315t-14.5 -316zM1739 1315l16 59l41 -92q-14 -104 -18 -251.5t-4 -282.5v-74q0 106 -11 239q-24 310 -24 395v7z" />
<glyph unicode="N" horiz-adv-x="1650" d="M78 1335l55 49q-10 -57 -10 -102q0 -57 -19 -577q-6 -174 -6 -347h21q0 231 -10.5 501.5t-30.5 475.5zM121 344q0 111 29 557q12 190 12 334q0 37 -4 63.5t-15 94.5q-6 -29 -10 -54.5t-4 -56.5q0 -104 8 -368.5t15.5 -465.5t7.5 -432q-12 80 -25.5 172.5t-13.5 155.5z M154 -49l8 43h22q78 0 171.5 -10.5t168.5 -26.5zM176 1403l297 -21q-113 -12 -237 -34zM188 0v1323q137 16 261 16q111 0 231 -16q96 -227 217 -451q109 -199 258 -430q0 147 -4 265q-14 412 -14 440q0 123 2 142.5t16 88.5h318v-1337q-43 -6 -130.5 -14.5t-181.5 -8.5h-74 q-31 6 -45 9l-534 911v-938h-320zM498 340v10h57l2 -366l-55 6q18 119 23 197.5t5 218.5q-2 104 -4 209.5t-2 209.5q29 -166 32 -183t13 -101q10 -10 12.5 -58.5t2.5 -87.5l8 8q-8 -25 -17 -49q-20 -63 -45 -63q-18 0 -25 15.5t-7 33.5zM539 1380l106 13l45 -25zM551 760 l49 10q12 -111 113 -268q79 -117 161 -232q98 -154 203 -286l203 -13l-207 -32q-8 12 -33.5 33.5t-35.5 41.5q-70 127 -138 256q-78 143 -149 258q-88 139 -166 232zM707 1430q4 -10 14 -29t14 -35l-2 8q10 -20 33 -65q20 -55 41 -109l-55 21q-4 49 -15.5 94t-29.5 115z M809 1176q109 -176 168 -277q110 -186 110 -285q0 -16 -4 -32.5t-8 -32.5l51 6q-90 156 -180 313q-137 248 -137 308zM1137 -8l368 -6l2 888q0 -147 14.5 -442t14.5 -442l-102 -27q-63 0 -143.5 10.5t-153.5 18.5zM1139 1391q45 27 91 37t99 10h141l74 -27l-26 -29 q-39 4 -80 8.5t-76 4.5h-100zM1485 926q14 119 21 229.5t7 212.5h35v-88q0 -119 -12 -208t-51 -146z" />
<glyph unicode="O" horiz-adv-x="1515" d="M92 713q1 168 19 334q72 51 143 112q86 72 135 127q-37 -10 -69.5 -20.5t-34.5 -12.5q-88 -76 -127 -150.5t-39 -184.5q0 -20 8 -65.5t8 -68.5l-6 -430q-6 57 -16 133q-20 152 -21 226zM119 377q33 -63 92 -162q77 -125 100 -137q152 -78 314 -92q39 -4 73.5 -8.5 t53.5 -12.5q-76 31 -193 58q-291 63 -332 77q-25 29 -51 94.5t-57 182.5zM143 541v229q0 252 131.5 373t384.5 121h164q260 0 396 -115q143 -123 143 -379v-229q0 -276 -121 -393t-397 -117h-182q-268 0 -393.5 120.5t-125.5 389.5zM180 1042q68 70 129 129q78 74 137 117 q84 10 172.5 22.5t161.5 12.5q23 0 51.5 -6t65.5 -14q-51 -16 -102.5 -21.5t-124.5 -5.5q-39 0 -107.5 2t-97.5 2q-18 0 -70 -33q-34 -24 -67 -47q-84 -57 -109.5 -86t-38.5 -72zM463 551q0 -141 48 -200.5t185 -59.5h109q137 0 187 60.5t50 201.5v209q0 139 -49 192.5 t-188 53.5h-109q-135 0 -184 -53.5t-49 -188.5v-215zM483 698v66q0 57 13.5 105.5t52.5 80.5l-29 -86q0 -31 6 -92t6 -94v-98q0 -59 10 -97q18 -49 31 -90q8 2 37 -29.5t37 -46.5l-53 17q-72 80 -91.5 156.5t-19.5 207.5zM602 973l348 -4q-16 -18 -54 -31.5t-69 -13.5h-157z M735 340q27 4 57.5 10t49.5 6l108 -6l-149 -33zM737 6l197 -41q-31 6 -64.5 11.5t-52.5 5.5l-12 -5q-10 4 -30.5 11.5t-37.5 17.5zM889 1309q25 -4 52.5 -7.5t45.5 -9.5q63 -20 158 -67q78 -41 155 -82q18 -27 31 -68q4 -12 10 -39l13 129q-137 29 -261 55.5t-141 34.5z M920 25q27 6 99.5 8t82.5 6q49 23 108 55q72 39 103 58l-287 -187zM971 899q27 -20 37 -63t10 -91l-6 -55zM975 444q12 90 12 179l-2 67l21 -39l-5 -274zM1284 57q41 57 66 99q49 78 49 108q0 109 -4 199q-14 311 -15 334q0 27 -6 63q-14 88 -14 109q0 33 8 71.5t16 77.5 q16 -160 28.5 -349.5t12.5 -336.5q0 -35 -4 -118t-4 -89q-55 -80 -133 -168z" />
<glyph unicode="P" horiz-adv-x="1222" d="M63 45q66 621 66 1282h-25q0 -90 8.5 -266t8.5 -264v-387q0 -74 -8.5 -217.5t-8.5 -215.5l-14 89zM68 -72l24 111l64 -74q57 -6 165.5 -20.5t178.5 -14.5l-31 -32l-6 36l-193 5q-25 2 -48 2h-46q-33 0 -57.5 -2t-50.5 -11zM86 78q25 297 28 345t3 163l-4 215 q0 -41 5 -243t5 -320q0 -29 10 -82.5t10 -79.5zM88 1405h27q18 0 198 -8q45 -2 117 -2q20 0 148.5 5t209.5 5h-8q-18 0 -55 -12.5t-53 -12.5q-33 0 -131.5 7.5t-147.5 7.5q-61 0 -158.5 -14.5t-140.5 -30.5zM133 -16q0 139 4 254q14 397 15 428q0 143 -5 260 q-14 408 -14 436h502q250 0 357.5 -105.5t107.5 -355.5q0 -229 -78 -336q-68 -92 -223 -119q-98 -16 -348 -16v-446q-29 -6 -75 -8.5t-52 -2.5q-84 0 -191 11zM453 37q0 18 10 61q18 76 18 103q8 -35 16.5 -71t8.5 -67q0 -4 -8.5 -38.5t-24.5 -87.5zM453 299l30 12l-22 -98 q-8 39 -8 86zM467 748h182q88 0 120 31.5t32 117.5q0 84 -36 115.5t-122 31.5h-176v-296zM469 408l412 16q-137 -18 -228.5 -31.5t-179.5 -36.5zM479 977v10q12 -68 24.5 -119t33.5 -94l-54 -6q2 16 2 49q-2 39 -4 80t-2 80zM506 1030l203 -12l57 -43l12 -105l-45 107z M621 776l12 31l119 -12zM782 1376l174 -22q27 -29 60 -69t57 -73q-70 57 -137.5 96.5t-153.5 67.5zM850 408q20 0 44 2t40 6q55 86 82 129q82 131 82 153q0 12 -11 37l7 23l47 -29l-27 -37q-10 -16 -29.5 -65.5t-29.5 -59.5q-80 -80 -94 -92q-53 -47 -111 -67zM1057 557 q6 25 35.5 121t42.5 110q-4 31 -13.5 203t-36.5 262l-26 13q20 -14 48 -103.5t28 -124.5q0 -16 -4.5 -49t-4.5 -47q0 -23 8.5 -63.5t8.5 -61.5q0 -35 -35 -129q-27 -66 -51 -131z" />
<glyph unicode="Q" horiz-adv-x="1572" d="M59 416l43 -156q33 -70 45 -90q31 -55 62 -82l-49 -25l22 11l-30 4q-12 16 -15.5 31.5t-6.5 44t-17.5 54t-19.5 51t-11 60.5q-2 18 -9 50t-14 47zM68 616q0 25 17 66t17 51q0 152 54 299q66 180 180 234l196 90q51 23 87 33t75 10q29 0 70 -7.5t78 -15.5l-51 -30 q-6 2 -29 -5l-88 31q-111 -27 -208 -56.5t-196 -64.5q-94 -154 -141 -303q-53 -166 -53 -332q0 -94 13 -179t44 -156l4 22l-8 21l10 24q-37 84 -51 131q-20 70 -20 137zM127 547v225q0 303 154 432q141 119 448 119q338 0 467 -102q150 -119 150 -449v-111.5t2 -111.5v-31 q0 -94 -3.5 -130t-13.5 -101l150 -99q-33 -33 -62 -104q-35 -86 -53 -113l-145 92q-61 -49 -189 -67q-84 -12 -205 -12h-182q-279 0 -398.5 140t-119.5 423zM221 139q102 -113 213 -184l-180 88zM446 559q0 -150 41 -211q51 -78 193 -78h108h25q39 0 66 9l-191 122 q12 23 74 101q49 59 59 110l201 -127q4 18 4 42v36v203q0 150 -43 205q-50 65 -191 65h-4h-108q-139 0 -191 -65q-43 -55 -43 -203v-209zM481 604v281q0 -141 15.5 -265t48.5 -284l-6 -2q-4 2 -20.5 21.5t-26.5 21.5q-6 53 -8.5 135t-2.5 92zM485 -43l105 -29l-45 -16z M535 983l172 41q45 0 99 -12.5t99 -28.5q-23 -4 -53.5 -8t-36.5 -4h-92q-31 0 -94.5 6t-93.5 6zM621 -74h55l-25 -10zM643 422q18 49 72 117q41 53 90 102l-37 -82q-63 -70 -125 -137zM674 373l112 -76l-79 8zM748 -53l382 49l64 -41q-12 0 -191.5 -4t-254.5 -4zM836 1333 l24 -2q12 0 80 5t111 5q12 10 16 15q23 20 33 30l6 -2l-23 -55q-25 0 -118 14q-41 6 -70 7q-31 0 -59 -17zM948 729q0 14 15 53q8 23 8 33l-2 105v30q18 -31 25 -80t7 -104q0 -53 1.5 -108.5t15.5 -94.5q-37 51 -49 76q-21 43 -21 90zM1102 1325l57 -27l96 -47 q18 -8 29.5 -32.5t18.5 -38.5l-138 104zM1184 14q66 -18 133 -39l-31 -43l-14 17l-23 22l-14 19l-29 33zM1266 1165l69 -41l33 -90l-27 -59l-6 67q-35 61 -69 123zM1348 915q14 -27 21 -44t7 -37v-5l-4 -61zM1356 289q0 41 7 124t7 111q0 31 -4 103.5t-4 77.5 q12 -111 26.5 -231t14.5 -214zM1397 -59l96 211q0 -41 -6 -82t-10 -64z" />
<glyph unicode="R" horiz-adv-x="1331" d="M61 44q68 -4 218.5 -11.5t193.5 -7.5q-74 -14 -125 -21.5t-94 -7.5t-118 14t-75 34zM72 63q59 518 59 1033v233l-20 -10q10 -66 13 -103.5t3 -134.5q-2 -43 -2 -86v-84q0 -141 -8 -425.5t-8 -426.5l-19 19zM78 1253q0 -129 20.5 -281.5t48.5 -312.5l-55 -2q2 16 5 45 t3 52v245v156q0 63 4.5 132t14.5 120zM156 59v1299h514q262 0 374 -92q125 -102 125 -359q0 -145 -44 -208.5t-179 -106.5q111 -29 174 -88q74 -70 74 -176v-322q-35 -14 -80 -14q-33 0 -100.5 8t-102.5 8q-25 0 -37 -2q0 31 2.5 88.5t2.5 81.5q0 127 -39 180 q-53 72 -201 72h-164v-369h-319zM193 1391q100 4 146 5t132 1q109 0 180.5 -5.5t114.5 -17.5q-63 8 -172 12.5t-186 4.5h-215zM498 -4l28 -2l-28 -29q0 14 5 102.5t5 141.5q0 10 -5 71.5t-5 98.5l22 -23l31 23q-10 -100 -20.5 -216t-32.5 -167zM502 743h190q84 0 122 32 t38 116q0 151 -160 151h-190v-299zM522 991l23 -16q4 -31 4 -61.5v-61.5v-41q0 -31 -17 -37q2 18 5.5 35.5t3.5 42.5q0 51 -3 85t-16 54zM532 1026l238 -10l-231 -17zM567 756l228 47l-13 -29zM733 391l72 -47q10 -74 31 -158q14 -57 41 -151q-29 86 -68 180t-76 176z M772 954l21 -18v-8l10 -88zM811 1364q25 -8 203 -68q164 -63 164 -110q0 -16 8 -70.5t8 -75.5l-6 -295l-25 84q0 6 4 104.5t4 139.5q-14 111 -26 223zM844 -53l4 55q82 -16 174 -31q33 -4 102 -14q-47 -10 -153 -10h-25h-102zM1022 596l147 98q-25 -18 -45 -41 q-31 -33 -30 -47q0 -12 46 -58t46 -56q-16 18 -105 65q-43 23 -59 39zM1104 -41l113 16l-3 -34zM1200 410l31 20l8 -16l-18 -52l6 -94q-2 -23 -4 -45t0 -39q0 -8 30 -86q10 -27 11 -55q0 -8 -7.5 -24.5t-7.5 -18.5l4 -8l-28 -66v25q0 41 1 80t1 78q0 70 -6.5 154.5 t-20.5 146.5z" />
<glyph unicode="S" horiz-adv-x="1431" d="M61 946q12 49 28.5 97.5t27.5 107.5q4 29 22 51q-10 -61 -19 -127.5t-9 -113.5q0 -20 11 -88t11 -95q-16 43 -33 88q-29 72 -39 80zM88 360l29 117l12 -332l-35 195zM121 504l358 -21q-33 0 -67.5 -1t-69.5 -1q-63 0 -117.5 4.5t-103.5 18.5zM139 983q0 195 117 277 q98 69 283 69h16l178 4l162 -4l-8 2q248 0 332 -92q77 -85 77 -330v-6q-55 0 -111.5 2t-111.5 4q-57 0 -117 -6q0 74 -26 115q-33 49 -103 49h-231q-74 0 -101.5 -25.5t-27.5 -97.5q0 -121 268.5 -130t349.5 -42q217 -84 218 -391q0 -260 -166 -340q-109 -53 -410 -53 q-348 0 -451 69q-135 92 -135 414q61 -6 123 -6q57 0 114.5 2t115.5 4q0 -96 16 -135q27 -63 111 -64h208q80 0 110 30t30 108q0 137 -215 151q-348 23 -400 41q-215 80 -215 381zM141 127l152 -96q27 -8 117 -25.5t192 -36.5q-53 0 -131 17q-174 37 -219 37 q-33 27 -59.5 51t-51.5 53zM143 754l133 -142l-4 -8q0 -35 197 -57.5t205 -22.5l-398 19q-10 29 -42.5 59.5t-67.5 44.5zM152 1227q20 6 36.5 32.5t22.5 28.5l108 33l-106 -68q-16 -10 -26.5 -22t-24.5 -33zM346 1321q4 14 77 42t89 28q8 0 134 -4.5t179 -4.5zM502 913 q45 -23 103.5 -29.5t176.5 -13.5q37 -6 121 -25t135 -30q-266 0 -512 55zM502 999l53 35l168 6h84l67 -22q-57 -6 -115.5 -12.5t-107.5 -6.5h-149zM532 381v61l91 -102q66 0 114.5 -2t100.5 -10l55 -31h-148q-23 0 -71.5 6t-104.5 12zM651 -25q6 0 83 -4t108 -4l286 60 l50 -54l-430 -30zM756 549q45 -10 92 -20.5t80 -34.5q0 -8 12 -35t12 -39t-10 -38t-22 -50q-6 6 -9.5 45t-5.5 84l-82 22zM842 1401q162 -39 301 -105l-236 47l-24 5zM952 881q43 10 83 11t81 1h55h86l41 -47q-106 0 -187 7t-159 28zM1122 776l33 41l23 -43l129 -129z M1186 1321l94 -115l-23 -10zM1190 -12l16 57q0 2 39 41t43 64q14 61 19.5 98t5.5 88l39 45l10 -125q-23 -51 -80 -147q-68 -113 -92 -121zM1286 1188l19 59q-1 -4 -1 -11q0 -18 9 -56q12 -50 12 -66q0 -18 -6 -52t-10 -52q0 53 -5.5 96t-17.5 82zM1300 612l33 -10l2 -201z M1305 928q12 20 24 98q6 35 12 45q0 -55 -8 -113q-14 -77 -20 -114z" />
<glyph unicode="T" horiz-adv-x="1247" d="M70 1163q0 -16 18.5 -51t20.5 -41l18 72l-8 26q0 43 5 116t5 87q0 8 -3 18.5t-11 24.5q-4 -6 -24.5 -118.5t-20.5 -133.5zM84 1065q2 -10 19.5 -29.5t27.5 -19.5q45 0 134 17.5t128 17.5q10 -33 22.5 -69t12.5 -67q0 -39 -12.5 -118.5t-12.5 -118.5l3 -236q16 51 23 115 t7 133q0 23 -1 54.5t-1 72.5v105v71q0 37 -6 72q-68 0 -128 -2t-112 -4q-74 0 -104 6zM135 1401q29 12 196 19t527 7h279l20 -16l-33 -272q0 31 -6 90t-6 90q0 2 12 33q6 16 6 24l-8 29q-164 0 -493.5 -2t-493.5 -2zM147 1094v292h955v-292h-293l-27 -1114q-74 12 -151 12 q-82 0 -166 -12l-29 1114h-289zM377 1001q12 -39 18 -87t6 -91q0 -209 -2 -313q-10 -520 -10 -522zM408 -45v-25q18 2 62 4.5t114 2.5h103t104 -3l-52 31q-27 0 -135 -10q-43 -4 -82 -4l-90 4l-2 100q0 25 21 150q8 52 8 76v8l-17 153q-10 -61 -21 -131.5t-11 -115.5v-31 v-31v-24q0 -39 -1 -77t-1 -77zM799 254l20 -301q0 109 6 328t6 329q0 59 17 156q37 215 37 270l-51 39v-24q0 -127 -11 -301q-24 -404 -24 -490v-6zM879 1071l90 -6q25 0 74 -4t73 -4q17 -1 17 24q0 14 -9 43l29 13l-14 -97l-27 -12h-49q-68 0 -135 6z" />
<glyph unicode="U" horiz-adv-x="1482" d="M82 1210q0 16 54 25.5t130 9.5q12 0 183 -14q49 -4 106 -4q-68 16 -107.5 19t-214.5 3l-98 -67h-14q-39 -5 -39 28zM111 823q0 57 4 105q14 166 14 180q16 -115 16 -215q0 -72 -6 -148q-18 -225 -18 -249q0 76 -2 122q-8 187 -8 205zM150 362q0 -12 13 -46.5t9 -55.5 q88 -106 107 -125q35 -37 69 -61l-41 -35q-14 10 -51 70q-23 39 -45 77q-45 72 -51 113t-6 164q0 90 18 455q8 162 8 270l-14 -4q0 -137 -8 -411.5t-8 -410.5zM195 449v768h317q0 -82 -4 -148q-14 -231 -14 -250q0 -72 4 -129q14 -201 14 -215q0 -174 94 -201 q43 -12 174 -12q150 0 207 68q47 55 47 176q0 43 -11 170t-11 166q0 70 6 211t6 213h317v-817q0 -254 -110 -345q-99 -79 -363 -79h-182q-256 0 -364 81q-127 96 -127 343zM348 14v11l66 -13zM463 2q117 0 256 -6t252 -21q-41 12 -112 13.5t-142 1.5q-80 0 -145.5 3 t-108.5 9zM522 885v315q0 -352 25.5 -603t68.5 -292l-75 53q-10 98 -14.5 246t-4.5 281zM641 295l4 14l279 6l18 -22zM850 29q49 0 152.5 -2t156.5 -2l4 -13zM899 0h315l-10 -27zM950 315l47 603l-8 -603l-14 19zM1114 1298l176 9zM1202 63l58 -2l-21 -43q-12 10 -21.5 21.5 t-15.5 23.5zM1300 66q16 20 31 51q25 53 58 78q0 123 -33 612q-14 213 -15 364q0 25 6.5 74t6.5 74l39 -82q-16 -106 -19.5 -181t-3.5 -239v-139v-125q0 -166 -8 -279.5t-35 -238.5zM1331 59l27 -12h-21z" />
<glyph unicode="V" horiz-adv-x="1665" d="M74 1356l2 22l131 35zM88 1243q63 -98 94 -239q16 -78 49 -250q29 -113 103 -273q57 -127 151 -293q59 -106 150 -256l12 -20l31 -6q-174 285 -252 426q-129 236 -207 436q-92 236 -131 475zM90 1348q117 -348 225 -619q133 -330 269 -600l-37 14l6 2l-16 -36 q-86 221 -156 411q-78 213 -141 416q-70 221 -121 420zM156 1333h366q59 -256 142 -518q74 -233 178 -508q66 147 127 342q51 156 102 357q12 51 90 356h363l-432 -1352q-63 -8 -124 -12t-132 -4q-117 0 -248 16zM184 1374l391 17l-55 -33q-176 16 -336 16zM618 -59l7 57 q66 -18 134 -23t167 -10zM629 1100q20 -53 44.5 -112.5t31 -90.5t38.5 -94q14 -29 19 -45l67 -342q-37 70 -47 124t-22 117q-74 197 -131 443zM926 -35l272 27l-27 -35h-34h-56h-77q-53 6 -78 8zM926 551v8q0 76 77.5 377t77.5 367q0 18 -2 24q39 37 58 53q35 31 69 31 q68 0 152 -20.5t112 -26.5l91 55q-147 0 -259 -9t-172 -52q0 -37 -24 -53q0 -100 -74 -365q-100 -360 -106 -389zM1104 -27q53 162 98 291q14 39 180 481q-59 -242 -98 -376q-59 -213 -125 -371zM1335 647l121 377q-33 -121 -47 -180q-25 -95 -39 -185zM1462 1024 q23 104 46.5 211.5t35.5 206.5l29 -15q-12 -94 -41 -195.5t-70 -207.5z" />
<glyph unicode="W" horiz-adv-x="2048" d="M41 1356l6 30q41 8 69.5 12.5t51.5 4.5l252 -57l-8 51q-43 -20 -96.5 -27.5t-116.5 -7.5h-86zM70 1352l12 6q39 -199 88 -400q-31 102 -57.5 202t-42.5 192zM121 1331q78 -16 147 -16q23 0 51.5 1t77.5 15l236 -919l235 948q84 16 158 16q57 0 78.5 -3t62.5 -13l187 -856 l284 882h279l-350 -1363q-33 -12 -66 -17.5t-78 -5.5q-90 0 -188 23q-49 231 -55 256q-35 150 -68 256q-39 127 -96 241l-217 -753h-332zM141 1133q61 -283 160 -605q78 -268 193 -594l28 37l-104 39q-49 178 -90 342q-63 256 -95 424q-43 232 -43 363zM432 1370 q10 -33 19 -63q2 -6 2 -29t2 -37l10 -80q-14 63 -21.5 108.5t-11.5 100.5zM481 2l301 -6q-37 -10 -71 -35l118 -4q-111 0 -196.5 8t-151.5 37zM522 1081q20 -174 41 -280q27 -152 72 -273l-10 193l-17 41q-25 72 -48 163t-38 156zM674 782l4 -100q45 166 78 358 q27 152 53 365l8 -16q39 0 121 -8.5t123 -8.5q20 0 36.5 2t32.5 10l-233 56q-49 -94 -72 -140q-41 -84 -65 -145q-10 -35 -22.5 -98.5t-20.5 -120.5q-2 -6 -31 -92q-12 -37 -12 -62zM819 23q45 74 94 200q18 49 72 211l-141 -403zM877 231q69 162 139 326l8 109zM1044 606 l5 43l98 -336zM1081 451q45 -113 80 -235t45 -228h385l-303 -43l-20 2h-45.5t-44.5 -2q0 127 -29 258q-6 37 -68 248zM1182 1389l10 16q37 -96 94 -430q35 -213 66 -420v54.5v56.5q0 82 -2 111.5t-15 74.5q-20 86 -53 201q-88 293 -100 336zM1411 735l156 658l280 24 q31 0 87.5 -5t64.5 -5l-37 27l37 26q-139 -16 -221 -28q-147 -25 -195 -76v-15q0 -16 -14 -47q-16 -49 -19 -53zM1567 -6q2 18 10 39.5t18 52.5l220 639l-37 -33q-10 -94 -54.5 -217t-85.5 -233q-41 -133 -41 -234zM1786 741q51 227 86 357q68 262 113 323l-19 -12 l-158 -659z" />
<glyph unicode="X" horiz-adv-x="1624" d="M57 -51l60 18q37 0 166 -7t204 -7l5 6q-39 -6 -114 -18.5t-126 -12.5q-23 0 -121 15q-43 6 -74 6zM72 31q0 -8 2 -23.5t6 -44.5q4 33 13 77t24 66l159 259l7 -68l-211 -256v-10zM90 -25l490 719l-430 647h34q41 0 166 -14q72 -8 101 -8q47 0 86 8l274 -450 q61 119 143 243q70 109 162 236h354l-423 -662l458 -690q-84 14 -170 14q-43 0 -93.5 -4t-111.5 -10l-319 500q-78 -160 -152 -277q-92 -145 -192 -252h-377zM137 1346q221 25 424 59l-59 -53q-25 -4 -58.5 -9.5t-68.5 -5.5q-115 14 -230 29zM162 1288q104 -150 209 -299 q116 -174 186 -313q-109 -121 -144.5 -163t-80.5 -105q33 55 86 133q45 63 92 129zM545 -10l47 84l-8 -72zM553 37l254 389l2 -59q-31 -31 -58.5 -78t-33.5 -86q-33 -23 -69 -58.5t-95 -107.5zM553 1376q80 -135 131 -209q78 -112 154 -196l-11 -6l-32 10l-7 -2 q-31 51 -118 201q-78 133 -117 202zM864 1034l228 303q66 33 200.5 54.5t223.5 21.5l-35 -55l-25 8h-282q-46 -8 -91 -14q-111 -160 -219 -318zM911 313q119 -178 127 -192q35 -61 56 -127l178 6q66 0 142.5 -8t150.5 -17q-61 0 -188.5 -8t-190.5 -8l-115 25q-4 10 -14 17 t-13 11q0 25 -14 41q-25 29 -26 33zM1094 725q205 319 411 639l-338 -598q-10 -18 -15 -65.5t-7 -63.5zM1130 649q82 0 121 -82q20 -61 43 -123l230 -428h-15zM1393 352l170 -309l-86 102q-8 10 -33 73t-51 134z" />
<glyph unicode="Y" horiz-adv-x="1503" d="M55 1260l60 24q33 0 163 -11t181 -11l14 20q-180 -22 -399 -22h-19zM104 1208l97 -73q27 -31 98 -170q45 -90 92 -181q-86 145 -133 217q-78 119 -154 207zM141 1247q49 -6 92 -10t89 -4q76 0 147 14l287 -475q61 131 141 258q63 100 172 242h330l-484 -754 q8 -59 12.5 -141t4.5 -158v-24v-25q0 -92 -17 -164h-319v512zM444 760q49 -84 111 -182q35 -72 35 -191q0 -137 -3 -216t-20 -151l-53 -34q16 90 33 182q35 198 35 311q0 25 -60 137q-51 96 -78 144zM518 1243q35 -70 64 -117q16 -27 73 -110l-2 8q10 -29 41 -76t47 -53 q16 0 73.5 84t80.5 84q-51 -76 -76 -113q-47 -70 -71 -116q-37 45 -107 210.5t-70 208.5zM545 -37q78 -10 157.5 -21.5t153.5 -11.5q-18 0 -113.5 -5t-150.5 -5zM768 -35h145l-2 -14zM915 258q53 213 195 487q125 231 252 463q-25 -68 -47 -135q-49 -137 -84 -221 q-12 -29 -156 -174q-113 -115 -112 -248v-20q0 -31 2 -79t6 -75zM938 10q0 51 8 103.5t23 105.5q-8 -63 -14.5 -147t-6.5 -154q-10 39 -10 92zM940 1141h1q14 0 46 44q33 46 33 64l-8 49q106 10 166.5 13.5t212.5 3.5l59 -43q-104 16 -196.5 21t-227.5 5h-35q1 -6 1 -13 q0 -27 -17 -68q-6 -14 -35 -76z" />
<glyph unicode="Z" horiz-adv-x="1347" d="M74 111l24 92q0 6 4 24v41v70q0 -6 4.5 -62.5t4.5 -78.5q0 -86 -7.5 -163t-27.5 -136zM92 1288q6 16 19 35q6 10 20 33q102 0 305 8t303 8q74 0 209 -14q70 -6 209 -23q-68 0 -659 19q-197 6 -394 6zM106 1038l25 92q0 6 4 25v41v68q0 -6 4 -62.5t4 -79.5l-4 -164l-28 35 zM119 0q117 -23 196.5 -29t331.5 -6h219q43 0 152 8q188 14 252 15l4 26l26 -30q-25 6 -92 6q-84 0 -271 -11.5t-349 -22.5t-238 -11q-31 0 -90 6t-88 6zM131 358q106 100 215 201q121 115 211 213q104 113 186 225l-24 4q-61 -72 -121 -141q-39 -47 -67.5 -86t-65.5 -94 q-51 -78 -133 -176q-47 -57 -139 -168zM133 115q0 20 4 77.5t10 67.5q61 111 318 402q246 281 373 391h-666v262l166 4q147 0 442 -2t443 -2v-293l-693 -766h680v-264l60 6q-115 12 -238 12q-96 0 -225 -6q-303 -14 -375 -14h-115l-170 2q-14 57 -14 123zM164 1040 q49 0 121 -8q164 -18 202 -18q49 0 107.5 6t116.5 12q-49 -16 -111.5 -23.5t-130.5 -7.5h-100q-35 0 -96.5 -5t-71.5 -5q-4 12 -17.5 27.5t-19.5 21.5zM612 344q307 309 617 621l-49 -45q-37 -6 -51.5 -12t-32.5 -29q-4 -6 -15 -27q-20 -43 -26 -51q-27 -35 -52.5 -68 t-60.5 -71q-160 -176 -174 -193q-57 -72 -90 -129zM645 276q172 23 346 48q51 0 142.5 -7.5t115.5 -7.5q10 -23 11 -57q0 -31 -7 -70q-14 -92 -14 -116q0 -12 4 -46q-4 6 -6 32t-2 42v39v84q0 39 -16 64zM1223 1276l22 59q0 -59 -3 -130.5t-11 -153.5q0 37 -4 128t-4 97z " />
<glyph unicode="[" horiz-adv-x="600" d="M80 199v520q0 129 8 385t8 385q0 -133 6 -318q15 -424 15 -528l-4 -805q-18 80 -25.5 169t-7.5 192zM98 1534l92 -6l164 -4l-207 -23zM115 -203l61 17q47 0 124 -10.5t149 -20.5h-64t-74 -2q-41 0 -97 2t-99 14zM123 612v203t2 203q0 96 6 260t6 197q0 -100 16.5 -303 t16.5 -310q0 -123 -6 -297q-14 -401 -14 -499q-14 125 -20.5 247.5t-6.5 298.5zM176 -178v1646l326 2l-2 -122l-191 -5v-1398h174l4 -127zM231 1491q14 10 36 12t50 2h23q20 0 67.5 -10t90.5 -18zM328 707q0 -147 7 -410.5t7 -335.5q0 84 20 367q10 141 11 221 q0 156 -7.5 431t-7.5 353l-24 -16zM362 -45h138l6 -16v-72q0 -23 -3 -41.5t-11 -28.5l30 2l2 150l-2 18l-145 6zM375 1323l100 -4l43 2l10 53q0 25 -5 50.5t-9 52.5q-2 -63 -4 -98.5t-10 -45.5h-115z" />
<glyph unicode="\" horiz-adv-x="960" d="M76 1391l49 43q39 14 102.5 25t104.5 22h39q-68 -27 -148 -47q-51 -12 -147 -43zM100 1466q92 39 185.5 62.5t197.5 32.5l-49 -54zM117 1311l41 12q82 -393 163.5 -744.5t176.5 -736.5q-127 358 -162 467q-96 281 -150 520q-70 291 -69 482zM164 1391l244 73 q100 -508 104 -530q68 -315 123 -531q72 -281 153 -514l-241 -69zM457 1421q68 -240 139 -477q80 -285 119 -491q47 -271 47 -494q-106 313 -187 706.5t-118 755.5zM479 -205q92 37 189.5 52.5t203.5 15.5q-92 -45 -194.5 -74t-185.5 -29zM520 1253q55 -190 109 -381 q88 -313 127 -497q61 -270 61 -408v-49q-84 315 -155.5 656t-141.5 679z" />
<glyph unicode="]" horiz-adv-x="636" d="M78 1374q0 25 5 50.5t9 52.5q2 -63 4 -98.5t10 -45.5h115l10 -10l-100 -4l-43 2zM82 -51l2 18l145 6l15 -18h-138l-6 -16v-72q0 -23 3 -41.5t12 -28.5l-31 2zM104 1470l326 -2v-1646l-311 -4l4 127h174v1398l-191 5zM109 1477q43 8 90 18t67 10h23q29 0 50 -2t36 -12z M158 -217q72 10 148.5 20.5t123.5 10.5l62 -17q-43 -12 -99.5 -14t-97.5 -2q-39 2 -73.5 2h-63.5zM233 549q0 156 7.5 431t7.5 353l24 -16l7 -610q0 -147 -7.5 -410.5t-7.5 -335.5q0 84 -20 367q-10 141 -11 221zM252 1524l164 4l92 6l-49 -33zM436 862q0 106 16.5 309 t16.5 304q0 -33 6 -197t6 -260q2 -100 2 -202.5v-203.5q0 -176 -6 -299t-20 -247q0 98 -15 499q-6 174 -6 297zM489 643q0 104 15 528q6 184 6 318q0 -129 8 -385t8 -385v-520q0 -102 -7 -191.5t-25 -169.5z" />
<glyph unicode="^" horiz-adv-x="913" d="M63 877l295 577l113 14l-166 5zM76 829l188 -12q45 63 94 184q20 49 72 195l-113 -367l-135 -59zM113 864q115 272 133 316q100 229 147 288h78q57 -90 113 -219q164 -381 166 -385l-132 6q-25 72 -63 144q-115 215 -123 235l-168 -385h-151zM365 1550l200 -51h-125z M465 1130l113 -278q-31 51 -50 80q-37 59 -45 80zM500 1499l354 -610l-29 -53zM565 1454l195 -358l-148 336zM618 805l173 12l-138 29z" />
<glyph unicode="_" horiz-adv-x="940" d="M53 -160q0 20 6.5 47t10.5 43l24 27l-6 -94q0 -49 8 -90l-28 -13q-8 41 -15 80zM106 -127q0 16 1.5 24.5t3.5 14.5l718 -2v-90q-178 0 -358 2l-360 4zM113 -246l4 35q20 -2 83.5 -11t96.5 -9h168q27 0 80 6t80 6l188 -6q-82 -23 -156.5 -29t-203.5 -6q-43 0 -162 7 t-178 7zM117 -35l364 6q63 0 185 -13t163 -17l-688 -13zM141 -186q190 0 434.5 -1.5t264.5 -15.5q-76 0 -255 -4t-192 -4h-57q-86 0 -129 5t-66 20zM834 -41l43 -2v-170l-27 -27l4 146z" />
<glyph unicode="`" horiz-adv-x="600" d="M57 1317q51 37 98.5 70.5t106.5 80.5l4 -34l-174 -144zM88 1282q146 -192 293 -385l-4 64q-51 82 -133 169q-70 74 -156 152zM113 1296q39 18 88 60q23 18 78 71q49 -106 104 -195t127 -173l-98 -78zM291 1411q90 -129 112 -160q52 -76 107 -166l47 -8zM395 942 q47 35 97 72q10 8 57 49l-68 -82z" />
<glyph unicode="a" horiz-adv-x="972" d="M51 422q53 -74 109 -148l-35 -28q-27 57 -43 98q-31 76 -31 86q0 106 86 252q41 68 84 135l-22 -92l-109 -107l2 -14q-14 -12 -27.5 -74.5t-13.5 -95.5v-12zM68 895l49 -4l-25 -23q0 41 14.5 125t14.5 125l43 -12q-6 -8 -55 -137q-18 -49 -41 -74zM109 514 q0 133 60 202.5t193 69.5h230q14 0 24.5 -10t16.5 -26q6 23 11 44t5 44q0 53 -33.5 75.5t-91.5 22.5h-80q-29 0 -57 -12q-16 -29 -22 -52q-61 14 -111 15q-29 0 -60.5 -3t-68.5 -12q0 160 77 222.5t242 62.5h76q188 0 266 -88q72 -82 72 -274v-637q-47 8 -106 8h-64 q-29 -6 -41 -8l12 131q-41 -66 -77 -94q-47 -37 -117 -37h-111q-158 0 -211 106q-34 70 -34 240v10zM141 162l2 71q57 -66 95 -92q22 -16 116 -63h39l82 -2q-39 12 -86 28t-74 17q-12 0 -36.5 -5t-30.5 -5q-27 0 -59.5 24.5t-47.5 26.5zM150 1159l106 17l-92 -46zM256 1176 q117 31 233 61l-47 -41q-47 -4 -93 -8t-93 -12zM258 795q55 8 112.5 16t104.5 8h148l-11 -24h-354zM313 449q0 -43 18.5 -68t59.5 -25h125q43 0 58.5 23.5t15.5 69.5v34q0 55 -6 88t-29 33q-39 0 -87 -8t-89 -15.5t-53.5 -45t-12.5 -86.5zM326 494l28 45l199 47l16 -29 l-80 2l-124 -37l-27 -110zM365 872l38 35l95 -16l-27 -17q-8 0 -35 13l-14 -4zM397 395l164 37l-6 -4l-74 -49zM430 109l84 36q76 0 185.5 -15t199.5 -34l-27 -33l-12 37q-86 10 -161.5 11.5t-155.5 1.5h-27h-38.5t-47.5 -4zM487 1196l93 23q121 -41 165 -64 q119 -57 119 -106q0 -35 1 -50.5t7 -68.5q0 -25 9 -271q2 -61 2 -161l-43 4q31 162 37 200q18 119 18 201l-2 187q-125 51 -199 73q-111 33 -207 33zM575 92l9 4l4 -4h-13zM578 891l14 10l14 -8zM881 293l4 8l10 35l4 -88v-19q-10 31 -18 64zM885 420l45 96 q-16 -88 -33 -174l-2 -6z" />
<glyph unicode="b" horiz-adv-x="950" d="M70 240l34 4q-20 66 -24 202t-4 236v63l4 -124q0 -82 -5 -218.5t-5 -162.5zM78 129l10 12l12 -14l-4 1028h17q0 -154 -8.5 -333t-17.5 -381.5t-9 -311.5zM98 96l2 17l189 -9q-39 -4 -90.5 -6t-100.5 -2zM113 1217q90 20 192 20q96 0 232 -20q193 -29 231 -33l-72 37 q-25 -8 -52.5 -11.5t-63.5 -3.5zM131 125v1061q88 -14 193 -15q29 0 107.5 7.5t115.5 7.5q137 0 190 -76q45 -66 45 -209v-31q0 -72 -8 -102q-14 -55 -61 -80q72 -12 98 -100q16 -55 16 -152q0 -156 -36 -221q-52 -90 -195 -90q-33 0 -104.5 6t-108.5 6q-74 0 -131 -2 t-121 -10zM289 104q96 -10 192 -18l-16 20l14 23q-27 -10 -92 -17.5t-98 -7.5zM334 336l108 -6q102 0 131 14q49 25 50 113q0 86 -52 110q-33 17 -133 17q-20 0 -36.5 -1t-67.5 -10q14 -55 14 -120q0 -61 -14 -117zM334 786l104 5l72 -5q37 0 53.5 26t16.5 67 q0 43 -14.5 69.5t-55.5 26.5h-176q4 -12 6 -45t2 -47v-21q0 -20 -1 -41.5t-7 -34.5zM350 928q23 6 57.5 8t65.5 2h39l37 -2v-16l16 26l-55 -6q-37 0 -80 8t-74 25zM352 805q43 0 84 -1t88 -9l-4 20l-145 8l-17 62zM358 362l25 134l-25 12v-146zM367 535l14 6q12 -10 18 -33z M383 358q99 19 199 19q-43 -16 -70 -20.5t-47 -4.5zM397 567l174 -20l35 -113l-6 -39l-35 140l-143 -3zM506 88l69 16l7 -28zM547 877l18 8l-12 -64zM596 104l2 -41l104 43zM702 117l84 37l-16 -29zM737 1137q12 -16 36 -50t36 -55l-41 127zM772 688q12 -20 27.5 -45 t17.5 -39l27 31zM778 1020l29 -57l2 69l-16 -20zM791 152q47 70 59 112.5t12 130.5q0 53 -3 85t-15 95q10 -14 14 -37.5t4 -45.5v-54l-6 -80q-4 -16 -18 -49q-33 -68 -35 -82zM791 852q8 -16 17 -37t9 -31v-43q-8 -18 -10 -26l4 37q0 20 -10 57t-10 43zM805 903v33l2 27 l10 -31zM821 121q14 47 29.5 93t35.5 101l-12 -96q-12 -25 -25 -50.5t-28 -47.5z" />
<glyph unicode="c" horiz-adv-x="1028" d="M55 532q16 -37 33 -69.5t23 -75.5q6 -45 15 -57.5t9 -24.5q0 -6 -5 -18.5t-5 -16.5q0 -18 43 -69q31 -33 37 -41v53l-86 74q-20 66 -38 125t-26 120zM80 909q6 61 14 125q6 18 62 86l-4 19q23 33 34 49q41 59 47 72q-33 -43 -43 -60q-20 -34 -20 -67l-2 -11 q-27 -41 -51 -80q-12 -23 -37 -133zM88 766q0 -190 25.5 -300t119.5 -282l29 29q-57 76 -112 152q-59 92 -60 276q0 49 2 146.5t2 146.5q35 57 86 127q41 55 96 123l-26 28q-4 -12 -111 -219q-51 -100 -51 -227zM129 692q0 258 39 355q68 163 278 163h3h137q203 0 268 -86 q57 -76 57 -286q-33 4 -45 4q-18 0 -55 -4t-59 -4l-52 4q0 100 -55 127q-35 16 -149 16q-98 0 -136 -72q-28 -53 -28 -161v-7q0 -35 2 -84t6 -106q0 -127 43 -158q34 -24 160 -24h10q84 0 115.5 27.5t31.5 111.5q37 14 68 14q20 0 59 -8t60 -8q16 0 24 2q0 -221 -61 -291 q-68 -78 -285 -78h-92q-238 0 -305 166q-39 94 -39 387zM233 1194l105 18l108 25l-131 8zM266 139l23 -6l213 -59l-221 106zM358 618l25 -149l14 197l-8 161q-4 -16 -4 -24q0 -33 2 -64q-8 -25 -16 -61q-14 -53 -13 -60zM385 885v16v21l18 12q0 -61 -14 -107q-2 14 -3 32 t-1 26zM389 428l57 -20q18 4 105.5 8t132.5 26l-49 -51h-23l-141 4l-29 -10q-4 12 -27.5 21.5t-25.5 21.5zM414 958l164 -8l24 -14q-27 -4 -63.5 -7t-51.5 -3zM461 116l250 21l14 -33h-68q-41 0 -112.5 6t-83.5 6zM489 1237l19 39l61 18zM530 1223q137 0 205 -3t150 -22 l8 -88l-37 94q-33 10 -96.5 28.5t-108.5 29.5q-8 -10 -57 -25q-29 -8 -64 -14zM643 918l6 6zM709 526l180 -12l8 18zM715 827q49 0 103 -8l108 -16l-4 287q8 -88 16 -147.5t23 -131.5l-9 -29l-26 -2q-31 0 -48.5 3t-62.5 14q-4 6 -51 15t-49 15zM764 131q29 10 39 16 q25 16 37 23q-17 -21 -33 -39h-43zM840 170l104 84l-29 4q-16 -25 -34 -45q-29 -29 -41 -43zM911 303l23 62l-12 65l20 115l4 -250z" />
<glyph unicode="d" horiz-adv-x="1017" d="M68 141q14 121 18 239t4 255q-2 86 -2 170v168l31 -127q0 -20 -19 -111q-8 -39 -8 -65l-2 -117q-2 -47 -2 -94v-97q0 -51 4 -116.5t12 -100.5zM90 98l57 25l74 -4l146 -2q-72 -12 -125.5 -15.5t-151.5 -3.5zM104 147q0 117 7.5 321t14.5 378t7 348h-12l4 -1047l-10 15z M131 1231l68 26l47 -10q25 0 74 8.5t71 8.5q18 0 59.5 -12.5t59.5 -12.5q90 0 161.5 -12.5t157.5 -40.5l-32 35q-8 0 -125 4t-166 4q-94 0 -188.5 1t-186.5 1zM147 823q0 66 7.5 198t7.5 181l90 4h97t93 2q264 0 342 -67q104 -90 105 -408v-121q0 -344 -111 -419 q-79 -56 -452 -56q-27 0 -82.5 2t-81.5 2l2 88q0 98 -8.5 297t-8.5 297zM311 96q18 4 49 7t72 3h23l24 -2q-25 -8 -45 -8h-123zM364 352h177q86 0 121 101q22 65 22 165v9v92q0 106 -22 172q-35 100 -123 100h-175q6 -59 9.5 -137t3.5 -174q0 -55 -6.5 -163.5t-6.5 -164.5z M393 383q4 18 4 39.5v34.5q0 31 -1 61.5t-1 63.5v84q0 145 21 315l2 -35q0 -104 -6 -211q-18 -317 -19 -352zM412 365v26l155 -2l-18 -24h-137zM436 84l82 31h12l54 6q53 8 109.5 20.5t92.5 20.5l7 12q-8 -2 -65.5 -23.5t-94.5 -29.5zM473 963h82l53 -31q20 -25 34.5 -66 t14.5 -75l-57 98zM584 360q25 35 47 70t45 72l-14 200v-71q0 -92 -11 -121q-33 -63 -67 -150zM803 1180l71 -33l52 -100zM809 96l14 23l-6 -19zM829 154l33 -15q33 147 43 293t10 356q0 41 -2 134.5t-6 103.5l13 -14l2 -99v-170q0 -190 -11 -299q-20 -223 -82 -290zM834 90 q16 39 33.5 80t27.5 82l14 -23q-10 -18 -37.5 -73.5t-37.5 -65.5zM893 268q27 90 38 187.5t11 203.5q0 -49 -7 -189t-7 -210z" />
<glyph unicode="e" horiz-adv-x="856" d="M53 109q255 26 527 26q66 0 108.5 -3t91.5 -11l-2 45q-41 -27 -284.5 -45.5t-374.5 -18.5zM82 907q0 -109 12 -276q29 -393 29 -471l14 20l-14 -4v186q0 190 -7 328.5t-34 216.5zM82 1233q8 -35 12 -123t4 -162v-30v-27v-25q0 -35 -1 -66.5t-1 -58.5l35 4 q-16 63 -24.5 146.5t-8.5 157.5q0 41 2 68.5t15 115.5h-33zM98 162l17 16l12 -18v1032h18q0 -281 -10 -518.5t-37 -511.5zM119 1241q51 8 104 16q57 6 144.5 8.5t99.5 2.5q68 0 135.5 -1t136.5 -1l-49 8q-23 0 -55 -6q-78 -15 -98 -15q-72 -8 -167.5 -12t-185.5 -4zM139 565 q0 113 4 374t4 278h533v-211h-330q4 -16 4 -34v-34q0 -20 -2 -63.5t-2 -63.5h357q-2 -20 -2 -44v-36v-65.5t2 -65.5l-91 6q-66 0 -165 -3t-101 -3q2 -35 5 -64.5t3 -72.5q0 -16 -1 -36.5t-7 -55.5q29 6 75 8t87 2q55 0 110.5 -2t108.5 -8v-213q-25 0 -76 -2t-80 -2 q-70 0 -213 2t-215 2q0 70 -4 232.5t-4 174.5zM145 1235l256 -18l-254 8zM369 872q35 -6 52 -11t58 -21h-104zM373 975h299q-33 14 -102.5 18.5t-96.5 14.5zM377 381v37q14 2 43 8t41 6t43 -12q4 -2 16 -6h47h-9q-31 0 -85 -11q-12 -2 -96 -22zM385 578q53 0 86 2 q131 8 143 8q10 0 21.5 -2t50.5 -8l-280 -25zM395 1249q63 -12 129 -22q107 -19 117 -27l66 45q-51 0 -156 2t-156 2zM403 862q10 -4 35 -4h35q20 0 47 -10l162 -49l-141 8q-35 23 -70 47q-16 8 -68 8zM592 428l4 -43q18 6 52 10t59 4l75 -4q6 -20 11 -28q12 -18 16 -27 q-49 37 -105.5 62.5t-111.5 25.5zM680 1217l14 8l15 -101zM688 975l64 -14l2 -19zM707 600l32 -6v24q0 80 -10 179l19 2l-23 24q0 -84 -3 -120.5t-15 -102.5zM709 1124l16 -133l16 15q-10 49 -15 71.5t-17 46.5zM713 1112q0 53 10 119l39 -8l-14 26zM739 385l35 10 q-10 -35 -10 -63l6 -90l-4 -117q-10 63 -18.5 131t-8.5 129z" />
<glyph unicode="f" horiz-adv-x="835" d="M68 131q0 119 12 319.5t24.5 385t12.5 333.5h-19l-4 -520t-2 -520l-12 16zM90 90l72 29l18 -4l195 -6l-127 -19q-18 -4 -35.5 -8t-34.5 -4q-8 0 -37.5 4t-50.5 8zM111 1235l16 -221l-8 209q12 0 133 -9q31 -2 78 -2h149q43 0 130 4.5t110 14.5l2 -45zM119 147 q10 59 13 96.5t3 125.5v30v86q0 47 -4 101q-10 133 -10 166v163l22 -90q0 -2 -4 -63.5t-4 -85.5v-180q0 -80 6 -177.5t15 -173.5zM141 774v107q0 78 2 155.5t4 155.5h584v-188q-98 10 -180 10q-88 0 -201 -10v-220q78 14 164 15q37 0 79 -3t93 -12v-211h-336v-440h-203z M367 326v94l6 131l26 -6q0 -39 -12 -115t-12 -115q0 -27 -2 -85t-2 -87q0 31 -2 92.5t-2 90.5zM381 819v129l16 35zM389 899l33 16l-8 -90zM414 993l286 -2l15 -18zM430 809l250 12l-10 -20zM444 545l72 22l133 -37l-74 -2q-27 0 -57.5 4.5t-73.5 12.5zM649 553h43l6 -21 q-33 14 -49 21zM700 819l35 -61q-8 -31 -14 -67t-8 -68zM727 573v44.5t4 48.5q4 -27 6 -61.5t4 -67.5q-14 25 -14 36zM733 965q16 111 18.5 131t2.5 73h-13q20 -96 23.5 -114.5t3.5 -50.5q-10 -10 -22.5 -21.5t-12.5 -17.5z" />
<glyph unicode="g" horiz-adv-x="1038" d="M66 713q6 -70 14 -140q14 -88 47 -133q2 -10 -6 -24q2 -8 26 -41q16 -20 33 -41q164 -197 414 -281l4 45q-90 0 -154.5 9.5t-132.5 39.5l-108 125q-16 18 -33 39q-31 39 -51 74q-10 18 -16.5 81.5t-6.5 127.5q0 84 6 125zM96 743q0 150 33 237t66 173l-56 -109 q-6 -16 -22 -165q-4 -49 -15 -152v-88q0 -84 6.5 -124t34.5 -126q-10 16 -16 46t-2 48q-14 16 -21.5 109.5t-7.5 150.5zM123 672q0 252 43 358q72 176 278 176h131q154 0 243 -93t89 -247h-213q-10 76 -73 99q-35 12 -132 12q-98 0 -129 -72q-18 -43 -18 -162v-129 q0 -152 29 -192q39 -55 178 -55q109 0 133 49q14 29 14 151h-149v205q41 0 121 -6t120 -6q57 0 119 12v-268q0 -186 -81 -277.5t-265 -91.5h-92q-201 0 -285 178q-61 129 -61 359zM133 1047l64 151l112 25l-59 -33q-25 -23 -62 -70q-29 -37 -55 -73zM317 1245l371 -8l76 -41 l-100 31q-18 0 -57.5 -2t-55.5 -2h-31zM356 530l45 -118q-4 43 -5 66.5t-11 38t-10 20.5q0 45 -2 141t-2 143q0 31 4 53.5t18 22.5q18 0 19 -27q0 -39 -23 -161q-33 -176 -33 -179zM401 930q25 4 53.5 8t32.5 2l91 -8l106 -90l201 -29l30 23h-51q-41 0 -82 2t-72.5 8 t-91.5 35q-45 20 -90 43h-47zM408 102q82 0 176 9q6 0 176 18l-33 -47q-23 14 -39 24q-31 18 -39 19q-20 0 -84.5 -17.5t-87.5 -29.5zM451 408l180 -11l-174 -22zM508 563q0 -16 20 -16q8 0 50 2q35 0 65.5 -6t32.5 -23l8 -92l-43 96l-104 47q-4 27 -8.5 57.5t-4.5 51.5 l6 68l29 -19q-35 -41 -43 -72t-8 -94zM567 799l297 -17h-291zM764 1231l53 -2l-2 -10zM780 162l33 22l29 -6q20 0 26 21q20 59 36 120.5t16 112.5l32 -16l-10 33q-20 -94 -37.5 -151.5t-34.5 -74.5l-49 -49q-12 -12 -41 -12zM827 1151l23 35l59 -103q10 -47 14.5 -105 t10.5 -134q0 6 -13.5 16t-13.5 14l6 52q0 23 -25.5 90t-39.5 82q2 18 16 35q-18 8 -37 18zM934 449v14q0 33 4 98.5t4 100.5l-8 73l22 -69l-4 -29z" />
<glyph unicode="h" horiz-adv-x="946" d="M88 100q109 27 148.5 33t95.5 6l8 -35zM88 336v61v129l6 213q6 -59 8 -150.5t2 -103.5q0 -76 -2 -123q-8 -190 -8 -208q-2 25 -4 80t-2 102zM96 965l6 262q6 -70 9.5 -163t3.5 -204l-3 -166q-8 72 -12 133.5t-4 137.5zM112 1253q74 0 128.5 -3t81.5 -19l-136 -6h-3 q-39 0 -71 28zM131 459v243l2 517h203q-8 -74 -8 -164q0 -41 4 -138.5t4 -105.5q29 -4 66.5 -6t72.5 -2h76q33 6 47 8v430h203v-1081h-203v440q-41 10 -69.5 15.5t-63.5 5.5q-39 0 -61.5 -3.5t-67.5 -17.5v-463h-203zM336 1133v47t6 51q14 -131 23.5 -226.5t9.5 -166.5 l10 -9l-43 5zM346 483v66l2 41h72l65 -25l95 21l-45 -2h-62q-29 8 -43 8q-29 0 -47 -23l-29 -446q0 61 -4 204.5t-4 155.5zM424 842h147l-2 -21h-131zM537 1257l43 -4l6 -301v-24q0 -37 -6 -74q-14 131 -21 197q-12 125 -12 196zM555 391q0 12 12.5 57.5t12.5 81.5 q0 18 -2 29l10 -315q0 -29 -3 -42.5t-5 -25.5l-17 2q0 35 -4 121t-4 92zM586 133q37 8 57 10q45 9 59 9q16 0 63.5 -4.5t51.5 -4.5l2 -28zM596 1255l20 25l17 -4l39 -2q12 -2 37 -2q16 0 49 2t49 2l-27 -19l-12 3l-82 -7zM809 111l16 190q6 -59 7.5 -75.5t1.5 -55.5v-33 l-3 -26h-22zM819 1223l23 57q0 -27 4 -94.5t4 -73.5q0 -143 -6 -289q-18 -434 -19 -481l4 236v329q0 74 -2 119q-8 182 -8 197z" />
<glyph unicode="i" horiz-adv-x="487" d="M88 459v94q0 125 7 344t7 285q0 -150 4 -273q15 -425 15 -456l-6 -287q-14 55 -20.5 140t-6.5 153zM90 1214l51 -2q25 0 67 5.5t48 5.5q41 0 75 -4.5t54 -6.5q-98 0 -150.5 -3t-105.5 -19zM104 137q35 2 85.5 7.5t60.5 5.5q33 0 61.5 -5t59.5 -10l20 -18zM121 879 q0 51 4 166.5t4 123.5q0 -74 6 -149q18 -229 19 -256q0 -70 -8.5 -213t-8.5 -215q0 90 -8 270.5t-8 272.5zM152 154q0 129 2 393t2 395l104 2h48.5t45.5 -6v-784h-202zM152 1165h202v-180h-121h-30q-12 0 -26.5 2t-20.5 2zM154 971h49l65 -4l45 4h45l-6 -17h-71h-72 q-31 6 -45 9zM195 1184q18 10 87.5 13t92.5 3l33 -16l-187 -2zM367 649q0 -82 6 -245.5t6 -247.5q0 61 12 188t12 188q0 143 -2 234q-8 356 -8 389l-18 10q0 -90 -4 -295.5t-4 -220.5z" />
<glyph unicode="j" horiz-adv-x="866" d="M86 317q0 41 5 113t5 88q20 -8 72 -8q27 0 89 4t69 4l-35 -33q-31 -4 -91.5 -6t-90.5 -2l-5 -117q0 -25 4.5 -86t4.5 -67q2 -8 6 -17.5t10 -21.5q0 -6 -10 -12t-13 -9q-2 14 -11 76t-9 94zM117 365v98q49 -8 112 -8q51 0 90 8q0 -104 9 -129q20 -61 102 -62q53 0 77.5 30 t24.5 85v608h203v-630q0 -166 -68.5 -235t-234.5 -69t-240.5 69t-74.5 235zM129 117v10l2 29q25 -18 51 -39q38 -29 54 -37q20 -10 49.5 -21.5t58.5 -19.5h-8q-53 0 -109 24q-14 6 -98 54zM334 532l41 -184l108 -39l-51 -6q-25 0 -53.5 8t-28.5 25zM350 29l12 -2l-8 8 q158 4 303 41l-266 -53l-8 8h-27zM473 1239q20 -2 34.5 17.5t22.5 29.5q57 0 113.5 -3t83.5 -13l-211 -10q0 -31 -2 -52q-8 -82 -8 -90q0 -104 7 -318t7 -294q0 -27 -6 -80t-6 -80q0 147 -10 334q-25 446 -25 559zM530 1028q25 0 76 4t78 4l53 -4l-18 -18h-160zM532 1053 v182h203v-176zM686 98q18 14 29.5 25.5t44.5 50.5q0 43 5 120t5 93q0 86 5 267.5t5 226.5q0 143 -5 221t-23 166l-9 -1006q0 -49 -6 -69q-27 -45 -51 -95z" />
<glyph unicode="k" horiz-adv-x="1028" d="M96 254v756q11 106 23 215q0 -115 -6.5 -300.5t-11.5 -336t-5 -334.5zM109 123l8 10l10 -16q6 33 8 84t2 57q0 25 -2 79t-2 81v766l12 -2q0 -315 -7 -568.5t-29 -490.5zM117 1249l12 31q43 0 129 2t129 2q0 -2 -4 -43t-4 -57q0 -6 4 -87t4 -116q0 6 -2 48t-2 71 q0 72 12.5 122t44.5 68l-118 -8q-102 -12 -205 -33zM143 131q25 -6 52.5 -10t52.5 -2l24 2l80 -4l2 6q8 0 44 -19.5t46 -21.5q-76 12 -96 14t-53 2q-51 0 -96 -3t-54 -7zM152 635q0 135 5 360.5t5 270.5h205v-457h28l240 391h252l-303 -483l334 -578h-256l-265 457h-30v-457 h-205q0 113 -2 185q-8 283 -8 311zM379 483l37 -131q0 -41 -5 -121.5t-14 -93.5l-12 19v30q0 16 2 50q0 10 -4 108t-4 139zM379 881q20 14 72 96q37 59 67 115l-131 -254zM383 524q12 -16 27 -32q141 -193 168 -234q55 -88 69 -141q-113 199 -256 424zM543 1092 q10 31 23.5 53t31.5 41zM602 1223l21 39q14 -2 41.5 -8.5t54.5 -4.5l-4 4q59 -14 129.5 -29.5t105.5 -29.5l-20 -29l-12 56q-6 0 -72 6t-94 6q-51 0 -96.5 -3t-53.5 -7zM614 705l35 47q55 -172 119 -301q51 -106 168 -291q-45 66 -88 133q-49 78 -80 139l-16 41 q-18 20 -27.5 32.5t-21 28t-22.5 54.5t-15 47q-18 47 -52 70zM655 121v10l121 -25zM657 819q131 188 154 223q55 88 66 129l4 -47q-18 -31 -39 -75q-10 -25 -20.5 -48.5t-46.5 -58.5t-52 -84zM776 106q8 0 31 -4h53h86l-10 -22z" />
<glyph unicode="l" horiz-adv-x="794" d="M78 389q0 -37 2 -112.5t2 -112.5q15 123 29 246l-7 122q-14 -72 -26 -143zM92 561l4 -4l8 53l7 133v-178zM109 135l12 12l8 -14q8 61 12 179t4 249q0 121 -3 278.5t-5 340.5l13 2q0 -147 -10.5 -335t-20.5 -395.5t-10 -316.5zM113 111l163 -2l-129 -21zM119 1247h33 l182 -6l-197 4v-153v-228zM154 563q0 111 4 366t4 269q20 8 39.5 10t46.5 2q25 0 58.5 -4t60.5 -8v-846l202 6h54.5t58.5 -6v-213h-520q0 72 -4 242t-4 182zM219 88l74 2h235l68 -6l37 39q-123 0 -214 -7t-200 -28zM360 1026v119q0 33 1 53.5t8 83.5l10 2q0 -4 2 -53t2 -64 l2 -790l37 6q-61 313 -62 643zM408 735l34 -352l-22 -6q0 59 -6 178t-6 180zM453 82q20 6 82.5 11t105.5 5q6 0 22.5 6.5t24.5 6.5l-24 -43q-29 0 -102 7t-109 7zM477 379l43 -2h191l-66 26h-65q-29 0 -54 -10q-29 -16 -47 -24zM688 360l25 -12v-149q0 -23 -2 -39 q-8 -66 -9 -72l13 4q-18 127 -19 133q-8 72 -8 135z" />
<glyph unicode="m" horiz-adv-x="1300" d="M98 627l19 67q0 -43 -4 -145.5t-4 -110.5l4 -319l22 47q-4 8 -5 25.5t-1 29.5v53l-4 17q-12 113 -16 168q-10 106 -11 168zM102 1067v135l52 51l-27 23q-8 -61 -11 -95t-3 -51q0 -16 5 -45.5t5 -35.5l-6 -390q-8 102 -11.5 186.5t-3.5 221.5zM145 127q31 0 108 4t81 4 l-17 703q0 -86 27 -441q12 -164 12 -266q-35 0 -105.5 -2t-105.5 -2zM147 145v1051q29 0 94.5 4t67.5 4q63 0 115 -8l219 -762l236 760h274v-1051q-35 -8 -84 -8h-53q-25 6 -35 8v869l-254 -865q-14 0 -31.5 1.5t-23.5 1.5q-25 0 -49.5 -1.5t-49.5 -1.5l-247 850 q0 -213 -2 -426t-5 -426h-172zM180 1255q31 -8 74 -10t94 -2h55l21 -22l-238 16zM385 784q63 -283 95 -391.5t77 -208.5l-41 2l-10 33q-39 188 -57 283q-27 125 -64 282zM442 1174q23 -61 52 -162q14 -49 28 -99q6 -18 29 -49q4 -4 12 -14q12 -55 27.5 -112.5t42.5 -96.5 l-4 -53zM442 1221l88 -269l-57 281zM512 106q8 2 20.5 7.5t12.5 11.5l92 -12zM666 530q18 227 77 385q63 150 109 265q-24 -88 -49 -176q-25 -55 -49 -111q-25 -86 -58 -225q-16 -70 -30 -138zM684 111l92 14zM743 172q0 -16 19 -16q4 4 20.5 82.5t22.5 95.5q59 182 121 366 q6 25 9 69t5 83q-20 -70 -43 -180q-10 -47 -57 -307q-6 -8 -51.5 -97.5t-45.5 -95.5zM891 1231l6 12l37 -8l211 12l-15 -12zM989 121l76 -10l-68 -9zM1104 115l113 12q-12 -4 -48 -7t-65 -5zM1163 154l37 4q-14 90 -18 216t-4 240v154l6 -111q0 -78 -6 -186 q-14 -252 -15 -317zM1167 1190l35 -27q0 -57 -8 -174t-8 -174q-18 184 -19 375z" />
<glyph unicode="n" horiz-adv-x="1091" d="M94 1208l34 39q-14 -115 -19 -227.5t-5 -337.5v-256h17q0 98 -19 489q-8 174 -8 293zM104 416q0 45 19 446q6 133 5 266q0 23 -3.5 59t-5.5 66q0 -16 -4 -44.5t-4 -43.5q0 -43 14 -635q4 -169 3 -378q-8 66 -16 135t-8 129zM123 102l4 33h14q51 0 105.5 -8t111.5 -23z M137 1262l189 -17q-74 -12 -102.5 -18t-49.5 -10zM145 139v1059q53 6 68.5 7t50.5 1l96 -6v-86q55 41 129 58.5t154 17.5q137 0 229.5 -92t92.5 -232l2 -727q-79 -10 -142 -10q-27 0 -56.5 2t-55.5 8v692q0 39 -52.5 65t-97.5 26q-61 0 -111.5 -22.5t-103.5 -68.5v-692h-203 zM342 412v8h38l1 -293l-37 4q20 145 25.5 263t5.5 306v80l14 -207q6 -8 7 -29.5t2 -43.5v-45l3 8q-10 -49 -12 -53q-12 -37 -24 -37q-23 0 -23 39zM346 1243q31 -10 62 -18v-8q-8 -33 -17 -66zM377 821l80 29l-6 -2q8 2 56 20.5t58 18.5q14 0 49 -8q8 -2 27 -7 q-61 -12 -121 -24l-112 -10zM442 1184l25 12l47 23l51 2h90l54 -21l-17 -22q-27 6 -53.5 8t-52.5 2h-64zM659 123v78q0 61 8.5 182t8.5 180v166q0 20 -6 60t-8 57l43 -55q-20 -45 -25.5 -86t-5.5 -107q0 -33 2 -93.5t2 -84.5v-82q0 -68 4 -132.5t14 -74.5zM745 1212l15 23 l198 -145q18 -27 22.5 -76t3.5 -125q-16 16 -34 102t-28 92zM754 121l237 -4v710q0 -145 4 -264q14 -414 15 -444l-66 -21q-39 0 -91 7.5t-99 15.5z" />
<glyph unicode="o" horiz-adv-x="1034" d="M90 748q0 47 6 145t6 149q59 61 115 129q41 51 64 84l-68 -28q-70 -106 -82 -133q-25 -57 -25 -166q0 -20 5 -62.5t6 -54.5l-2 -358q-4 39 -14.5 142t-10.5 153zM104 434q33 -86 56 -139q38 -90 69 -127q10 -12 70.5 -41t75.5 -29q18 0 47 2t57 4q16 0 29 -4 q-59 0 -168 29t-168 59q-23 47 -41 121q-8 35 -27 125zM121 596v180q0 197 65 305q82 135 265 136h104q186 0 272 -132q74 -113 74 -309v-180q0 -219 -55 -317q-76 -136 -279 -136h-116q-190 0 -269 138q-61 109 -61 315zM131 1022l33 84q27 27 67 63q68 61 82 62 q27 0 54.5 -1t58.5 -1q49 0 88 5t76 19l-74 19q-41 0 -78 -6q-70 -14 -137 -27q-33 -33 -68 -76q-45 -57 -102 -141zM326 606q0 -115 18 -157q33 -74 131 -74h68q98 0 131 71q22 47 22 153v9v162q0 113 -20 154q-33 63 -133 63h-68q-76 0 -112.5 -39t-36.5 -176v-166z M334 745l43 193l-35 -84q14 -131 28 -206t40 -171q-10 -31 -19 -59l31 4q-49 80 -68.5 151.5t-19.5 171.5zM432 942l88 21l80 -17l21 -28l-74 20l-80 -4zM461 412h104l60 28l-15 -28l-94 -23zM500 137l43 -26l8 4l76 -15zM610 1274l41 -47l256 -80l-6 -115q-10 45 -10 47 q-6 25 -19 47q-6 4 -141 93q-53 35 -59 41zM616 135l70 -35q47 33 95 71t87 79q-43 -35 -65 -51q-41 -33 -70 -49q-8 -4 -55 -6.5t-62 -8.5zM653 891q27 -96 27 -184zM655 512l17 -59v94q0 45 -2 90t-8 70l2 -60q0 -23 -4.5 -67.5t-4.5 -67.5zM846 168q27 55 55 113 q18 45 19 71q0 113 -7 226q-18 338 -18 374q0 27 5 64t11 69q20 -172 29.5 -300.5t9.5 -282.5q0 -152 -12 -192t-92 -142z" />
<glyph unicode="p" horiz-adv-x="892" d="M72 88q0 111 10 320.5t20.5 399t10.5 339.5h-15v-1112l-10 69zM84 1208q4 0 93 -4t126 -4q111 4 223 10q-10 0 -33.5 -10t-35.5 -10q-31 0 -90.5 6t-87.5 6q-25 0 -100 -14t-91 -23zM94 115q0 55 15 274q6 94 6 164l-4 172l8 -483q4 -37 8 -62.5t4 -52.5v-14zM96 -4 l15 88l41 -59q66 -10 115.5 -16.5t105.5 -12.5l-19 -25l-6 29l-123 4h-30q-16 0 -49 -2t-50 -6zM137 39v1137h322q174 0 241 -101q55 -82 56 -268q0 -248 -88 -318q-76 -59 -328 -59v-391q-12 -2 -35.5 -4t-44.5 -2zM352 98q0 20 8.5 69.5t10.5 61.5q0 -18 8 -53t8 -53 t-8 -49t-14 -56q-4 20 -8.5 43t-4.5 37zM352 307l19 10l-13 -77zM352 684h117q59 0 77.5 27.5t18.5 91.5q0 63 -20.5 91t-81.5 28h-111v-238zM367 412l264 12q-88 -14 -145.5 -24.5t-116.5 -28.5zM371 891q12 -70 19 -100.5t20 -69.5l-35 -4q0 31 -2 89t-2 85zM399 905 l113 -8l29 -47q6 -25 8 -43.5t2 -48.5l-25 18l-16 96zM414 702l112 35l9 -20zM553 1202l113 -18l73 -113q-80 86 -186 131zM598 395l51 6q55 104 70 136q37 76 61 139l29 -25q-78 -133 -121 -182t-90 -74zM729 530q14 80 34.5 117t41.5 70q-10 104 -23.5 194t-33.5 176 l-17 11q12 -8 37 -111q43 -186 43 -248q0 -37 -31 -106q-12 -27 -51 -103z" />
<glyph unicode="q" horiz-adv-x="1091" d="M70 250v8l14 -20zM78 479q6 -18 16 -69.5t12 -53.5l80 -139l-30 -18l30 -29l-36 39q-12 16 -39 122.5t-33 147.5zM84 635q0 10 10 38.5t10 43.5q0 109 41 233q49 152 123 193l127 74q29 14 53.5 23t49.5 9q20 0 41.5 -4t54.5 -12l-35 -25l-18 -4l-56 25 q-59 -18 -130.5 -46t-127.5 -50q-59 -113 -99 -252.5t-40 -255.5q0 -74 8 -138.5t29 -130.5l16 17q-20 63 -30 98q-27 92 -27 164zM133 569v181q0 227 80 327q90 113 307 113q233 0 320 -105q75 -91 75 -329v-6v-172v-27q0 -84 -10 -191l99 -77q-16 -18 -33 -62 q-41 -108 -43 -112l-94 73q-39 -39 -105.5 -51t-144.5 -12h-117q-193 0 -272 137q-61 106 -62 313zM195 242q23 -29 64.5 -75t70.5 -73l-115 72zM340 578q0 -113 20 -158q33 -72 129 -72h70q39 0 57 6l-122 99l86 168l129 -101v49v187q0 104 -23 145q-33 60 -127 60h-70 q-76 0 -112.5 -39t-36.5 -177v-167zM356 614l2 226q0 -104 10.5 -216t28.5 -225q-16 16 -32 33q-8 80 -9 182zM365 113l51 -31l-13 -4zM395 897l41 35l174 6l25 -31zM451 72h34l-16 -9zM477 424l88 -53l-63 4zM481 496v49l84 139l56 -66l-46 31q-23 -18 -53 -74 q-8 -14 -41 -79zM532 88l246 39l39 -33q-2 0 -108.5 -3t-176.5 -3zM588 1198q18 12 39 12q16 0 60 -8t61 -8l14 45q-23 -25 -35 -35q-31 -4 -58.5 -6t-64.5 -2zM659 715q0 10 8.5 32.5t8.5 34.5q0 20 -1 41t-1 43v25q20 -41 20 -154.5t11 -154.5q-23 43 -31 63 q-15 37 -15 70zM774 1176l96 -60q8 -6 15.5 -21.5t15.5 -35.5l-88 84q-29 20 -39 33zM811 127l86 -33l-20 -33l-33 45l-19 27zM891 1030l33 10q0 -8 8 -60l14 -91zM920 362q0 33 4 108t4 81l-6 143l24 -327zM930 864l16 -49v-16v-2v-33v-19zM946 84l64 168l-11 -117z" />
<glyph unicode="r" horiz-adv-x="929" d="M86 147l264 -14q-47 -10 -80.5 -16t-60.5 -6q-33 0 -78 10t-45 26zM92 186l12 11l13 -15q0 127 4 242q14 397 14 438q0 129 -3 183.5t-15 144.5l14 8v-186q0 -197 -10 -404t-29 -422zM96 1137l27 123q-8 -53 -10 -102.5t-2 -115.5v-107t2 -108v-43q0 -61 -7 -122h33 q-20 145 -31.5 251.5t-11.5 223.5zM143 162v1059h330q182 0 254 -91q66 -82 66 -270q0 -109 -23 -155q-29 -59 -121 -97q158 -51 158 -211v-258q-20 -10 -51 -10t-49 2q-76 8 -84 8h-19q0 18 2 63.5t2 69.5q0 98 -24 142q-37 63 -131 63h-105v-315h-205zM166 1247 q57 4 153 4q49 0 116 -2t97 -14q-53 6 -121.5 9t-152.5 3h-92zM362 455l13 -365l18 23l-18 2q0 178 20 340l-18 -19zM365 729h122q59 0 81 28.5t22 90.5q0 55 -25 88t-78 33h-122v-240zM375 928l14 -13q0 -33 4 -61q14 -98 15 -109l-17 -2l-6 9q-2 12 -2 36v37t2 39 q0 41 -10 64zM389 934l4 22l164 -16l-6 -16zM418 461l114 -21l-24 -14zM430 745l102 9l-6 16zM528 416q45 -129 78 -254q-14 66 -28.5 135.5t-14.5 128.5zM551 760l4 139q12 -18 12 -22zM559 1227l215 -56q6 -45 9 -104t3 -129v-139l15 -68l4 236l-8 55q-2 27 -4 59.5 t-50 59.5q-37 18 -93 43.5t-91 42.5zM573 92h66q25 0 61.5 1t53.5 7l-179 37zM694 612l99 78q-14 -16 -29 -33q-23 -29 -23 -39q0 -6 31 -42.5t31 -47.5q-6 8 -49 41q-31 20 -60 43zM754 102l73 13l-2 -27zM795 479q16 -55 23 -120.5t7 -137.5q0 -33 -1 -64.5t-1 -64.5 l33 53q-8 4 -8 41q0 20 -8 50q-18 63 -19 81q0 14 10 76q4 25 5 47q0 37 -9 56z" />
<glyph unicode="s" horiz-adv-x="993" d="M78 893q18 96 46 153.5t91 112.5l39 35l127 53l201 -5q-39 -6 -170 -24t-224 -53q-2 0 -14 -21.5t-24 -27.5q-23 -70 -30.5 -114t-8.5 -99q0 -14 9 -53q16 -82 17 -92q-14 35 -28.5 72.5t-30.5 62.5zM92 440l23 11l5 -183q-2 20 -12 82.5t-16 89.5zM121 494l221 -5 q-16 0 -71.5 -10t-61.5 -10zM127 238l41 -66l254 -61q-61 0 -150 30q-59 23 -88 33q-4 2 -24.5 29.5t-32.5 34.5zM127 469q31 -4 66.5 -7t58.5 -3q49 0 82 10q0 -66 18.5 -91.5t81.5 -25.5h133q53 0 70.5 27t17.5 84q0 111 -135 121q-213 16 -254 34q-139 63 -139 304 q0 176 106 241q84 51 275 51q199 0 272 -57q86 -68 86 -256q-27 6 -57.5 10t-58.5 4q-20 0 -47 -4t-54 -10q0 88 -84 88h-147q-49 0 -66.5 -23.5t-17.5 -74.5q0 -98 175 -106.5t222 -30.5q139 -68 139 -314q0 -197 -86 -260q-73 -55 -282 -55q-223 0 -295 61q-80 68 -80 283 zM133 729l80 -88q-2 -33 123 -51.5t131 -18.5l-254 15q-4 20 -26.5 46.5t-43.5 37.5zM352 848l6 55l21 -37zM356 936l35 27l107 6h55l43 -19q-23 -2 -66 -8t-75 -6h-99zM381 401h57q61 0 100.5 -3t77.5 -11q-18 -10 -71 -14h-72l-61 4zM387 827l141 -6l64 6q70 -12 141 -24 l-14 -25q-39 20 -113 27q-205 18 -219 22zM455 115l120 -6l183 47l33 -41l-277 -25zM492 1264q49 -6 103 -13.5t81 -13.5q16 -4 51 -23.5t45 -23.5q-66 16 -140.5 34.5t-139.5 39.5zM520 590q25 -10 59.5 -35t63.5 -49l-14 -35q-2 -4 -3 -24.5t-1 -28.5l-25 74 q-37 53 -80 98zM645 890q35 10 71 10.5t70 0.5h54l26 -39q-37 16 -95 22t-126 6zM756 756l20 32l15 -32l81 -105zM795 141l30 23q27 84 37 136t10 120l27 6l6 -70q0 -23 -46 -110.5t-64 -104.5zM811 1176l61 -91l-16 -10zM856 1085l12 48q-1 -3 -1 -8q0 -17 10 -60 q6 -29 6 -41q0 -4 -3 -25.5t-8 -54.5q-4 45 -8 84t-8 57zM868 625l21 -9l2 -159v45v37q-4 25 -4 34zM881 897l41 88l-27 -94z" />
<glyph unicode="t" horiz-adv-x="866" d="M82 670q8 -12 27.5 -19.5t42.5 -13.5l141 33l4 -84q0 -35 -6 -104.5t-6 -106.5l2 -203q30 129 30 261v9q2 6 -11 77t-21 102q-16 2 -28.5 20t-29.5 18h-37q-25 0 -54.5 2.5t-53.5 8.5zM90 766l6 -4v-80v223h8v-55q0 -16 -4 -39t-10 -45zM98 918q18 0 51 -5.5t44 -5.5 l77 4l21 -6q-10 0 -30.5 10.5t-37.5 10.5l-104 12zM129 684h184l17 -586q37 6 55 8.5t55 2.5q43 0 95 -11l16 586h186v211h-192v309h-232l-2 -309h-182v-211zM270 1221q63 8 144 14t149 6l2 -18l-6 -310l12 164q0 29 29 41l-14 -6q0 47 -4 64q-12 29 -23 57q-70 -8 -139 -14 zM281 74q31 2 58.5 5t63.5 3q72 -10 144 -21l-53 43q-53 -10 -104.5 -19t-106.5 -24q16 139 18 154q12 112 12 145l-10 125q-6 -47 -13 -106.5t-7 -91.5v-25v-24q0 -37 -1 -73t-1 -73v-18zM287 1008q0 -23 8 -52t12 -43v64l-6 22l8 160l-10 35q-4 -8 -8 -83t-4 -103zM530 45 q14 20 20 45t5 66q0 23 -1 44t-1 42q0 177 14 329q8 6 13.5 24.5t9.5 22.5q-20 -98 -35 -284q-20 -248 -25 -289zM561 647q18 0 51 -5t43 -5l84 6l21 -6q-12 0 -14.5 13.5t-22.5 13.5l-143 4zM571 924q14 -1 39 -9q8 -2 24.5 -3t33.5 -1q33 4 47 4l16 -6l-8 4l20 23l-6 4 q-66 0 -94.5 -3t-71.5 -13zM756 760l4 -6v-78v223h8q0 -31 4 -107.5t4 -82.5z" />
<glyph unicode="u" d="M78 1176q0 16 40 24t72 8q29 0 96.5 -8t94.5 -8q-45 12 -91 15t-114 3l-61 -59h-11q-26 -4 -26 25zM100 831q0 41 6.5 125t6.5 127q8 -90 9 -123.5t1 -70.5q0 -70 -7 -192t-7 -158q0 49 -4.5 165.5t-4.5 126.5zM125 401q0 168 5 429.5t5 299.5l10 7q0 -133 -4 -242 q-14 -377 -14 -403q0 -113 4 -146t35 -102q14 -35 29 -68q25 -55 32 -61l27 30q-27 27 -62.5 84.5t-50.5 81.5q2 18 -7 50t-9 40zM152 498v682h202q0 -55 -4 -186.5t-4 -139.5q0 -201 5 -327t32 -158q20 -23 57 -29t86 -6t80 6t51 31q12 16 17.5 66t5.5 134q0 86 -2 150.5 t-4 122.5q0 66 4 217t4 162h205v-725q0 -203 -49 -279q-64 -98 -254 -98h-119q-182 0 -254 100q-59 84 -59 277zM248 121l43 -12l-41 4zM324 117q27 0 80 -2t79 -2q82 -10 164 -21q-12 6 -37.5 7t-52.5 1h-80q-25 0 -60.5 1t-47.5 5zM371 670v493q0 -309 15 -529t44 -263 l-47 45q0 61 -5 133t-7 121zM473 350l125 25l8 -25h-133zM571 104q51 0 111 11q74 16 109 22l-19 -45zM623 379l28 534l-4 -534l-10 14zM739 1237l113 6zM797 156l37 -2l-15 -39q-16 20 -22 41zM852 201q18 76 38.5 157.5t20.5 147.5q0 39 -18 397q-6 119 -6 238l6 131 l25 -74q0 -49 -7 -223t-8 -273q0 -223 -3 -331.5t-23 -241.5l-17 27q8 20 -8 45zM883 141l12 88v-90z" />
<glyph unicode="v" horiz-adv-x="1138" d="M78 1219l2 18l84 29zM92 1128q27 -182 86 -372q47 -156 131 -348q68 -156 162 -349l-18 4l-9 17q-92 186 -149 321q-80 190 -109 336q-20 135 -30 199q-20 111 -64 192zM94 1180q76 -279 146 -494q84 -264 172 -481l-21 14l-10 -31q-74 236 -100 330q-51 180 -91 340 t-75 328zM131 1202h236q37 -205 88 -414q43 -172 114 -407q41 111 82 274q33 127 63.5 276.5t59.5 293.5h232l-275 -1082q-84 -12 -164 -12t-159 12zM150 1235l249 12l-34 -26q-63 8 -116.5 11t-98.5 3zM428 88l2 45q39 -12 85 -16t110 -11zM446 1014l43 -129 q8 -33 17.5 -71t19.5 -62l6 -11l46 -274q-20 47 -30 93.5t-18 101.5q-49 164 -84 352zM610 592v8q0 59 50.5 302t50.5 292q0 14 -2 18q4 2 36 41q23 27 46 27q25 0 87 -16.5t83 -20.5l57 43q-14 2 -53 2q-72 0 -133.5 -11t-90.5 -40q0 -31 -16 -43q0 -78 -31 -215 q-82 -362 -84 -387zM625 106l174 23l-17 -29h-24h-35q-49 0 -98 6zM735 145q37 145 109 387q47 156 69 232q-47 -246 -76.5 -363.5t-66.5 -234.5zM887 653l76 301l-56 -292zM979 954q14 82 30.5 169t24.5 165l17 -12q0 -68 -25 -164q-14 -53 -47 -158z" />
<glyph unicode="w" horiz-adv-x="1624" d="M94 1231l2 24q20 2 51 7.5t37 5.5l187 -45l-6 41q-33 -16 -70 -23.5t-74 -7.5q-49 2 -76 2q-35 0 -51 -4zM113 1227l10 6q25 -145 65 -326q-23 80 -43 163t-32 157zM152 1210q53 -12 104 -12q49 0 98 12l174 -741l172 766q61 12 123 12q55 0 109 -12l137 -692l209 712 h205l-258 -1101q-18 -10 -47 -14.5t-58 -4.5q-72 0 -139 19q-37 195 -68 309q-41 154 -106 299l-158 -608h-243zM172 1034q35 -162 77 -329.5t85 -317.5q33 -115 96 -321l25 30l-80 31q-37 145 -72 293q-45 188 -65 313q-29 174 -29 305zM393 1243q12 -39 17.5 -79t5.5 -91 q-8 41 -15.5 89t-7.5 81zM416 137q25 0 85 -4t66 -4l70 2q-27 -6 -51 -27l86 -4h-43h-74q-33 7 -47 9q-16 2 -43 11t-49 17zM446 1010q12 -127 30.5 -237t51.5 -210l-8 156q-23 80 -33 123q-35 135 -41 168zM557 784l2 -82q33 137 57 289q16 98 41 295l5 -12q33 0 101 -7 t87 -7q35 0 55 10l-227 -27q-29 -80 -57 -158q-10 -43 -18.5 -88t-14.5 -90q-16 -61 -31 -123zM664 154l49 106l-31 -100zM707 338l114 264l-6 86zM895 326q20 -51 39 -95q6 -12 43 -90h283l-222 -35l-16 3l-35 4l-33 -7q-37 117 -59 220zM940 1274l6 12q27 -133 66 -334 q30 -158 61 -336q0 139 -45 316.5t-88 341.5zM1094 705l118 577h119q49 0 98.5 -2t98.5 -8l-15 20l15 23q-100 -14 -156 -25q-104 -20 -135 -59v-17q2 -10 -9 -40.5t-14 -36.5zM1223 129q25 113 86 297q84 254 96 295l-29 -27q0 -82 -41 -205q-90 -268 -90 -348zM1382 735 q63 311 72 344q20 82 62 205q-12 -94 -48 -250t-67 -293z" />
<glyph unicode="x" horiz-adv-x="1148" d="M92 96l39 15l31 -5q6 0 89 -4t118 -4l2 6q-25 -4 -74 -14t-80 -10q-20 0 -61 8t-64 8zM104 164l7 -58q8 80 46 161t79 161l6 -53q-6 -8 -72 -106.5t-66 -104.5zM113 117l313 575l-258 506h27q23 0 65.5 -4t65.5 -4q41 0 73 8l176 -360q41 96 91 192q41 80 104 191h227 l-270 -529l293 -553q-59 12 -109 13q-27 0 -61.5 -4.5t-69.5 -8.5l-205 400q-53 -129 -96 -217q-57 -119 -123 -205h-243zM162 1202l252 58l-37 -41l-211 -2zM180 1155q82 -152 123 -235q64 -129 111 -242q-84 -119 -92 -131q-35 -57 -52 -84q31 63 56 106q10 16 61 103z M381 113q2 10 17.5 32.5t35.5 49.5l-10 -39zM410 1237q49 -106 82 -166q41 -76 100 -158l-6 -6l-21 8zM457 252l121 246v-49q-12 -16 -21.5 -32t-19.5 -36l-17 -64q-33 -33 -63 -65zM602 965l139 258q37 23 133 41q45 8 140 20l-23 -45l-16 6h-182l-56 -10 q-63 -137 -135 -270zM618 424q39 -76 78 -150q41 -86 60 -159l114 6q33 0 97.5 -9.5t89.5 -11.5q-41 0 -121 -6t-121 -6l-74 18q-8 18 -16 23q0 18 -12.5 35.5t-14.5 23.5zM752 717q84 172 127 256q78 156 137 254q-70 -147 -119 -256q-98 -213 -102 -236t-6.5 -42t-4.5 -48 zM780 655q53 -6 76 -63q18 -74 29 -100q29 -74 71 -173q70 -162 74 -169h-8zM948 418l101 -228l-50 62z" />
<glyph unicode="y" horiz-adv-x="1028" d="M61 1182q10 20 34 33.5t48 13.5q11 0 52 -10q55 -12 104 -13l8 17q-57 0 -119.5 -11.5t-126.5 -29.5zM96 1190l19 2q31 0 78 -5t53 -5q35 0 59 8l258 -510q33 133 47 199q74 313 80 335h211q-155 -595 -309 -1191h-205l70 436zM115 1151q31 -94 73 -201q16 -39 86 -196 q-82 154 -114.5 238.5t-44.5 158.5zM293 731l14 -33q37 -55 86 -125q37 -63 37 -196q0 -41 -41 -205q-18 -74 -18 -121l-33 -31l49 244q0 2 12.5 15.5t16.5 35t6 63.5t2 81q0 53 -53 139q-70 113 -78 133zM322 1206l32 8q0 -27 2 -42t15.5 -39.5t46.5 -92.5q27 -57 39 -104 q6 -39 20 -66q8 -18 39 -65q12 -20 29 -86l-109 180q-2 4 -14 16.5t-14 22.5q-20 68 -41 142.5t-45 125.5zM354 0q33 -4 92.5 -14.5t106.5 -14.5q-76 0 -168 -10zM498 0h92v-8zM561 782v80l53 160zM594 784l57 349q0 4 11.5 23.5t11.5 33.5l-4 49q127 16 241 16l39 -41 q-123 25 -254 25h-39q2 -12 -18.5 -158.5t-44.5 -296.5zM608 -49q0 53 25 131q18 61 49 129q-43 -131 -74 -260zM682 240q2 20 10 48.5t17 55.5q39 123 79.5 289t67.5 285q57 250 66 282l-68 -407l-45 -95q-55 -135 -74 -204q-26 -96 -26 -203v-8l8 -39z" />
<glyph unicode="z" horiz-adv-x="960" d="M102 45v170q7 37 15 74q2 12 2 41v67l6 -112q0 -68 -5 -129.5t-18 -110.5zM111 1157q2 6 9 22.5t15 32.5q68 0 197 6.5t192 6.5q121 -14 242 -29q-29 0 -406 14q-109 4 -241 4zM129 1012q8 25 8 37q0 6 4 24v41v41l4 -115l-2 -131q-22 26 -22 63q0 15 8 40zM127 127 q78 -18 160 -23.5t198 -5.5h119q12 0 164 15q43 4 96 4l2 22l17 -24q-6 2 -35 2q-55 0 -389 -25q-139 -10 -185 -10q-4 0 -46 5t-68 5zM135 219q0 23 2 64t6 53q31 74 199 317.5t233 315.5h-415v211l106 2q86 0 220.5 -5t154.5 -6h102q45 6 66 9v-236l-420 -612h436v-211 l39 4q-131 0 -266 -2t-268 -4h-80l-107 2q-4 25 -6 47t-2 51zM137 430q106 121 202.5 252t176.5 260l-14 2q-51 -80 -61.5 -97.5t-88.5 -158.5q-29 -55 -86 -141q-45 -68 -90 -135zM156 958q72 0 127 -7t145 -25l-141 2q-16 0 -60.5 -4t-46.5 -4q-2 8 -7 15t-17 23zM426 385 q29 39 55.5 76t57.5 71q98 111 198 224q14 20 31.5 64t26.5 63q-39 -45 -99 -150q-35 -59 -59 -94q-45 -61 -92 -128t-76 -128zM463 348q72 16 112 23q76 14 111 14t94.5 -5t69.5 -5q8 -18 8 -47q0 -23 -6 -72t-6 -76q0 -25 2 -37q-4 10 -5 42t-1 40v84q0 25 -11 43z M819 1163l17 49q0 -53 -2 -86q-8 -131 -9 -143z" />
<glyph unicode="{" horiz-adv-x="876" d="M55 823l133 11v102q0 90 5.5 157.5t21.5 98.5l-22 -379l-113 -8q0 -84 2 -170l4 -172l131 -35l-2 -244q0 -27 4 -52.5t10 -51.5q-25 59 -36 149t-11 170l-116 43zM90 786l125 23q0 33 -1 65.5t-1 67.5q0 152 22.5 228.5t65.5 132.5q-4 -27 -22.5 -82.5t-38.5 -114.5 q0 -25 5 -71t5 -56l-6 -186l-133 -19l8 -280l123 -13q-6 -61 -6 -127q0 -98 11 -180t38 -160q-31 63 -44.5 151.5t-13.5 186.5v56q4 35 4 49q-45 0 -70.5 3t-60.5 13zM127 510l4 256l139 10l-6 266q0 219 136.5 337t359.5 118q-8 -20 -10 -39.5t-2 -46.5q0 -31 6 -92.5 t6 -85.5q-154 0 -209 -113q-37 -76 -37 -246v-98l-100 -53l6 -102l98 -76q0 -27 -1 -54.5t-1 -54.5q0 -166 35 -235q55 -109 209 -109q14 -27 14 -63q0 -49 -6 -109.5t-8 -93.5q-334 0 -432 190q-62 122 -62 484q-61 0 -139 10zM309 -20q74 -63 107 -86q78 -58 121 -64 l243 -39h-123.5t-124.5 -2q-8 0 -16 5t-16 9l-68 27q-33 20 -70.5 66.5t-52.5 83.5zM319 1321q47 86 60 106q55 88 90 89q18 0 57 6t58 6q27 0 84 -7.5t77 -7.5q-190 0 -245 -26q-35 -16 -90 -74q-45 -47 -91 -92zM434 705l8 -72q35 -23 65 -51.5t60 -67.5q0 -121 3 -187.5 t16 -154.5q0 39 6 94q14 131 14 164l-4 100l-133 117l-8 39l143 80v123l-6 262l-37 -45l2 -315zM614 186l39 -47l115 -12l20 39zM621 1157l14 27q47 16 82 24.5t80 8.5q0 -6 -17 -21q-4 -4 -18 -14l-45 -6zM780 1522l27 -60q2 -20 2 -41.5v-42.5v-110l-25 -43q0 49 5.5 133 t5.5 100zM791 66l8 45q6 -57 12 -110.5t6 -78.5t-6 -57.5t-12 -63.5q0 18 -4 55.5t-4 57.5v152z" />
<glyph unicode="|" horiz-adv-x="475" d="M80 256v430q0 158 7 433.5t7 355.5q0 -141 15 -545q10 -234 10 -326l-4 -751q-16 43 -25.5 183t-9.5 220zM82 1520l43 -7q6 0 20.5 9.5t22.5 9.5l203 6l-242 -53zM96 -188l64 16q43 0 94 -7.5t102 -13.5l29 -28q-72 0 -149.5 6t-139.5 27zM121 887v110q0 80 4 264.5 t4 194.5q0 -102 16.5 -309t16.5 -309q0 -117 -6 -279q-14 -371 -15 -469q-8 111 -14 304.5t-6 492.5zM158 -168q0 209 4 692.5t4 511.5l-8 414h178v-1618h-178zM213 1477l147 24l46 -24l-113 -2zM352 674q0 -168 7.5 -462t7.5 -378q0 98 22 420q10 160 10 252q0 150 -4 501 t-4 373l-31 54q0 -131 -4 -436.5t-4 -323.5z" />
<glyph unicode="}" horiz-adv-x="913" d="M72 1395q0 25 6 57.5t12 63.5q0 -18 4 -55.5t4 -57.5v-100q0 -56 -8 -97q-6 57 -12 110.5t-6 78.5zM78 49l24 43q0 -39 -4 -133t-4 -100l15 -64l-29 60q-2 20 -2 44.5v39.5v110zM92 100q0 6 17 21q4 4 18 14l45 6l96 19l-14 -27q-47 -16 -82 -24.5t-80 -8.5zM100 1151 l174 -21l-38 48l-115 12zM109 1526h30h27h24h74t74 2h18q8 0 16.5 -5t16.5 -10l68 -26q33 -20 70.5 -66.5t52.5 -83.5q-96 78 -109 86q-78 58 -119 64zM113 1288q0 39 7 110.5t7 92.5q252 0 374 -112.5t122 -362.5v-199h47t92 -10q0 -41 -2 -127t-2 -129l-140 -10l5 -267 q0 -223 -140 -342q-131 -113 -356 -112q8 18 11 36.5t3 49.5q0 25 -7 88t-7 90q156 0 211 109q37 72 37 241q0 27 -1 53.5t-1 53.5l102 53l-6 102l-98 76v53.5t2 55.5q0 209 -62.5 276.5t-183.5 67.5q-14 27 -14 63zM143 -197q188 0 244 27q35 14 92 74q45 47 90 92 q-47 -86 -59 -107q-55 -88 -90 -88q-18 0 -57 -6t-58 -6q-27 0 -59 4q-83 10 -103 10zM283 551l8 -385l37 45l-2 315l129 86l-9 72q-35 25 -67 55q-16 14 -60 64q0 137 -3 191.5t-13 150.5q0 -39 -6 -94q-14 -131 -14 -164l4 -101l133 -116l8 -39zM588 14q4 31 31.5 110 t27.5 83q0 31 -2 49q-8 76 -8 82q0 33 4 107.5t4 78.5l133 19l-8 280l-123 13q6 61 6 127q0 98 -11 180t-38 160q31 -63 44.5 -151.5t13.5 -186.5v-56q-5 -35 -5 -49q45 0 71 -3t60 -13l11 -314l-125 -22v-66.5t2 -66.5q0 -152 -22.5 -228.5t-65.5 -132.5zM659 1237 q25 -59 36.5 -149.5t11.5 -169.5l116 -44l11 -380l-134 -11v-80q0 -100 -5 -170.5t-21 -107.5l20 379l115 8q0 84 -2 170l-4 172l-131 35l2 244q0 27 -5 52t-10 52z" />
<glyph unicode="~" horiz-adv-x="1341" d="M72 1325q10 18 24.5 39.5t18.5 38.5q78 35 136 51t144 21l56 4l133 -19l153 -53q-35 -2 -148.5 32t-207.5 48q-2 0 -26.5 -5t-37.5 -5q-63 -23 -99 -39.5t-73 -40.5q-8 -6 -26 -27q-43 -41 -47 -45zM74 1286l59 -76q18 -53 60 -116q-47 45 -71 77.5t-38 55.5zM92 1303 q51 72 134 104.5t182 32.5q72 0 313 -49q121 -25 190 -25q55 0 113 37q41 27 90 80l115 -180q-66 -66 -146 -102t-168 -36q-84 0 -182 21q-248 51 -303 51q-76 0 -131 -27.5t-92 -89.5zM229 1092q10 25 35 59.5t49 62.5l35 -14q4 -2 24.5 -3t28.5 -1l-73 -25 q-53 -37 -99 -79zM420 1188q35 10 70.5 11t70.5 1h53l27 -39q-37 16 -95.5 21.5t-125.5 5.5zM645 1176q49 -6 103 -13.5t81 -13.5q16 -4 51 -23.5t46 -23.5q-66 16 -140.5 34.5t-140.5 39.5zM768 1411q23 2 64.5 -4t101.5 0l74 18l-35 -26l-66 -15l-96 9zM946 1106v29 q45 0 111 32q186 86 203 93l-127 -68l-52 -37q-68 -25 -135 -49zM1008 1458l34 8l113 68l-119 -100zM1143 1481l6 39l29 -50q33 -51 50 -85.5t32 -73.5q-18 10 -50 55q-20 31 -39 59z" />
<glyph unicode="&#xa1;" horiz-adv-x="694" d="M94 459q57 0 145.5 4t100.5 4l192 -2l-51 -25l-368 -12zM100 -369h133l261 -6l55 -31q-133 2 -235.5 10.5t-213.5 26.5zM102 0l4 -338h44l2 401q0 59 -5.5 176t-5.5 177q-20 -100 -29.5 -201.5t-9.5 -214.5zM106 592l11 356l33 -16l-3 -164q0 -33 4.5 -89t4.5 -67z M117 559q111 47 257 52t242 5l-65 -43q-20 2 -63.5 7.5t-63.5 5.5q-51 0 -191 -19q-77 -8 -116 -8zM129 979l381 43l57 -33q-35 0 -86 -4q-120 -14 -147 -14zM170 784q0 82 12 166l353 -4l-3 -319q-90 10 -122.5 11t-69.5 1q-72 0 -160 -8q-12 78 -10 153zM172 2q0 70 7 207 t7 207q80 -10 113 -11.5t53 -1.5q74 0 170 9q0 -63 -8 -195.5t-8 -181.5q0 -66 2 -144q10 -195 10 -243q-68 25 -133 24q-39 0 -95.5 -7t-107.5 -13q0 57 -5 174t-5 176zM545 8v25q0 37 1 69.5t1 61.5q2 25 2 51.5t-2 54.5q0 53 4 98.5t20 82.5q14 -84 22.5 -154t6.5 -133 q0 -88 -15.5 -266.5t-17.5 -266.5q-12 41 -18 136.5t-4 185.5v31v24zM549 971l26 10q14 -63 20.5 -157.5t4.5 -168.5q-8 -4 -22.5 -15t-20.5 -13l4 184q0 27 -6 80t-6 80z" />
<glyph unicode="&#xa2;" horiz-adv-x="1320" d="M76 362q0 82 26 242q20 123 43 248q0 -78 -14 -199q-33 -278 -33 -331l80 -226l119 -76l-152 70zM111 850l153 147q-33 -23 -51 -34q-35 -25 -49 -37zM129 492q0 258 72 362q88 129 336 129q-8 37 -9 57q0 25 9 66l139 4h45t49 -4v-123q154 0 272 -88q129 -96 129 -246 q-68 -12 -135 -12q-33 0 -71.5 4t-79.5 8q0 63 -24.5 85t-90.5 22q-14 -121 -14 -256q0 -61 3 -132t11 -155h14q57 0 84 31.5t27 89.5q37 4 77 8t70 4q63 0 129 -12q0 -190 -106 -268q-94 -70 -295 -70v-107h-233q-12 31 -13 54q0 23 13 53q-258 0 -342 125q-66 98 -66 371z M188 899q49 39 135 70t160 37l17 65v68l-58 -121l-159 -29zM336 -18l147 -35l6 28zM401 483q0 -25 5.5 -60.5t10.5 -85.5t13 -73q20 -51 80 -51h27q-6 72 -10.5 142.5t-4.5 144.5q0 135 15 256h-27q-59 0 -80 -56q-8 -23 -15 -92t-14 -125zM492 705l14 -449l6 467zM518 -125 l225 -6l58 18zM543 1165l229 -26h-201zM772 315l23 -53l18 436l-18 -141q-23 -170 -23 -242zM807 -39l237 47q70 72 120 168t50 186l35 -18l-84 -223q-100 -80 -198 -158l-154 -41zM807 1030l225 -78l182 -276q-35 78 -53 117q-32 67 -63 110l-125 109zM860 637l348 6 l-264 -53zM872 381h383l-329 -21z" />
<glyph unicode="&#xa3;" horiz-adv-x="1232" d="M84 555l20 72l134 -31h-107l-25 -104q0 -25 6.5 -76t6.5 -78q-16 90 -25.5 146.5t-9.5 70.5zM98 59l19 41v-206zM131 -172q180 23 322.5 30t355.5 7q125 -18 250 -37h-928zM133 473q0 49 21 90q18 -4 34.5 -6t38.5 -2q16 0 37 3t31 5q-33 66 -63.5 136.5t-30.5 140.5 q0 203 131 280q100 59 319 60q109 0 203 -43q115 -53 133 -148q-110 -82 -176 -188q-27 74 -85 109.5t-140 35.5q-49 0 -79 -43t-30 -98q0 -47 21 -94q33 -74 65 -148q72 -14 158 -14q51 0 112.5 6t96.5 8q-12 -43 -12 -90q0 -51 12 -100h-355q0 -70 -9 -127.5t-38 -104.5 q84 -8 195 -8q61 0 201.5 4t150.5 4q-8 -61 -9 -87.5t-1 -41.5q0 -59 10 -135h-940q6 47 6 94q0 55 -6 111q94 31 137 108.5t43 182.5h-161q-20 43 -21 100zM158 856l53 231l68 62q-37 -47 -57.5 -139t-20.5 -170l41 -170zM174 119l113 168l-101 51l113 6l-14 -125z M354 1167l49 35l371 12q-92 0 -204.5 -13t-215.5 -34zM492 766l12 96l82 60l125 -48l-125 9l-62 -68l33 -186zM563 152l70 20l502 -6l-29 -29zM586 352q35 0 96.5 -7t77.5 -7h172q0 94 3 138t19 104v-267l-342 -2zM662 594l206 -12q-31 -4 -69.5 -7.5t-53.5 -3.5zM813 1194 l113 -6l100 -107l-8 -135q-41 -43 -93.5 -86t-99.5 -67q61 53 108.5 108t86.5 121l-100 127zM1075 141l64 -223q0 -16 -6.5 -42t-10.5 -48z" />
<glyph unicode="&#xa4;" horiz-adv-x="1316" d="M61 102l27 4l88 -61l68 -53l-15 -27q-43 35 -85 69.5t-83 67.5zM74 145q20 10 39.5 20.5t27.5 16.5q29 16 56.5 32.5t44.5 27.5q2 2 4 3t4 3q4 2 12 10q8 4 17.5 8t19.5 15q-33 51 -56.5 117.5t-23.5 129.5q0 131 64 236q-33 31 -66 61.5t-65 61.5q-14 6 -26 13t-22 15 q23 33 40.5 51.5t35 33t39 27.5t51.5 36l15 14q55 -45 80.5 -66.5t39 -32.5t21.5 -21.5t31 -34.5q41 18 94 30.5t104 12.5q59 0 111.5 -13.5t103.5 -44.5q29 33 60 63.5t61 63.5q6 8 20.5 23.5t22.5 23.5l164 -127q12 -10 -5 -29.5t-44 -40t-53.5 -38t-32.5 -23.5t-14 -10 q-4 -2 -7 -4l-2 -2q-4 -2 -7 -3t-7 -5q-6 -6 -18 -15q39 -53 60.5 -118.5t21.5 -137.5q0 -59 -15.5 -114.5t-44.5 -108.5q25 -16 37 -33q25 -23 52.5 -49t49.5 -49q51 -29 40 -42t-58 -42q-10 -6 -18 -12q-8 -4 -16.5 -11.5t-16.5 -11.5q-8 -6 -16.5 -14t-12.5 -12l-61 -43 l-105 82q-23 16 -41 38q-4 4 -10 11.5t-8 11.5q-2 2 -2 4q-43 -23 -90 -31t-99 -8q-127 0 -225 62q-18 -23 -40.5 -46.5t-45.5 -46.5q-16 -16 -36.5 -37.5t-33.5 -35.5q-43 35 -67.5 54t-39.5 30.5t-25.5 17.5t-20.5 14q-8 4 -17.5 11.5t-29.5 27.5zM74 936q33 -43 47 -51 q37 -31 63 -56l43 -57l-10 -20q-4 6 -8 10q-12 14 -41 36.5t-39 37.5zM76 160l192 137l15 -16q-70 -37 -105 -58q-47 -23 -102 -63zM78 969q43 33 85 66.5t83 68.5l16 -25l-69 -53l-89 -61zM169 532.5q-7 67.5 3 98.5q10 41 41 98q39 37 51 35q-41 -63 -55 -94 q-16 -41 -12 -113q2 -39 3 -54.5t3 -25.5q47 -217 29.5 -186t-42.5 141q-14 33 -21 100.5zM281 -47q41 55 49 67q31 39 55 64l55 43l21 -12q-4 -4 -8 -6q-14 -10 -37 -39t-37 -39zM281 1102l151 -96l-16 -13q-53 47 -78 74q-39 35 -57 35zM381 528q0 -104 80 -190 q82 -78 194 -78q111 0 193 78q78 82 78 190q0 113 -78 195q-80 80 -193 80q-115 0 -194 -80q-80 -84 -80 -195zM403 492l33 -48q37 -61 62.5 -84.5t95.5 -54.5l29 -24q-74 23 -106 47t-87 90zM408.5 509q1.5 23 11.5 130q12 23 43 49.5t51 40.5q20 20 59 39q39 10 58 14 l-13 -14q-47 -23 -69 -31q-25 -14 -55 -51q-29 -18 -56 -55q-31 -145 -29.5 -122zM432 965q20 10 47 16q61 12 129 25q39 2 76 2l76 -13q-39 -10 -76 -13t-88 -3q-29 0 -52.5 -7t-56.5 -20q-16 -6 -30 -14zM467 94l6 12q20 -8 41 -12q104 -27 162 -28q-12 2 -29 6 q-27 0 -55.5 -2t-46.5 2q-14 0 -72 20q-4 0 -6 2zM633 297h102l60 18l-17 -18l-90 -14zM651 776l88 -4l72 -24l16 -23l-65 29l-78 12zM676.5 757q23.5 -5 124.5 -36q23 -14 39 -45t26 -51q14 -18 25 -58v-49l-10 14q-12 43 -15 66q-8 23 -37 55q-10 25 -41 54 q-135 55 -111.5 50zM754 72q10 8 53 20q20 8 35 12l8 -16q-12 -10 -25 -20zM784 983l60 -8q8 -6 33 -17l-21 -18l-29 12zM805 332l57 49l-37 -47zM854 696q39 -53 51 -114zM860 49l8 21q6 -6 11 -9q14 -14 44.5 -32.5t43.5 -32.5l55 -74q-27 18 -41 27q-41 27 -72 47z M866 979q6 4 11 8q14 12 36.5 41t36.5 39l80 45q-23 -23 -31 -37q-31 -37 -55 -63l-57 -43zM872 432q4 14 15.5 43t13.5 43l8 39q2 -18 -3 -48t-11 -60l-18 -62zM1036 780q57 41 88 60q43 31 95 78l-175 -156zM1047 -16l67 53l88 61l27 -4q-43 -33 -84 -67.5t-84 -69.5z M1059 721q-2 16 19.5 -5.5t47 -92t19.5 -162.5q-29 -88 -77 -140.5t19 50.5q31 70 29 133q-27 197 -57 217zM1067 295l16 24q39 -39 78 -76.5t76 -74.5l-27 -2l-82 70zM1069 1081l14 25q43 -35 85 -68.5t83 -66.5l-26 -4l-88 61z" />
<glyph unicode="&#xa5;" horiz-adv-x="1415" d="M8 1227l60 24q33 0 161 -12q29 -2 52 -4q-127 -8 -273 -8zM16 1176l97 -74q27 -31 98 -170q45 -90 92 -180q-86 145 -133 217q-78 119 -154 207zM94 1214q49 -6 92 -10t88 -4q76 0 148 14l287 -475q61 131 141 258q63 100 172 242h330l-484 -891q23 -2 47 -4q2 0 7 -2 q-6 72 182 371q125 231 252 463q-25 -68 -47 -136q-55 -117 -107 -194q-14 -49 -96 -195q-63 -113 -145 -276q-2 -18 -3 -35q123 -6 158 -8l-160 -2q0 -12 -2 -23h162v-90h-168q-2 -6 -2 -10q166 -2 180 -12q-49 0 -182 -2q-4 -37 -18 -78q152 -8 190 -11l-194 -4l-9 -20h21 q0 4 2 6q0 -4 -2 -6h182v-90h-190q-2 -4 -2 -8q186 -4 202 -15q-55 0 -202 -2l-2 -26q-6 -84 -7 -154q-10 39 -10 92q0 43 4 86h-24q-4 -72 -17 -129h-319v125h-31q-2 -59 -4 -115l-49 -14q4 72 12 131q-12 2 -20 2q-102 6 -125 21h151q0 6 2 10l-184 2l-4 47q0 16 1 24.5 t3 14.5h197l2 14l-170 -2l-25 29h197q2 35 2 63q-29 2 -47 4q-102 6 -125 21h172q-2 4 -2 10l-201 2l-4 47q0 16 1 24.5t3 14.5h184q-2 4 -4 13h-151l-25 28h166l-47 146q-63 131 -98 174q63 -74 139 -209q23 -55 35 -111l45 2zM254 33q0 16 4 37.5t8 33.5l19 23l-4 -76 q0 -41 6 -74l-23 -10q-6 33 -10 66zM254 260q0 16 4 38t8 34l19 22l-4 -75q0 -41 6 -74l-23 -10q-6 33 -10 65zM281 1235q90 -6 131 -6l14 20q-70 -8 -145 -14zM324 674q2 -2 2 -4q0 2 -2 4zM471 1210q35 -70 64 -116q14 -27 67 -105q-4 11 -8 23q-70 166 -70 209zM498 -188 q78 -10 157 -21q68 -10 131 -12q-31 -2 -92 -4q-94 -6 -149 -6zM508 322q2 -7 2 -13h39v15zM520 -6v-10h29v10h-29zM522 211h27v10h-27v-10zM524 82h25v14h-25q-2 -8 0 -14zM524 123h25v63h-25v-16v-47zM602 989q4 -2 6 -6l-2 2q12 -27 41 -70q31 -47 47 -53q16 0 73.5 84 t80.5 84q-51 -76 -76 -112q-47 -70 -72 -117q-35 41 -98 188zM606 985v6v-6zM721 -188h145l-2 -15zM870 328q0 -8 2 -21h54l2 19l-4 4zM881 190q2 -36 2 -71q14 -2 30 -2l5 73h-37zM881 209h39v8h-39v-8zM885 -10v-8h28v8h-28zM885 80h26v20h-26v-20zM893 1108q14 -2 47 44 t33 65l-8 49h-21q6 -29 -16 -82q-6 -14 -35 -76zM969 1266q102 10 161 12q61 4 213 4l60 -43q-104 16 -196.5 21.5t-227.5 5.5h-10zM1124 121l37 -2v-133l-22 -21l4 115zM1124 348l37 -2v-133l-22 -20l4 114z" />
<glyph unicode="&#xa6;" horiz-adv-x="528" d="M121 20q0 74 7 204t7 169q0 -66 15 -260q8 -108 8 -151l-4 -357q-14 20 -23.5 87t-9.5 106v202zM121 836v202q0 74 7 204t7 169q0 -66 15 -260q8 -109 8 -152l-4 -354q-14 18 -23.5 86t-9.5 105zM123 414l41 -2q6 0 19.5 3t19.5 3l190 6l-225 -25zM123 1432l41 -2 q6 0 19.5 4t19.5 4l190 4l-225 -25zM137 -395l60 6q39 0 88 -2t94 -6l27 -13q-66 0 -138.5 3.5t-130.5 11.5zM137 623l60 8q39 0 88 -3t94 -7l27 -13q-66 0 -138.5 4t-130.5 11zM160 117v49q0 39 4 127t4 92q0 -51 14.5 -148.5t14.5 -144.5q0 -57 -4 -129q-14 -180 -15 -223 q-6 51 -12 142t-6 235zM160 1135v51q0 37 4 125t4 92q0 -49 14.5 -146.5t14.5 -146.5q0 -57 -4 -129q-14 -180 -15 -223q-6 53 -12 144t-6 233zM195 383h165v-766h-165q0 96 3 326.5t3 244.5zM195 635q0 96 3 326.5t3 244.5l-6 195h165v-766h-165zM246 395l137 13l43 -13 l-104 -2zM246 1413l137 12l43 -12l-104 -2zM375 14q0 -78 7 -217t7 -180q0 45 21 199q10 78 10 121q0 70 -4 235.5t-4 175.5l-29 25q0 -61 -4 -205.5t-4 -153.5zM375 1034q0 -80 7 -219t7 -180q0 45 21 199q10 78 10 120q0 70 -4 236t-4 178l-29 23q0 -61 -4 -206t-4 -151z " />
<glyph unicode="&#xa7;" horiz-adv-x="1044" d="M82 477l22 12l46 -176q-31 35 -46.5 84t-21.5 80zM96 530q18 113 47 181q6 10 33 65q-33 -86 -37 -119q-8 -51 -8 -114q0 -16 8 -64q17 -94 25 -114q-20 49 -35.5 93t-32.5 72zM96 1008q18 111 47 178t95 131l38 41l132 63l198 -14q-33 0 -167 -20.5t-230 -61.5 q-2 0 -14.5 -25.5t-24.5 -31.5q-23 -82 -31 -133.5t-8 -116.5q0 -16 8 -62q35 -202 4 -67q-31 88 -47 119zM111 2l24 12l4 -213q-2 23 -12 96.5t-16 104.5zM141 63l226 -4q-16 0 -73 -12t-63 -12zM141 541h6v22q0 104 27 176l14 31q4 6 7 12q-4 12 -15 31q-33 88 -33 227 q0 205 109 283q86 59 281 59q203 0 278 -67q88 -78 88 -299q-27 8 -58.5 12t-60.5 4q-20 0 -47.5 -4t-54.5 -12q0 102 -86 102h-152q-49 0 -67.5 -26.5t-18.5 -87.5q0 -43 23 -72l27 12l204 -6q-39 -8 -174 -29q-10 0 -20 -4l12 -4q51 4 111 4q199 0 280 -74q76 -66 82 -260 q4 -43 4 -94q0 -152 -37 -235q37 -94 37 -240q0 -229 -88 -305q-70 -64 -289 -64q-227 0 -301 72q-82 78 -82 330q31 -4 68 -8t59 -4q51 0 84 12q0 -76 19.5 -105.5t83.5 -29.5h137q53 0 71.5 30.5t18.5 98.5q0 31 -18 77q-35 55 -121 64q-217 18 -260 39q-82 43 -117 153 q-25 49 -25 150v27zM147 -236l46 -69q33 -8 52 -17.5t42.5 -18.5t58.5 -18.5t103 -23.5q-63 0 -158 27q-57 6 -103 34q-23 14 -36 38t-5 48zM154 340l82 -104q-2 -37 117.5 -69t-62.5 -32q-59 59 -83 91t-44 44zM358 528q0 -115 179 -125q72 -4 122 -12q7 9 11 15 q18 31 18 98q0 20 -4 37h-2v14q-20 74 -113 88h-125q-12 0 -22 -2l-16 -6q-20 -6 -31 -21q-16 -27 -17 -86zM377 477l6 66l23 -43zM377 954l6 64l23 -43zM379 586l37 30l108 9h58l43 -23q-12 -2 -29 -4q10 -8 20 -14q35 -29 66 -58l-14 -41q-2 -6 -3 -29.5t-1 -33.5l-27 86 q-29 47 -59 88q-8 -4 -21 -4q-43 -6 -76 -6h-102zM381 1057l37 30l108 9h58l43 -23q-23 -2 -67 -9t-77 -7h-102zM408 -43h57q63 0 103 -4t79 -14q-18 -10 -72 -17h-73l-64 6zM408 465h57q63 0 103 -3t79 -13q-18 -12 -72 -17h-73l-64 4zM483 -379l123 -6q49 14 96.5 18.5 t90.5 34.5l32 -47l-282 -29zM520 1440q51 -8 106.5 -16.5t82.5 -14.5q16 -6 52 -28.5t46 -26.5q-68 18 -143.5 39.5t-143.5 46.5zM537 152q25 -10 60.5 -39t66.5 -60l-17 -39q-2 -6 -3 -29.5t-1 -33.5l-25 86q-37 63 -81 115zM557 924l66 6q72 -14 145 -29l-55 -4zM678 1001 q35 12 71.5 13.5t71.5 1.5h56l26 -45q-37 18 -96 24t-129 6zM791 891l92 -74l-13 -16zM831 -348l31 26q27 98 37 160t10 139l29 9l6 -82q0 -27 -47 -129.5t-66 -122.5zM848 1337l61 -106l-16 -10zM893 756l12 55q-4 -14 8 -80q9 -33 9 -47q0 -6 -4.5 -30.5t-8.5 -63.5 q-4 53 -8 98t-8 68zM893 1231l12 55q-4 -14 8 -78q9 -35 9 -49q0 -4 -4.5 -29.5t-8.5 -62.5q-4 51 -8 97t-8 67zM899 313.5q10 61.5 10 141.5l29 6l6 -82q0 -25 -27.5 -76t-17.5 10.5zM905 217l23 -10q4 -98 -2 -213zM920 535l41 104l-27 -111zM920 1012l41 102l-27 -110z " />
<glyph unicode="&#xa8;" horiz-adv-x="835" d="M47 1419l39 25q66 0 132.5 -1t131.5 -1q-16 0 -55 -8.5t-57 -8.5q-31 0 -94.5 -3t-96.5 -3zM55 1397q6 2 14.5 8t12.5 8l-2 -108q0 -14 4 -46t4 -47l-16 -6q-8 37 -12.5 92.5t-4.5 98.5zM78 1202q23 0 55 2q74 8 92 8l119 -2l-231 -28zM96 1227v186q51 -6 70.5 -6h42.5 q47 0 104 6q4 -20 5 -52t1 -34q0 -18 -1 -34.5t-5 -65.5h-217zM328 1423l28 13l-4 -209l-18 10v96q0 18 -3 51t-3 39zM473 1419l39 25q66 0 132.5 -1t131.5 -1q-16 0 -55 -8.5t-57 -8.5q-31 0 -94.5 -3t-96.5 -3zM483 1397q4 2 12.5 8t12.5 8v-108q0 -14 3 -46t3 -47l-16 -6 q-8 37 -11.5 92.5t-3.5 98.5zM504 1202q23 0 55 2q74 8 92 8l121 -2l-233 -28zM522 1227v186q53 -6 72.5 -6h40.5q47 0 106 6q2 -20 3 -52t1 -34q0 -18 -1 -34.5t-3 -65.5h-219zM754 1423l28 13l-4 -209l-18 10v96q0 18 -3 51t-3 39z" />
<glyph unicode="&#xa9;" horiz-adv-x="899" d="M55.5 1094.5q0.5 51.5 10.5 76.5q10 31 38 72q33 27 50 43l-7 -18q-35 -47 -51 -70q-14 -31 -18 -86q0 -31 -1 -43t-1 -18q20 -174 9 -149.5t-22 112.5q-8 29 -7.5 80.5zM88 1055q0 147 102.5 249.5t249.5 102.5t250 -102.5t103 -249.5t-102.5 -250t-250.5 -103 q-147 0 -249.5 103t-102.5 250zM121 881q25 -47 39 -76q28 -50 51 -70q8 -8 53 -25.5t55 -17.5q14 -2 37 -1t43 1q12 -2 23 -4q-45 2 -127 22.5t-127 39.5q-16 25 -29 63q-6 20 -18 68zM162 1055q0 -113 82 -195t196 -82q115 0 196 81t81 196t-81 195.5t-196 80.5 t-196.5 -79.5t-81.5 -196.5zM166 1309q45 45 65.5 72.5t68.5 38t101 18.5q29 2 60 2l57 -8q-29 -8 -58.5 -11.5t-68.5 -3.5q-23 0 -41 -5t-43 -15q-39 -14 -50 -22.5t-38 -31.5zM178 1108l25 74l-4 -62q-12 -66 -7 -100.5t35 -97.5l6 -37q-39 59 -49 98t-6 125z M207.5 1096.5q1.5 19.5 9.5 101.5q8 18 33 39t41 33q16 14 47 30q29 6 45 11l-10 -11q-37 -18 -56 -24q-18 -12 -43 -41q-23 -14 -43 -43q-25 -115 -23.5 -95.5zM260 1116q0 37 8 55q6 20 27 50q23 18 35 30l-4 -12q-25 -35 -37 -49q-10 -23 -13 -62q0 -23 -1 -30.5 t-1 -12.5q14 -123 6 -105.5t-14 79.5q-6 20 -6 57zM262 1004l12.5 -25t8.5 -27q2 -16 5 -21t3 -9q0 -2 -2 -6.5t-2 -6.5q0 -6 16 -26q10 -10 14 -15v21l-32 26q-6 23 -13.5 45.5t-9.5 43.5zM289 1063q0 94 14 129q25 59 103 59h49q74 0 98 -30q20 -29 20 -105h-16 q-6 0 -19.5 -1t-21.5 -1l-18 2q0 37 -21 45q-12 6 -55 6q-35 0 -49 -24q-10 -20 -11 -62q0 -14 1.5 -31.5t3.5 -37.5q0 -47 14 -58q12 -10 63 -10q29 0 41.5 10.5t12.5 40.5q12 6 24 6q6 0 20.5 -3t22.5 -3h8q0 -80 -22 -106q-24 -27 -102 -27h-35q-86 0 -111 60 q-14 35 -14 141zM332 858l2 14l84 -30l-78 14zM346 1251l29 19l49 -2l-41 -11zM373 1036q0 2 4 21q4 14 6 22v25v8l4 -59l-6 -72zM375 1114q0 4 2 10.5t2 8.5l2 6l2 8l8 2q-6 -23 -16 -35zM383 967l23 -9q6 2 37.5 3.5t48.5 9.5l-19 -19h-8l-51 2l-11 -4q-2 4 -10 8.5 t-10 8.5zM389 1313l68 10l59 -8l16 -17l-55 13l-61 -2zM401 1159l60 -2l8 -6q-8 0 -22.5 -2t-18.5 -2zM410 852l92 8l4 -12h-25q-14 0 -40.5 2t-30.5 2zM420 799h80l47 14l-12 -14l-72 -13zM430 1260q12 2 23 6q18 4 20 8q16 -4 40 -10.5t34 -10.5l14 -34l-2 32 q-31 6 -55.5 7.5t-73.5 1.5zM500 1008l69 2l-4 -6zM502 1112q18 0 37.5 -3t40.5 -5l-2 104q4 -33 6 -54t8 -48l-2 -10h-10q-12 0 -18.5 1t-22.5 3q-2 4 -18.5 7t-18.5 5zM520 858l15 6q8 6 14 8q-6 -8 -12 -14h-17zM524.5 1293q18.5 -5 96.5 -33q16 -12 29.5 -41.5 t21.5 -47.5q10 -18 18 -53v-45l-8 12q-8 39 -10 60q-6 20 -29 51q-8 25 -33 51q-104 51 -85.5 46zM539 1421l47 -8q6 -2 45 -20q37 -12 80 -35l34 -51q10 -20 11 -56l-54 92l-131 54zM541 696q8 6 44 17.5t40 13.5q18 14 43 37q16 16 43 41q-23 -29 -53.5 -58.5t-59.5 -54.5 zM547 872q4 6 14 17q6 6 12 16l11 -2zM573 922l9 22l-4 23l8 43v-92zM664 905l2 35q4 10 16 30.5t16 33.5l11 28q0 -14 -8.5 -36.5t-16.5 -45.5zM688 1161q20 -49 21 -96zM760.5 855q-39.5 -44 17.5 46q29 61 29 119q-12 178 -39 197q0 14 3 33.5t-1 43.5q31 -104 48 -168.5 t9 -146.5q-27 -80 -66.5 -124z" />
<glyph unicode="&#xaa;" horiz-adv-x="710" d="M80 948q33 -47 65 -92l-20 -16q-16 35 -27 59q-18 47 -18 51q0 68 53 158q25 39 51 82l-14 -57l-66 -66l2 -8q-10 -6 -18 -45t-8 -60v-6zM88 1237l33 -4l-15 -12q0 25 8.5 77t8.5 74l27 -6q-4 -6 -35 -86q-10 -29 -27 -43zM115 1004q0 82 37.5 123.5t117.5 41.5h142 q6 0 13 -5t11 -17q2 14 6 27.5t4 27.5q0 31 -21.5 45.5t-55.5 14.5h-50q-16 0 -34 -9q-8 -16 -13 -30q-39 8 -67 8q-18 0 -38 -1t-42 -7q0 98 47 136t147 38h48q117 0 163 -54q45 -49 45 -167v-392q-31 6 -67 7h-37q-19 -5 -27 -7l9 80q-25 -39 -50 -55q-29 -25 -71 -25h-68 q-94 0 -127 66q-23 45 -22 154zM135 788l2 43q35 -39 56 -55q16 -10 71 -39h25l51 -2q-25 6 -53.5 16.5t-44.5 10.5q-8 0 -22.5 -2t-18.5 -2q-16 0 -37 14t-29 16zM141 1399l64 8l-55 -27zM205 1407q72 20 143 39l-29 -27q-29 0 -57.5 -3t-56.5 -9zM207 1176q35 4 69.5 9 t63.5 5h90l-8 -14h-215zM242 965q0 -29 10 -43.5t37 -14.5h76q27 0 36 14.5t9 43.5v20q0 35 -4.5 54.5t-18.5 19.5q-23 0 -52.5 -5t-54 -10.5t-31.5 -28t-7 -50.5zM248 991l16 29l123 27l10 -17l-49 2l-76 -24l-16 -68zM272 1223l25 22l55 -12l-16 -8q-4 0 -21 6l-8 -2z M293 932l98 20l-4 -2l-43 -30zM313 756l52 20q45 0 111.5 -8t121.5 -20l-16 -21l-7 23q-53 8 -99 8h-95h-16h-23.5t-28.5 -2zM348 1419l55 17q74 -27 103 -39q72 -37 72 -66v-32t4 -42q0 -14 6 -165q2 -37 2 -99l-29 2q20 98 25 123q10 74 10 123l-2 115q-76 31 -121 45 q-68 18 -125 18zM401 745l5 3l2 -3h-7zM401 1233l11 8l6 -6zM588 868l2 4l6 23l2 -53v-13q-6 18 -10 39zM590 946l26 58q-8 -53 -18 -105l-2 -4z" />
<glyph unicode="&#xab;" horiz-adv-x="1142" d="M84 809l20 -78l-14 -49zM109 559l6 107l14 -86l330 -111zM113 825l30 29l246 76zM129 803l330 117l10 -121l-186 -107l202 -71l13 -132l-342 103zM330 702l166 72q-31 -20 -47 -33q-35 -23 -50 -28zM344 692q70 -16 197 -45l24 -96l-37 -68l-14 148zM485 940l39 -145 l-35 28zM573 809l21 -78l-14 -49zM598 559l6 107l14 -86l330 -111zM602 825l31 29l246 76zM618 803l330 117l10 -121l-186 -107l203 -71l12 -132l-342 103zM819 702l166 72q-31 -20 -47 -33q-35 -23 -49 -28zM834 692q70 -16 196 -45l25 -96l-37 -68l-14 148zM975 940 l39 -145l-35 28z" />
<glyph unicode="&#xac;" horiz-adv-x="1384" d="M66 694q4 0 53 -2t63 -2l791 -2l-6 -37q-313 61 -643 62h-119q-33 0 -53.5 -1t-83.5 -7zM102 922l7 -183l-5 197h154h227l-383 18v-32zM139 825q0 -25 4 -58.5t9 -59.5h845l-6 -203v-54.5t6 -58.5h213v520q-72 0 -241.5 4.5t-182.5 4.5q-111 0 -365.5 -4.5t-268.5 -4.5 q-8 -20 -10.5 -39.5t-2.5 -46.5zM168 924q147 0 334.5 10t395.5 20.5t316 10.5l-12 -13l15 -8q-61 -8 -179 -12t-250 -4q-121 0 -278.5 3t-339.5 5zM606 963h178l4 18l5 -4l-54 -8zM614 666l353 -35l6 22q-59 0 -178 6.5t-181 6.5zM817 969q72 14 144 26q37 0 112.5 -2 t112.5 -2l-246 -28zM946 428v66q0 29 10 53q16 29 25 47l-10 2l2 -43v-191zM989 385l12 -25h150q23 0 39 2q66 8 72 9l-5 -13q-127 18 -133 19q-72 8 -135 8zM1227 440q0 123 7 214t28 200l-2 -74v-235l6 -68zM1239 385l43 25q0 29 -7 101.5t-7 109.5q-6 -20 -11.5 -83 t-5.5 -106q0 -6 -6 -22.5t-6 -24.5zM1239 961l2 -164l21 129z" />
<glyph unicode="&#xad;" horiz-adv-x="1300" d="M102 782q0 27 5.5 69t11.5 81l24 26l-6 -204q0 -37 1 -71t7 -73l-28 -12q0 31 -4 68q-10 94 -11 116zM156 795q0 29 1 58.5t7 59.5h981v-256q-170 0 -565.5 4.5t-419.5 4.5zM162 592l4 35q23 -2 93.5 -11.5t107.5 -9.5h290q47 0 141.5 6t141.5 6l188 -4 q-88 -23 -161.5 -28.5t-206.5 -5.5h-55h-60q-152 4 -258 8t-225 4zM166 967q12 0 216 4t292 4q78 0 235.5 -16.5t235.5 -16.5l-955 -10zM190 651h371q403 0 491.5 -3t102.5 -13q-98 0 -324.5 -4t-244.5 -4q-29 0 -64 -1t-78 -1q-102 0 -166.5 5t-87.5 21zM1149 961l43 -3 v-333l-27 -27l4 309z" />
<glyph unicode="&#xae;" horiz-adv-x="966" d="M96 1094.5q0 51.5 10 76.5q10 31 39 72q33 27 50 43l-7 -18q-35 -47 -51 -70q-14 -31 -18 -86q0 -31 -1 -43t-1 -18q20 -174 9 -149.5t-22 112.5q-8 29 -8 80.5zM129 1055q0 147 102.5 249.5t249.5 102.5t250 -102.5t103 -249.5t-102.5 -250t-250.5 -103 q-147 0 -249.5 103t-102.5 250zM162 881q25 -47 39 -76q28 -50 51 -70q8 -8 53 -25.5t55 -17.5q14 -2 37 -1t43 1q12 -2 23 -4q-45 2 -127 22.5t-127 39.5q-16 25 -29 63q-6 20 -18 68zM203 1055q0 -113 82 -195t196 -82q115 0 196 81t81 196t-81 195.5t-196 80.5 t-196.5 -79.5t-81.5 -196.5zM207 1309q45 45 65.5 72.5t68.5 38t101 18.5q29 2 60 2l57 -8q-29 -8 -58.5 -11.5t-68.5 -3.5q-23 0 -41 -5t-43 -15q-39 -14 -50 -22.5t-38 -31.5zM219 1108l25 74l-4 -62q-12 -66 -7 -100.5t35 -97.5l6 -37q-39 59 -49 98t-6 125z M248.5 1096.5q1.5 19.5 9.5 101.5q8 18 33 39t41 33q16 14 47 30q29 6 45 11l-10 -11q-37 -18 -56 -24q-18 -12 -43 -41q-23 -14 -43 -43q-25 -115 -23.5 -95.5zM346 852l98 -4q-18 -4 -30.5 -6t-22.5 -2t-27.5 4t-17.5 8zM348 866q6 82 10 158t4 150v67l-6 -2 q6 -35 7.5 -54.5t1.5 -68.5q0 -14 -7 -162q-2 -41 -2 -88l-4 6zM350 1219q0 -43 4 -82t13 -93h-15q2 20 2 46v14v39.5v40.5q0 25 1 42t5 38zM367 858v391h122q68 0 93 -35q25 -29 24 -98q0 -41 -8 -57q-10 -23 -45 -35q59 -20 59 -78v-96q-6 -2 -20 -2h-17q-29 2 -30 2h-8 q0 6 1 23.5t1 25.5q0 35 -9 51q-14 25 -49 25h-39v-117h-75zM375 1257q20 2 57 3q18 0 43 -1.5t35 -3.5q-18 2 -44 2h-56h-35zM430 1313l68 10l59 -8l16 -17l-55 13l-61 -2zM449 967l4 -6l8 6q-8 -59 -8 -125l6 -2l-6 -6zM451 1067h43q23 0 30.5 11.5t7.5 33.5q0 18 -9 31.5 t-29 13.5h-43v-90zM453 1141l6 -4v-23q6 -37 6 -39l-6 -2l-2 2q-2 6 -2 15v14t2 12q0 16 -4 25zM459 1145v6l61 -6l-2 -4zM461 799h80l47 14l-13 -14l-71 -13zM469 969l41 -6l-8 -7zM473 1075l35 8l2 -6zM508 952l14 4q0 -23 5 -48l10 -50q-10 47 -29 94zM518 1079l2 51 q2 -6 2 -8zM520 1251l80 -20q2 -16 4 -38t2 -48v-51l4 -25v88l-2 19q-2 10 -2 22t-16 21q-14 8 -34.5 17t-35.5 15zM526 834v16l66 -14q-6 -2 -19.5 -2h-23.5h-23zM565.5 1293q18.5 -5 96.5 -33q16 -12 29.5 -41.5t21.5 -47.5q10 -18 18 -53v-45l-8 12q-8 39 -10 60 q-6 20 -29 51q-8 25 -33 51q-104 51 -85.5 46zM571 1024l35 29q-4 -6 -10 -11q-8 -10 -8 -14t11 -17.5t11 -17.5q-2 4 -18 15q-11 10 -21 16zM580 1421l47 -8q6 -2 45 -20q37 -12 80 -35l34 -51q10 -20 11 -56l-54 92l-131 54zM582 696q8 6 44 17.5t40 13.5q18 14 43 37 q16 16 43 41q-23 -29 -53.5 -58.5t-59.5 -54.5zM592 836l26 6v-11zM606 977l12 4q4 -6 5 -18q0 -10 -2 -19q-2 -25 -3 -29q0 -6 7 -28q2 -10 2 -21q0 -12 4 -14l-13 -18v23v24q0 27 -2 50t-10 46zM705 905l2 35q4 10 16 30.5t16 33.5l11 28q0 -14 -8.5 -36.5t-16.5 -45.5z M729 1161q20 -49 21 -96zM801.5 855q-39.5 -44 17.5 46q29 61 29 119q-12 178 -39 197q0 14 3 33.5t-1 43.5q31 -104 48 -168.5t9 -146.5q-27 -80 -66.5 -124z" />
<glyph unicode="&#xaf;" horiz-adv-x="1044" d="M82 1788q0 16 4 39.5t10 46.5l19 14l-4 -114q0 -20 1 -40t5 -44l-23 -7q0 18 -4 39q-8 53 -8 66zM125 1796q0 16 1 33.5t5 34.5h799v-146q-139 0 -459.5 2t-341.5 2zM131 1681l2 19q18 -2 76.5 -6t87.5 -4h235q39 0 116 3t114 3l156 -4q-74 -10 -133.5 -14.5t-168.5 -4.5 h-45h-47q-125 2 -211 5t-182 3zM133 1894q10 0 176 2t238 2q63 0 191 -9t192 -9l-776 -6zM154 1714h301q328 0 399.5 -2t83.5 -8q-80 0 -264.5 -2t-198.5 -2q-25 0 -52.5 -1t-62.5 -1q-82 0 -135 3t-71 13zM934 1890l35 -2v-190l-23 -15l4 177z" />
<glyph unicode="&#xb0;" horiz-adv-x="761" d="M111 1272q0 59 8 77.5t55 57.5q-16 -20 -27 -35q-18 -25 -18 -39q0 -43 7 -129t7 -127q0 -14 -3 -27.5t-5 -27.5q-24 127 -24 250zM143 1194q0 84 11 119q14 55 63 80q55 27 166 26q133 0 190 -45q54 -43 54 -139v-88q0 -84 -45 -125q-53 -51 -164 -51h-56 q-106 0 -157 39q-61 47 -62 184zM147 1006l5 47q4 -10 7 -18.5t9 -20.5l127 -53l74 2l6 -19l-80 8q-33 8 -92 31q-29 12 -56 23zM164 1374q29 14 50.5 28.5t47.5 31.5l76 -9q-10 -2 -46 -5t-42 -7q-10 -2 -43 -18q-16 -8 -43 -21zM270 1167q0 -68 31 -90q27 -18 86 -18 q63 0 86 19.5t23 64.5q0 16 2 45t2 62.5t-33 58.5q-27 23 -82 22q-80 0 -102 -45q-12 -25 -13 -90v-29zM283 1151l4 25l14 -82q-10 6 -14 23.5t-4 33.5zM289 1188l2 104l20 -2q-6 -23 -10 -47.5t-4 -44.5q0 -10 3 -30.5t3 -30.5q-6 14 -10 27.5t-4 23.5zM311 1077l19 10 q4 0 16 -2t19 -2h26l66 11l-17 -19q-18 -2 -37.5 -3t-21.5 -1h-27q-31 4 -43 6zM311 1303q18 10 25.5 13t28.5 3l43 -2q-23 -2 -45.5 -6t-28.5 -11zM317 1440q4 0 23.5 -3t21.5 -3q6 0 7 2q14 -6 18 -11zM381 965h115l-15 -13l-80 2q-6 4 -20 11zM381 1440q12 -4 52 -6 t52 -7l58 -22q-39 6 -86 15.5t-76 19.5zM424 1313l20 -6q20 -20 29.5 -37t9.5 -37q0 -14 2 -48t2 -36q0 -23 -5 -38t-19 -30l10 31q0 14 -2 38t-2 30q0 49 -4 67q-8 20 -12 39q-6 0 -16.5 11.5t-12.5 15.5zM510 977l55 24q8 6 29 31q12 12 18 17q-6 -10 -10 -17.5t-12 -15.5 l-35 -27l-31 -8zM526 963l54 30q25 23 49 43q0 -2 -27 -28q-18 -20 -33 -33zM559 1401q10 -4 20.5 -6t14.5 -2q8 -8 24 -47q8 -20 19 -54q-27 45 -35 56q-18 28 -43 53zM627 1061l6 239q0 -23 8 -83q4 -34 4 -50v-26q0 -27 -3 -45.5t-15 -34.5z" />
<glyph unicode="&#xb1;" horiz-adv-x="933" d="M80 254q0 16 4 39.5t8 48.5l17 14l-5 -118q0 -20 1 -40t4 -46l-19 -7q0 18 -2 41q-8 53 -8 68zM109 709v206l14 27l8 -225zM117 262q0 16 1 33.5t3 36.5h692v-150q-121 0 -398.5 2t-293.5 2zM121 143l2 19q16 -2 66.5 -6t76.5 -4h203q35 0 101.5 3t97.5 3l135 -4 q-66 -10 -116 -14.5t-146 -4.5h-37h-41q-109 2 -183.5 5t-158.5 3zM123 362q10 0 153.5 2.5t204.5 2.5q55 0 166 -9.5t166 -9.5l-672 -6zM129 995l180 2l-178 -32zM141 178h262q283 0 344.5 -3t71.5 -9q-68 0 -227.5 -2t-171.5 -2q-20 0 -45 -1t-53 -1q-72 0 -118 3t-63 15z M145 735v191h93h96h33v221q20 0 63 -2t66 -2h24q14 0 39 4v-221q14 0 69.5 -2t84.5 -2h28h21q12 4 16 4v-191h-219v-219h-192v219h-222zM156 707l135 8l26 -228l-53 195zM156 948l200 49l6 -55zM324 707l20 8l8 -215l-20 -19zM336 1018l16 184v-172zM356 469l15 33l204 4 l-4 209l209 -8l-196 -13l41 -235zM373 1192l205 39l2 -295l-5 235l-198 -4zM592 1001l6 177l20 -170zM612 981l172 -31l-168 -6zM625 674l20 -12l-14 -119zM799 723l4 199l14 12zM817 358l29 -2v-196l-21 -15l4 181z" />
<glyph unicode="&#xb2;" horiz-adv-x="798" d="M94 756v65q0 41 10.5 78t32.5 68q-14 -33 -17 -71t-3 -93v-64l10 -30l35 18q20 -4 43.5 -10t40.5 -6q18 0 49 6q59 10 82 10q20 0 110 -14q37 -4 66 -4l98 2l-51 -19q-33 0 -82 8q-109 12 -135 13q-33 0 -88 -6q-113 -12 -145 -13l-44 13zM109 1196v78l65 123 q31 18 75 27.5t85 17.5q-117 -37 -157 -83t-68 -163zM125 1178h102q10 0 31 3t31 3l30 -2l5 24l14 -47h-74q-113 4 -123 4zM129 803q0 168 94 241q41 33 174 76q96 31 97 90q0 49 -25 62q-16 10 -72 10q-55 0 -73.5 -17.5t-18.5 -72.5q-27 4 -57 4q-18 0 -62.5 -2t-46.5 -2 q0 233 230 233q184 0 241 -55q51 -49 52 -151q0 -121 -93 -179q-4 -4 -174 -67q-94 -35 -94 -103q82 6 176 7q31 0 94.5 -3.5t85.5 -3.5q4 -27 5 -57q0 -14 -2.5 -41t-2.5 -41q-35 0 -118.5 -2t-87.5 -2q-55 0 -182.5 2t-135.5 2q-2 16 -3 32.5t-1 39.5zM147 995l15 43 q27 27 94.5 66t192.5 94v31l-62 14l-49 -10l6 22l62 5l63 -17l6 -45l-26 -37q-6 -2 -142 -55q-55 -21 -63 -27q-18 -10 -49 -41q-16 -14 -48 -43zM330 887q45 6 97 15t83 9q23 0 71 -6t74 -8l-12 -20l-78 8t-73 4zM334 920l49 49q39 18 109 39q53 16 110 32q33 47 35 52 q23 27 43 43l-43 -78q-39 -29 -197 -84q-72 -25 -106 -53zM379 1442q86 0 147 -12q90 -16 127 -62q20 -37 29.5 -90t9.5 -102l-22 -27q0 18 5 53t5 49q0 20 -6.5 38.5t-18.5 43.5q-39 78 -139 87.5t-137 21.5zM586 1008l65 55q6 10 21.5 43t23.5 47l-34 -94l-68 -53z M651 1384l21 -22q6 -10 9 -25.5t7 -36.5zM672 829q0 4 2 24.5t4 35.5l18 -31q0 -35 -4 -68.5t-14 -80.5q0 20 -3 61t-3 59z" />
<glyph unicode="&#xb3;" horiz-adv-x="798" d="M125 1227v35q0 16 2 30.5t6 30.5l31 35q-14 -29 -20.5 -67t-6.5 -83v-24q23 0 46.5 -1t45.5 -1q35 0 70 4v28l12 -34q-29 -10 -56.5 -12.5t-78.5 -2.5l-49 4q0 14 -1 32t-1 26zM129 805l2 -68l19 -30h34q0 4 -21.5 23.5t-23.5 27.5q-6 33 -8 67.5t-2 69.5v-90zM131 918 l14 -11h48q20 0 36.5 3t40.5 10l-26 10q-23 0 -57.5 -4t-55.5 -8zM141 825l2 76l123 8v-8q0 -33 6.5 -47t20.5 -14h32.5h32.5q90 0 122 21.5t32 60.5q0 51 -22.5 66.5t-67.5 15.5q-8 0 -29.5 -1.5t-34.5 -1.5q-14 0 -22 -1t-19 -7l-4 135q18 0 49 -2t44 -2q39 0 55 15 q23 18 22 63q0 29 -10 46.5t-37 17.5h-114q-25 0 -31 -14.5t-6 -41.5v-14l-133 -2v72q0 68 42 103.5t111 35.5h44.5t43.5 2q152 0 203 -49q43 -47 43 -139q0 -57 -10 -82q-12 -35 -58 -60q47 -10 64 -67q12 -35 12 -101q0 -104 -24 -147q-33 -59 -129 -60l-203 5 q-2 -2 -8.5 -2t-12.5 -3q-57 0 -93 33t-36 90zM178 1374q29 29 55 45q33 20 68 21q74 0 134.5 -5t158.5 -16q2 0 7 -8t7 -22q-18 10 -33 16q-23 14 -30 14h-62q-47 0 -77.5 2t-53.5 2h-34.5t-43.5 -4q-29 -16 -43 -20q-49 -23 -53 -25zM211 688l2 10l156 -6q-35 0 -92.5 -2 t-65.5 -2zM258 680q55 -4 73.5 -5t41.5 -1q16 -2 35 -4q6 0 24.5 7t28.5 13l-45 6l-8 -4l-19 -2q-45 -6 -77.5 -8t-53.5 -2zM287 983q0 43 3 84t11 59q2 -4 2 -71.5t8 -73.5h15l18 -16l-41 2zM291 856q39 4 89 8t93 4q-33 -8 -58.5 -13t-52.5 -5q-14 0 -25 1t-46 5z M299 1235q51 4 73.5 5t35.5 1l59 -14l-12 22q-4 -2 -11.5 -2h-9.5l-47 4l-29 -2l-55 4zM309 1147h35q10 0 25.5 1t31.5 3l52 25l18 34l-4 -36l-16 -27q-35 -6 -68 -10h-61zM342 975l8 12q2 -4 64.5 -5t64.5 -5zM465 670l98 22q-8 -2 -26.5 -2h-26.5h-16zM563 698q12 2 27 15 l24 18l-4 -29zM608 1372q8 -8 23.5 -30.5t23.5 -38.5q-8 33 -10 43q-10 29 -16 43zM610 1075l25 -41l4 -12l8 -27v47zM621 700q6 2 18 15.5t14 20.5t17 44q8 29 16 49l-8 -63q-10 -23 -16.5 -36t-18.5 -30h-22zM623 721q31 45 41 74.5t10 83.5q0 31 -4 59q-6 41 -11 59 q8 -14 11.5 -25t3.5 -30v-20.5v-20.5q0 -8 -1 -19.5t-4 -26.5t-14 -34q-20 -41 -22 -49zM633 1120q2 2 8 11.5t6 11.5v6l4 20v19q0 10 -4 22q2 -4 5 -11t3 -11q-4 -12 -4 -23l-2 -30zM635 1296l20 -36v43l-10 -13zM655 1221v20v19l7 -23q-2 -8 -7 -16z" />
<glyph unicode="&#xb4;" horiz-adv-x="647" d="M45 1124l68 23l106 113q23 29 49 73q4 14 35 78l-96 -100q-12 -14 -31.5 -47t-32.5 -47q-16 -16 -50 -46t-48 -47zM102 1130l148 -38l67 -17l-124 17zM156 1133l178 268q39 -14 90 -29q57 -14 91 -19t52 -10q-70 -51 -142.5 -115t-129.5 -130zM315 1411l11 29 q70 -18 139 -38t137 -38l-35 -12l-139 30zM319 1106l21 -31l215 256q-51 -59 -93.5 -99t-142.5 -126z" />
<glyph unicode="&#xb5;" horiz-adv-x="1071" d="M111 -59v381q0 137 7 380.5t7 313.5q0 -123 14 -481q8 -205 8 -287l-4 -664q-14 37 -23 162t-9 195zM113 1049l41 -5q6 0 20 7.5t23 7.5l127 6l-166 -47zM127 -457l61 15q41 0 75 -6.5t83 -12.5l27 -24q-70 0 -128.5 6t-117.5 22zM150 498v98q0 70 4 232.5t4 172.5 q0 -92 16 -274t16 -272q0 -104 -6 -246q-14 -330 -14 -414q-8 96 -14 267t-6 436zM186 -434q0 184 4.5 611t4.5 454l-9 364h140v-2h65q0 -51 -3 -168.5t-3 -126.5q0 -180 4 -292.5t29 -143.5q18 -20 69.5 -25.5t96.5 -5.5t71 5q35 14 47 28q10 14 15.5 59.5t5.5 120.5 q0 78 -2 136.5t-4 109.5q0 59 3 195.5t3 144.5h184v-651q0 -98 -12 -162q-8 -78 -11 -105.5t-3 -60.5q-6 -68 -2 -153q-23 -4 -56 -4h-37q-18 0 -34.5 2t-69.5 12l8 133l-55 -2h-107q-135 0 -202 59v-532h-140zM240 1026l73 23l43 -23h-116zM307 1016q84 -14 109 -15 q-41 10 -63.5 13.5t-45.5 1.5zM346 18q0 -55 2 -116q8 -260 8 -334q0 86 21 371q2 35 4 65zM401 37q25 0 72 -2t72 -2q74 -10 67 -13h-73q-20 0 -53 1.5t-44 5.5zM408 532v445q0 -279 13 -476.5t40 -236.5l-43 41q0 55 -4 119.5t-6 107.5zM477 252l172 16l6 -22zM670 272 l28 752l-6 -752h-22zM682 -150l10 29l101 -8q18 0 53 2t41 4l12 -45zM713 1055l10 18l94 -4h51t39 2l13 -29zM889 -7q0 58 4 83q6 45 16.5 138t16.5 138l16 -57q-12 -96 -26.5 -192.5t-24.5 -194.5q-2 27 -2 85zM920 547q0 45 1 139t3 139l22 -55q-2 -96 -7 -193.5 t-5 -197.5q-4 27 -10 85t-4 83zM924 111q16 70 25 140.5t1 135.5q27 35 11 356q-6 106 -11 166l6 119l23 -65q0 -45 -4 -178.5t10 -225.5q-14 -197 -17 -295t-22 -217l-14 25q6 18 -8 39z" />
<glyph unicode="&#xb6;" horiz-adv-x="1378" d="M82 975l24 313l3 -264q0 -20 75 -176q59 -123 84 -166q27 -8 66 -8q-72 35 -144 131q-18 27 -108 170zM135 1147q0 -248 146 -348q118 -82 374 -82v-1172q35 -8 84 -8q31 0 70 3t59 5v1899h-360q-125 0 -244 -84q-129 -92 -129 -213zM156 1274q88 106 100 119 q53 53 133 86l-139 -64zM293 711q111 -18 178.5 -30.5t149.5 -37.5l2 51zM422 1487q59 -6 127.5 -8t155.5 -2q53 0 86 2q135 8 147 8l-6 -55q-6 4 -76 18q-129 29 -162 29q-31 0 -92 -8.5t-92 -8.5q-14 0 -43 12.5t-45 12.5zM598 -352q0 27 4 49q14 80 14 86q2 -6 13.5 -75 t11.5 -89q0 -18 -6 -47t-10 -53q-10 41 -18.5 75.5t-8.5 53.5zM614 -508l236 35l51 74l19 -111q-23 6 -58 8t-65 2h-39l-113 -4l-6 -37zM621 592l14 -785q4 25 5 44.5t1 29.5zM877 -344q0 23 8 75t8 68l8 1084l-4 -215q0 -92 12.5 -514t12.5 -514l-45 -2v18zM899 1409 q0 -385 11.5 -690t41.5 -1112l-22 20l-10 -88q0 82 -5 176q-10 717 -10 777v387q0 92 7.5 278t7.5 252h-21zM1014 379v381q0 113 7 342t7 311q0 -113 14 -452q9 -195 9 -275l-4 -1122q-18 74 -25.5 156.5t-7.5 658.5zM1016 1454l41 -4q10 0 22.5 7t20.5 7l157 4l-196 -45z M1030 -473l62 14q31 0 80 -8t69 -10l27 -25q-119 0 -238 29zM1053 774v260q0 61 4 208t4 157q0 -84 16.5 -252t16.5 -254q0 -133 -4 -240q-14 -852 -15 -878q-12 109 -17 481.5t-5 517.5zM1090 -455q0 102 7 525.5t7 474.5l-6 524l-8 324h133v-1848h-133zM1145 1415 q16 8 45 13.5t55 9.5l45 -23l-110 -2zM1239 748q0 -121 6 -600.5t6 -600.5q0 94 16.5 526.5t16.5 526.5v102.5t2 135.5q0 227 -8 376.5t-31 163.5q0 -109 -4 -361.5t-4 -268.5z" />
<glyph unicode="&#xb7;" horiz-adv-x="829" d="M80 756l82 55q141 0 283.5 -1t287.5 -1q-39 0 -121 -18.5t-123 -18.5q-68 0 -203.5 -8t-205.5 -8zM100 709q10 4 28.5 18t25.5 16l-2 -231q0 -33 8 -99.5t8 -101.5l-35 -12q-16 80 -24.5 197.5t-8.5 212.5zM147 289q45 0 115 8q160 18 201 18l256 -8l-500 -59zM184 342 v401q115 -10 156 -11t86 -1q104 0 227 12q8 -43 10.5 -109.5t2.5 -74.5q0 -41 -1 -74.5t-12 -142.5h-469zM684 766l61 27l-10 -447l-41 21l2 204q0 41 -6 112t-6 83z" />
<glyph unicode="&#xb8;" horiz-adv-x="788" d="M72 -217q23 27 57 39q4 0 70 -6l20 -15q-51 12 -56 11.5t-48 -2.5q-18 -14 -35 -37q-6 -29 39 -31q72 -10 125 -18h145q49 0 125 6q86 26 100 30q23 8 50 33l-13 -29l-137 -47h-297l-125 19q-29 16 -20 47zM86 -238l39 41q43 -6 100.5 -11t79.5 -5q51 0 82 6q59 12 59 43 q0 33 -26.5 45.5t-65.5 12.5q-35 0 -66.5 -6.5t-49.5 -10.5l-58 25l125 112l133 6l-90 -67q20 0 63.5 6t65.5 6q100 0 154 -35q45 -29 45 -80q0 -72 -127 -100q-76 -16 -189 -16q-135 0 -274 28zM151.5 -106.5q0.5 2.5 63.5 63.5l49 43l27 12q-18 -16 -44 -38.5t-81 -69.5 l4 -6q16 -14 36.5 -21.5t133.5 10.5l43 -14q-47 6 -154 -8q-37 6 -51 12q-27 14 -26.5 16.5zM207 -176l49 -12h113l34 14l11 14q-2 16 -13.5 26.5t-29.5 16.5l47 -12l8 -41l-18 -16l-35 -11h-111q-12 0 -31.5 7.5t-23.5 13.5zM293 23q14 8 38.5 10t59.5 2h62l10 -15 q-8 4 -18.5 6.5t-18.5 2.5q-16 0 -82 -4q-29 -2 -51 -2zM371 -41l49 23q51 4 100 2t82 -17l66 -35q23 -25 26.5 -52t-0.5 -43.5t-24 -45.5q27 74 0 115q-18 43 -111 61q-25 4 -41 5t-31 1h-49zM401 -12q4 -4 7.5 -2t7.5 4q2 2 20 18q6 6 13 12q0 -8 -6.5 -15t-16.5 -13 l-16 -12z" />
<glyph unicode="&#xb9;" horiz-adv-x="653" d="M115 1286q6 43 65 78q86 45 90 51l9 -8q-68 -39 -89 -51q-28 -19 -53 -70l6 -47v-47q0 -18 -2 -48t-2 -38l-16 -8q0 18 4 58t4 58q0 16 -5 34t-11 38zM143 1092l11 -11l63 31l51 59q-66 -41 -125 -79zM150 1118q0 27 2 56.5t2 62.5q0 31 -4 59q16 25 47 47q6 6 98 58 q25 -4 53 -4q25 0 50.5 2t50.5 2q0 -23 2 -68t2 -65v-310q0 -37 -2 -112.5t-2 -114.5h-19h-39q-57 6 -63 6h-25l-18 -6l2 334v102v31q-45 -33 -66 -47q-37 -20 -71 -33zM248 1049l2 -121q12 45 20.5 110.5t8.5 116.5v8q-12 -25 -21.5 -53.5t-9.5 -60.5zM250 711 q37 0 108.5 -5.5t104.5 -5.5l14 21h-51.5h-56.5q-27 0 -56.5 1t-46.5 9l-4 41q0 16 4 41q12 55 13 68v12l-11 80q-10 -51 -10 -66q-8 -37 -8 -63v-133zM274 1430l37 -19h92q12 0 30 4t34 8q-31 4 -54.5 5.5t-62.5 1.5h-20h-56zM344 1440l158 -4l-142 -6zM463 897l4 -166 q10 27 17.5 159t7.5 335q0 37 -10.5 86t-14.5 96q0 -47 2 -128t2 -103v-103q-8 -139 -8 -176zM481 1413l15 -37q0 -18 -2 -41.5t-5 -46.5z" />
<glyph unicode="&#xba;" horiz-adv-x="798" d="M115 1104q0 31 3 94t3 94q41 41 76 86q27 29 41 52l-43 -21q-45 -66 -52 -82q-18 -39 -18 -106q0 -16 3 -42t3 -34v-230q-4 25 -10 91.5t-6 97.5zM125 901q23 -53 37 -90q20 -58 43 -78q6 -8 44 -27.5t50 -19.5q10 0 29.5 2t38.5 4q8 0 16 -2q-39 0 -107.5 18.5 t-107.5 34.5q-14 33 -25 80q-8 20 -18 78zM133 1008v114q0 127 43 197q51 86 172 86h66q117 0 174 -84q47 -72 47 -199v-114q0 -141 -35 -205q-47 -86 -180 -86h-72q-125 0 -174 88q-41 68 -41 203zM143 1280q33 53 64 94q20 23 45 47q41 6 86 17q27 2 47 2l49 -10 q-23 -8 -46 -13.5t-58 -5.5q-20 0 -37 1t-35 1q-6 0 -51 -37q-29 -27 -43 -43zM268 1012q0 -72 8 -101q23 -45 89 -45h41q63 0 83 45q12 31 13 105v104q0 70 -10 99q-23 39 -86 38h-41q-53 0 -75 -25.5t-22 -111.5v-108zM272 1102l27 125l-23 -56q8 -84 17.5 -131t25.5 -108 q-8 -20 -12 -41l19 2q-31 53 -42.5 100t-11.5 109zM334 1231l55 10l55 -8l11 -21l-45 15l-54 -4zM354 887h66l39 18l-8 -18l-66 -15zM379 711l82 -21l-49 6l-6 -2zM451 1442l24 -33l164 -49l-4 -74q-8 31 -9 39t-10 23q-4 2 -90 57q-35 25 -37 27zM453 711q10 4 39.5 6 t33.5 4q20 10 47 29q14 10 39 32q-23 -27 -54.5 -50t-59.5 -42zM477 1194q16 -59 17 -117zM479 952q0 14 2 44t2 44l-2 37q4 -16 6 -46t2 -58v-58zM600 733q16 33 35 72q14 31 14 45q0 74 -8 145q-10 217 -10 240q0 16 3 39.5t7 46.5q14 -113 20.5 -195t6.5 -180 t-8.5 -123.5t-59.5 -89.5z" />
<glyph unicode="&#xbb;" horiz-adv-x="1132" d="M74 545l37 -68l14 148l170 61q-70 -16 -197 -45zM115 788l39 146l-4 -117zM141 483l342 103l27 211l-330 116l-10 -120l186 -107l-202 -72zM143 768q31 -20 47 -33q35 -23 50 -28l69 -11zM180 463l330 110l14 86l6 -106zM250 924l246 -76l30 -29zM535 725l14 -49l6 127z M563 545l37 -68l14 148l170 61q-70 -16 -196 -45zM604 788l39 146l-4 -117zM631 483l342 103l26 211l-329 116l-11 -120l187 -107l-203 -72zM633 768q31 -20 47 -33q35 -23 49 -28l70 -11zM670 463l329 110l15 86l6 -106zM739 924l246 -76l31 -29zM1024 725l14 -49l6 127z " />
<glyph unicode="&#xbc;" horiz-adv-x="1843" d="M94 1235q6 43 66 78q86 45 90 51l8 -8q-68 -39 -88 -51q-28 -19 -53 -70l6 -47v-47q0 -18 -2 -48t-2 -38l-17 -8q0 18 4.5 58t4.5 58q0 16 -5.5 33.5t-11.5 38.5zM123 1040l10 -10l64 31l51 59q-66 -41 -125 -80zM129 1067q0 27 2 56.5t2 62.5q0 31 -4 59q16 25 47 47 q6 6 98 58q25 -4 54 -4q25 0 50 2t50 2q0 -23 2 -68t2 -65v-310q0 -37 -2 -112.5t-2 -114.5h-18h-39q-57 6 -64 6h-24q-12 -4 -19 -6l2 334v102v31q-45 -33 -65 -47q-37 -20 -72 -33zM227 997l2 -120q12 45 20.5 110.5t8.5 116.5v8q-12 -25 -21.5 -53.5t-9.5 -61.5zM229 659 q37 0 109 -5t104 -5l15 21h-51.5h-57.5q-27 0 -56.5 1t-45.5 9l-4 41q0 16 4 41q12 55 12 67v13l-10 80q-10 -51 -10 -66q-8 -37 -9 -63v-134zM254 1378l37 -18h92q12 0 29.5 4t33.5 8q-31 4 -54 5t-62 1h-21h-55zM324 1389l157 -5l-141 -6zM332 213q78 -43 148.5 -92 t123.5 -109l-18 -24q-61 33 -129 94t-125 131zM389 236l17 38q41 106 172 287q82 127 243 336q98 123 195 250q-152 -231 -303 -463q-164 -237 -324 -448zM403 201q197 229 404 512q197 276 362 553q66 -49 94.5 -74t63.5 -72q-20 -18 -184 -252q-242 -350 -322 -460 q-188 -268 -254 -342q-57 61 -75 77q-42 33 -89 58zM442 244q72 184 193 370q88 133 242 340q211 279 251 334q-70 -174 -181 -355t-255 -376q-105 -137 -250 -313zM442 846l4 -166q10 27 17.5 159t7.5 335q0 37 -10 86t-15 96q0 -47 2.5 -128t2.5 -104v-102 q-8 -139 -9 -176zM461 1362l14 -37q0 -18 -2 -41.5t-4 -46.5zM606 55l29 -14q80 125 242 328q219 274 270 342q139 190 194 327l-30 27zM1087 358l9 -178q0 25 3 67t3 50zM1098 389q6 -12 10 -47t4 -70v-12q0 -43 -4 -65q8 10 17.5 100t11.5 106q29 41 94 117 q55 61 112.5 127.5t77.5 97.5l-59 -30q-4 -18 -64 -95q-49 -66 -114.5 -139t-85.5 -90zM1133 188q57 0 94 2q147 5 159 5l60 -5l2 -30q0 -12 -3 -41t-3 -43q0 -12 4 -25l-25 37l13 45l-4 33q-115 0 -196 6t-101 16zM1133 270.5v32.5q0 23 1 35t3 41q61 80 147 182 q61 74 150 178q20 0 60 3t60 3q23 0 41.5 -1t36.5 -5v-395q14 -6 41 -6q12 0 27.5 2t23.5 4v-139h-92l2 -64l-2 -86q-39 -4 -86 -4h-41q-29 2 -41 4q0 16 -1 49t-1 52v24q2 16 2 25q-35 -4 -85 -5t-58 -1q-39 0 -105.5 3t-78.5 3q-4 45 -4 65.5zM1141 1370 q78 -47 139.5 -100t118.5 -119l-240 162zM1200 1266l29 -17q29 -23 71.5 -55.5t69.5 -56.5l25 -54q-66 59 -101 91q-51 45 -94 92zM1282 344q49 -4 67.5 -5t39.5 -1h18q14 0 28.5 2t28.5 4q6 62 6 123q0 59 -6 119q-41 -72 -84 -129.5t-98 -112.5zM1315 358q39 35 72.5 82.5 t58.5 98.5q4 -25 7 -61t3 -66l-16 18l-2 51q-25 -37 -56 -67q-41 -45 -67 -56zM1442 764q47 0 102 2t94 4l15 -27l4 -389l-12 21q0 37 -3.5 116.5t-3.5 120.5q0 35 1 61.5t6 57.5l-13 12h-16q-57 0 -111.5 5.5t-62.5 15.5zM1450 41q20 0 68.5 -2t50.5 -2l51 14l12 -22 l-18 -13h-15q-53 0 -102 7zM1642 193l7 -130l-4 -24l26 12l-14 127l49 -2h43l-27 14q-8 2 -21 2.5t-20 0.5h-39zM1675 350q19 2 37 4h31l-8 -139l6 -20q6 31 10 67.5t4 67.5v43h-53z" />
<glyph unicode="&#xbd;" horiz-adv-x="1843" d="M94 1235q6 43 66 78q86 45 90 51l8 -8q-68 -39 -88 -51q-28 -19 -53 -70l6 -47v-47q0 -18 -2 -48t-2 -38l-17 -8q0 18 4.5 58t4.5 58q0 16 -5.5 33.5t-11.5 38.5zM123 1040l10 -10l64 31l51 59q-66 -41 -125 -80zM129 1067q0 27 2 56.5t2 62.5q0 31 -4 59q16 25 47 47 q6 6 98 58q25 -4 54 -4q25 0 50 2t50 2q0 -23 2 -68t2 -65v-310q0 -37 -2 -112.5t-2 -114.5h-18h-39q-57 6 -64 6h-24q-12 -4 -19 -6l2 334v102v31q-45 -33 -65 -47q-37 -20 -72 -33zM227 997l2 -120q12 45 20.5 110.5t8.5 116.5v8q-12 -25 -21.5 -53.5t-9.5 -61.5zM229 659 q37 0 109 -5t104 -5l15 21h-51.5h-57.5q-27 0 -56.5 1t-45.5 9l-4 41q0 16 4 41q12 55 12 67v13l-10 80q-10 -51 -10 -66q-8 -37 -9 -63v-134zM254 1378l37 -18h92q12 0 29.5 4t33.5 8q-31 4 -54 5t-62 1h-21h-55zM258 213q78 -43 148.5 -92t123.5 -109l-18 -24 q-61 33 -129 94t-125 131zM315 236l17 38q41 106 172 287q82 127 244 336q98 123 194 250q-152 -231 -303 -463q-164 -237 -324 -448zM324 1389l157 -5l-141 -6zM330 201q197 229 403 512q197 276 363 553q66 -49 94.5 -74t62.5 -72q-20 -18 -184 -252q-242 -350 -321 -460 q-188 -268 -254 -342q-57 61 -76 77q-41 33 -88 58zM369 244q72 184 192 370q88 133 242 340q211 279 252 334q-70 -174 -181.5 -355t-255.5 -376q-104 -137 -249 -313zM442 846l4 -166q10 27 17.5 159t7.5 335q0 37 -10 86t-15 96q0 -47 2.5 -128t2.5 -104v-102 q-8 -139 -9 -176zM461 1362l14 -37q0 -18 -2 -41.5t-4 -46.5zM532 55l29 -14q80 125 242 328q219 274 270 342q139 190 195 327l-31 27zM1067 1370q78 -47 139.5 -100t118.5 -119l-240 162zM1110 98v66q0 41 10 78t33 67q-14 -33 -17 -70.5t-3 -93.5v-63l10 -31l35 19 q20 -4 43.5 -10.5t40.5 -6.5q18 0 49 6q59 10 82 11q20 0 110 -15q37 -4 66 -4l98 2l-51 -18q-33 0 -82 8q-109 12 -135 12q-33 0 -88 -6q-113 -12 -146 -12l-43 12zM1124 539v77l66 123q31 18 75 27.5t85 17.5q-117 -37 -157 -83t-69 -162zM1126 1266l29 -17 q29 -23 72 -55.5t69 -56.5l25 -54q-66 59 -100 91q-52 45 -95 92zM1141 520h102q10 0 30.5 3t31.5 3l30 -2l4 25l15 -47h-74q-113 4 -123 4zM1145 145q0 168 94 242q41 33 174 76q96 31 96 90q0 49 -24 61q-16 10 -72 11q-55 0 -73.5 -17.5t-18.5 -72.5q-27 4 -57 4 q-18 0 -62.5 -2t-46.5 -2q0 233 229 233q184 0 242 -55q51 -49 51 -152q0 -121 -92 -178q-4 -4 -174 -68q-94 -34 -94 -102q82 6 176 6q31 0 94.5 -3t85.5 -3q4 -27 4 -57q0 -14 -2 -41t-2 -41q-35 0 -119 -2t-88 -2q-55 0 -182 2t-135 2q-2 16 -3 32.5t-1 38.5zM1163 338 l15 43q27 27 94 65.5t192 94.5v30l-61 15l-49 -11l6 23l61 4l64 -16l6 -45l-27 -37q-6 -2 -141 -55q-55 -21 -63 -27q-18 -10 -50 -41q-16 -14 -47 -43zM1346 229q45 6 97 15.5t83 9.5q23 0 71 -6t74 -8l-12 -21l-78 8t-74 4zM1350 262l49 49q39 18 108 39q53 16 111 33 q33 47 35 51q23 27 43 43l-43 -78q-39 -29 -197 -84q-72 -25 -106 -53zM1395 784q86 0 147 -12q90 -16 127 -61q20 -37 29.5 -90.5t9.5 -102.5l-22 -26q0 18 5 53t5 49q0 20 -6.5 38.5t-18.5 43.5q-39 78 -139 87t-137 21zM1602 350l65 56q6 10 21.5 42.5t23.5 47.5l-35 -95 l-67 -53zM1667 727l21 -22q6 -10 9 -25.5t7 -36.5zM1688 172q0 4 2 24.5t4 34.5l18 -30q0 -35 -4 -69t-14 -81q0 20 -3 61.5t-3 59.5z" />
<glyph unicode="&#xbe;" horiz-adv-x="1843" d="M125 1227v35q0 16 2 30.5t6 30.5l31 35q-14 -29 -20.5 -67t-6.5 -83v-24q23 0 46.5 -1t45.5 -1q35 0 70 4v28l12 -34q-29 -10 -56.5 -12.5t-78.5 -2.5l-49 4q0 14 -1 32t-1 26zM129 805l2 -68l19 -30h34q0 4 -21.5 23.5t-23.5 27.5q-6 33 -8 67.5t-2 69.5v-90zM131 918 l14 -11h48q20 0 36.5 3t40.5 10l-26 10q-23 0 -57.5 -4t-55.5 -8zM141 825l2 76l123 8v-8q0 -33 6.5 -47t20.5 -14h32.5h32.5q90 0 122 21.5t32 60.5q0 51 -22.5 66.5t-67.5 15.5q-8 0 -29.5 -1.5t-34.5 -1.5q-14 0 -22 -1t-19 -7l-4 135q18 0 49 -2t44 -2q39 0 55 15 q23 18 22 63q0 29 -10 46.5t-37 17.5h-114q-25 0 -31 -14.5t-6 -41.5v-14l-133 -2v72q0 68 42 103.5t111 35.5h44.5t43.5 2q152 0 203 -49q43 -47 43 -139q0 -57 -10 -82q-12 -35 -58 -60q47 -10 64 -67q12 -35 12 -101q0 -104 -24 -147q-33 -59 -129 -60l-203 5 q-2 -2 -8.5 -2t-12.5 -3q-57 0 -93 33t-36 90zM178 1374q29 29 55 45q33 20 68 21q74 0 134.5 -5t158.5 -16q2 0 7 -8t7 -22q-18 10 -33 16q-23 14 -30 14h-62q-47 0 -77.5 2t-53.5 2h-34.5t-43.5 -4q-29 -16 -43 -20q-49 -23 -53 -25zM211 688l2 10l156 -6q-35 0 -92.5 -2 t-65.5 -2zM258 680q55 -4 73.5 -5t41.5 -1q16 -2 35 -4q6 0 24.5 7t28.5 13l-45 6l-8 -4l-19 -2q-45 -6 -77.5 -8t-53.5 -2zM287 983q0 43 3 84t11 59q2 -4 2 -71.5t8 -73.5h15l18 -16l-41 2zM291 856q39 4 89 8t93 4q-33 -8 -58.5 -13t-52.5 -5q-14 0 -25 1t-46 5z M299 1235q51 4 73.5 5t35.5 1l59 -14l-12 22q-4 -2 -11.5 -2h-9.5l-47 4l-29 -2l-55 4zM309 1147h35q10 0 25.5 1t31.5 3l52 25l18 34l-4 -36l-16 -27q-35 -6 -68 -10h-61zM342 975l8 12q2 -4 64.5 -5t64.5 -5zM371 213q78 -43 148.5 -92t123.5 -109l-18 -24q-61 33 -129 94 t-125 131zM428 236l16 38q41 106 172 287q82 127 244 336q98 123 195 250q-152 -231 -303 -463q-164 -237 -324 -448zM442 201q197 229 404 512q197 276 362 553q66 -49 94.5 -74t63.5 -72q-20 -18 -184 -252q-242 -350 -322 -460q-188 -268 -254 -342q-57 61 -76 77 q-41 33 -88 58zM465 670l98 22q-8 -2 -26.5 -2h-26.5h-16zM481 244q72 184 193 370q88 133 241 340q211 279 252 334q-70 -174 -181.5 -355t-254.5 -376q-105 -137 -250 -313zM563 698q12 2 27 15l24 18l-4 -29zM608 1372q8 -8 23.5 -30.5t23.5 -38.5q-8 33 -10 43 q-10 29 -16 43zM610 1075l25 -41l4 -12l8 -27v47zM621 700q6 2 18 15.5t14 20.5t17 44q8 29 16 49l-8 -63q-10 -23 -16.5 -36t-18.5 -30h-22zM623 721q31 45 41 74.5t10 83.5q0 31 -4 59q-6 41 -11 59q8 -14 11.5 -25t3.5 -30v-20.5v-20.5q0 -8 -1 -19.5t-4 -26.5t-14 -34 q-20 -41 -22 -49zM633 1120q2 2 8 11.5t6 11.5v6l4 20v19q0 10 -4 22q2 -4 5 -11t3 -11q-4 -12 -4 -23l-2 -30zM635 1296l20 -36v43l-10 -13zM645 55l29 -14q80 125 241 328q219 274 271 342q139 190 194 327l-30 27zM655 1221v20v19l7 -23q-2 -8 -7 -16zM1087 358l9 -178 q0 25 3 67t3 50zM1098 389q6 -12 10 -47t4 -70v-12q0 -43 -4 -65q8 10 17.5 100t11.5 106q29 41 94 117q55 61 112.5 127.5t77.5 97.5l-59 -30q-4 -18 -64 -95q-49 -66 -114.5 -139t-85.5 -90zM1133 188q57 0 94 2q147 5 159 5l60 -5l2 -30q0 -12 -3 -41t-3 -43q0 -12 4 -25 l-25 37l13 45l-4 33q-115 0 -196 6t-101 16zM1133 270.5v32.5q0 23 1 35t3 41q61 80 147 182q61 74 150 178q20 0 60 3t60 3q23 0 41.5 -1t36.5 -5v-395q14 -6 41 -6q12 0 27.5 2t23.5 4v-139h-92l2 -64l-2 -86q-39 -4 -86 -4h-41q-29 2 -41 4q0 16 -1 49t-1 52v24 q2 16 2 25q-35 -4 -85 -5t-58 -1q-39 0 -105.5 3t-78.5 3q-4 45 -4 65.5zM1180 1370q78 -47 139.5 -100t118.5 -119l-240 162zM1239 1266l29 -17q29 -23 71.5 -55.5t69.5 -56.5l25 -54q-66 59 -101 91q-51 45 -94 92zM1282 344q49 -4 67.5 -5t39.5 -1h18q14 0 28.5 2t28.5 4 q6 62 6 123q0 59 -6 119q-41 -72 -84 -129.5t-98 -112.5zM1315 358q39 35 72.5 82.5t58.5 98.5q4 -25 7 -61t3 -66l-16 18l-2 51q-25 -37 -56 -67q-41 -45 -67 -56zM1442 764q47 0 102 2t94 4l15 -27l4 -389l-12 21q0 37 -3.5 116.5t-3.5 120.5q0 35 1 61.5t6 57.5l-13 12 h-16q-57 0 -111.5 5.5t-62.5 15.5zM1450 41q20 0 68.5 -2t50.5 -2l51 14l12 -22l-18 -13h-15q-53 0 -102 7zM1642 193l7 -130l-4 -24l26 12l-14 127l49 -2h43l-27 14q-8 2 -21 2.5t-20 0.5h-39zM1675 350q19 2 37 4h31l-8 -139l6 -20q6 31 10 67.5t4 67.5v43h-53z" />
<glyph unicode="&#xbf;" horiz-adv-x="1175" d="M84 139l41 150l65 51q-57 -66 -73 -207q-10 -78 -25 -227q0 16 -5 100t-3 133zM117 -96l35 -127q8 -16 43 -62q25 -29 47 -59l-97 74zM133 27q2 213 107 295q129 51 256 104q2 8 3 29.5t1 33.5v64l379 -2v-117q0 -178 -226.5 -244.5t-228.5 -132.5q0 -72 35 -92t112 -20 h37t37 -2q59 0 105.5 9t80.5 36q115 -80 207 -172q-94 -115 -192 -150q-76 -25 -234 -24h-94q-215 2 -300 85t-85 300zM172 268l133 154l107 22l59 103l-8 -84l-45 -47l-135 -37zM252 -326q88 -27 165 -41t154 -14h181q45 0 168 72q106 66 149 108q-35 57 -97.5 116.5 t-119.5 82.5q72 0 172 -113q29 -33 72 -86q-133 -125 -160 -143q-88 -61 -311 -59q-84 0 -205 21.5t-168 55.5zM432 37l107 -49l-58 -6zM440 655l9 357l32 -17l-2 -143q0 -37 5 -100.5t5 -75.5zM444 82l58 47q104 0 231 73.5t185 159.5l-11 162l25 45l6 -166l-35 -55 l-67 -112q-10 -8 -27 -17q-27 -14 -31 -16q-98 -57 -166 -78q-84 -20 -168 -43zM446 637q104 29 237.5 38t283.5 7l-66 -43l-129 4zM457 1042l401 45l55 -32q-37 0 -92 -4q-126 -15 -159 -15zM510 694v320l373 -2v-320zM532 -41q84 10 134.5 20.5t105.5 30.5l59 -18 q-57 -16 -110 -26.5t-113 -10.5zM539 559q59 8 100 12t78 4q33 0 89 -6t66 -6zM893 1036l27 11q14 -63 20 -157.5t6 -168.5q-8 -4 -22.5 -15.5t-20.5 -13.5l2 185q0 27 -6 80t-6 79z" />
<glyph unicode="&#xc0;" horiz-adv-x="1357" d="M76 45q39 49 106 317q43 178 86 359l-155 -711zM98 14q190 0 344 17q6 20 8.5 55t2.5 39q8 4 12 46t4 48q8 -27 8 -65q0 -25 -2 -53.5t-2 -30.5l6 -64h-84q-51 0 -170 4t-127 4zM123 201q59 252 129 501q20 76 143 498l31 17q-45 -160 -96 -338q-57 -199 -101 -338 q-18 -59 -106 -340zM139 43l318 1192h409l318 -1192h-264l-74 287h-365l-78 -287h-264zM195 580q31 145 63 290q45 183 92 283l12 8q-35 -131 -76.5 -278.5t-90.5 -302.5zM332 1729q68 18 137.5 37.5t138.5 37.5l10 -28l-112 -29l-139 -31zM367 1708q18 4 52 9t91 20 q51 14 90 28l178 -268l-139 -35q-57 66 -130 130.5t-142 115.5zM379 1696q51 -59 93 -99.5t142 -126.5l-20 -30zM418 1249q20 6 41 17q31 16 33 26q12 2 30 2h43q8 0 59.5 -5t80.5 -5q27 0 52 1t52 1h37l-2 -29q-8 0 -132 -4t-180 -4h-114zM492 254l24 65l162 7q39 0 88 -9 q16 -2 51 -8l-8 21q-131 0 -193 -23q-14 -6 -124 -53zM530 526h263l-131 484zM553 537l109 407l-87 -391l138 2l4 -18h-164zM616 1440l68 16l147 39l-90 -39zM631 1776l96 -101q12 -14 31.5 -47t32.5 -47q16 -16 49.5 -46t48.5 -46l-68 22l-106 113q-23 29 -49 74 q-4 14 -35 78zM684 870l49 -190l6 78zM737 582v12l2 22l25 -63l-25 -10zM817 254q16 2 46 -114.5t46 -116.5h82t90 2q59 0 95 -2.5t71 -12.5q-23 -14 -75 -18t-91 -4l-229 6q-6 -2 -7 6t-1 29v30q0 29 -8.5 81.5t-18.5 113.5zM883 1266l51 -25q27 -127 39 -190 q25 -115 49 -191q-49 119 -78 201q-38 111 -61 205zM995 827l43 17q27 -160 47 -246q10 -45 103 -399l-47 47l-8 -19q-2 27 -5 56q0 193 -49 335q-20 59 -84 209zM1188 168q16 -43 43 -82q43 -63 49 -72l-47 9q-6 16 -19.5 46.5t-17.5 50t-8 48.5z" />
<glyph unicode="&#xc1;" horiz-adv-x="1374" d="M82 45q39 49 106 317q43 178 86 359l-155 -711zM104 14q190 0 345 17q6 20 8 55t2 39q8 4 12 46t4 48q8 -27 8 -65q0 -25 -2 -53.5t-2 -30.5l6 -64h-84q-51 0 -169.5 4t-127.5 4zM129 201q59 252 129 501q20 76 143 498l31 17q-45 -160 -96 -338q-57 -199 -100 -338 q-18 -59 -107 -340zM145 43l318 1192h409l318 -1192h-264l-74 287h-365l-77 -287h-265zM201 580q31 145 63 290q45 183 92 283l13 8q-35 -131 -77 -278.5t-91 -302.5zM424 1249q20 6 41 17q31 16 33 26q12 2 30 2h43q8 0 59.5 -5t80.5 -5q27 0 52 1t52 1h37l-2 -29 q-8 0 -132 -4t-179 -4h-115zM498 254l24 65l162 7q39 0 88 -9q16 -2 51 -8l-8 21q-131 0 -192 -23q-14 -6 -125 -53zM498 1489l67 22l107 113q23 29 49 74q4 14 35 78l-97 -101q-12 -14 -31.5 -47t-31.5 -47q-16 -16 -50 -46t-48 -46zM537 526h262l-131 484zM555 1495 l147 -39l68 -16l-125 16zM559 537l109 407l-86 -391l137 2l4 -18h-164zM608 1497l178 268q39 -14 91 -28q57 -14 90.5 -19.5t52.5 -9.5q-70 -51 -142.5 -115.5t-129.5 -130.5zM690 870l49 -190l6 78zM743 582v12l2 22l25 -63l-25 -10zM768 1776l10 28q70 -18 139.5 -37.5 t137.5 -37.5l-35 -13l-139 31zM772 1470l21 -30l215 256q-51 -59 -93.5 -99.5t-142.5 -126.5zM823 254q16 2 46 -114.5t46 -116.5h82t90 2q59 0 95.5 -2.5t70.5 -12.5q-23 -14 -75 -18t-91 -4l-229 6q-6 -2 -7 6t-1 29v30q0 29 -8.5 81.5t-18.5 113.5zM889 1266l51 -25 q27 -127 39 -190q25 -115 49 -191q-49 119 -78 201q-38 111 -61 205zM1001 827l43 17q27 -160 48 -246q10 -45 102 -399l-47 47l-8 -19q-2 27 -4 56q0 193 -50 335q-20 59 -84 209zM1194 168q16 -43 43 -82q43 -63 49 -72l-47 9q-6 16 -19.5 46.5t-17.5 50t-8 48.5z" />
<glyph unicode="&#xc2;" horiz-adv-x="1404" d="M92 45l37 -35l156 711q-43 -180 -86 -359q-68 -268 -107 -317zM115 14q190 0 344 17q6 20 8 55t2 39q8 4 12 46t4 48q8 -27 9 -65q0 -25 -2.5 -53.5t-2.5 -30.5l7 -64h-84q-51 0 -170 4t-127 4zM139 201q59 252 129 501q21 76 144 498l30 17q-45 -160 -96 -338 q-57 -199 -100 -338q-18 -59 -107 -340zM156 43l317 1192h410l317 -1192h-264l-74 287h-364l-78 -287h-264zM211 580q31 145 63 290q46 183 93 283l12 8q-35 -131 -77 -278.5t-91 -302.5zM301 1481l182 186l135 4l-165 10zM311 1458l183 195l348 4l194 -195l-254 -4 l-118 111l-111 -109zM322 1440h233l100 94q-29 -39 -75 -113l-152 -8zM434 1249h115q55 0 179 4t132 4l2 29h-37q-27 0 -52 -1t-52 -1q-29 0 -80 5t-59 5h-43.5t-30.5 -2q-2 -10 -33 -26q-20 -10 -41 -17zM508 254q111 47 125 53q61 23 192 23l9 -21q-35 6 -52 8 q-49 8 -88 9l-162 -7zM547 526h262l-131 484zM569 537h164l-4 18l-137 -2l86 391zM645 1686l201 -5l-123 -8zM670 1542l108 -102q-31 18 -49 30q-35 23 -43 31zM700 870l50 -190l6 78zM754 582v12l2 22l24 -63l-24 -10zM809 1421l229 15l-182 6zM834 254q16 2 45.5 -114.5 t46.5 -116.5h82t90 2q59 0 95 -2.5t71 -12.5q-23 -14 -75 -18t-91 -4l-230 6q-6 -2 -7 6t-1 29v30q0 29 -8 81.5t-18 113.5zM868 1665l156 -172l-113 152zM899 1266l51 -25q27 -127 39 -190q25 -115 49 -191q-49 119 -77 201q-39 111 -62 205zM1012 827q63 -150 84 -209 q49 -143 49 -335q2 -29 4 -56l8 19l47 -47q-92 354 -102 399q-20 86 -47 246zM1204 168q4 -29 8.5 -48.5t17.5 -50t19 -46.5l47 -9q-6 8 -49 72q-27 39 -43 82z" />
<glyph unicode="&#xc3;" horiz-adv-x="1398" d="M96 45l37 -35l156 711q-43 -180 -86 -359q-68 -268 -107 -317zM119 14q190 0 344 17q6 20 8 55t2 39q8 4 12 46t4 48q8 -27 9 -65q0 -25 -2 -53.5t-2 -30.5l6 -64h-84q-51 0 -170 4t-127 4zM143 201q59 252 129 501q21 76 144 498l30 17q-45 -160 -96 -338 q-57 -199 -100 -338q-18 -59 -107 -340zM160 43l317 1192h410l317 -1192h-264l-74 287h-364l-78 -287h-264zM215 580q31 145 64 290q45 183 92 283l12 8q-35 -131 -77 -278.5t-91 -302.5zM270 1438l56 -2q31 -14 73 -19q-39 -6 -62.5 -4t-35.5 4zM279 1450q39 74 96 114 t141 40q49 0 145.5 -16.5t145.5 -16.5q41 0 77 15.5t52 49.5l123 -24q-43 -76 -116 -116t-163 -40q-45 0 -131 16.5t-129 16.5q-76 0 -119 -59zM289 1499q6 12 13 26.5t9 28.5q47 27 84 41.5t92 22.5l37 4h86l103 -25q-23 -4 -97.5 10.5t-138.5 16.5q-2 0 -16.5 -5t-22.5 -5 q-39 -18 -61.5 -31.5t-44.5 -32.5q-4 -4 -15 -18q-61 -103 -28 -33zM406 1419q10 14 32.5 30.5t40.5 29.5l21 -17q2 0 14 -5t16 -7h-49q-41 -12 -75 -31zM438 1249h115q55 0 179 4t132 4l2 29h-37q-27 0 -52 -1t-52 -1q-29 0 -80 5t-59 5h-43.5t-30.5 -2q-2 -10 -33 -26 q-20 -10 -41 -17zM502 1470q25 6 48 4.5t46 -4.5l33 -4l14 -24q-20 12 -58 18t-83 10zM512 254q111 47 125 53q61 23 192 23l9 -21q-35 6 -52 8q-49 8 -88 9l-161 -7zM551 526h262l-131 484zM573 537h164l-4 18l-137 -2l86 391zM647 1460q31 -4 66 -9t53 -9q10 -2 41 1 t33 -1q-53 -20 -102.5 -8t-90.5 26zM705 870l49 -190l6 78zM729 1593q16 2 43 -2t66 0l47 13l-23 -19l-43 -8l-61 4zM758 582v12l2 22l24 -63l-24 -10zM838 254q16 2 45.5 -114.5t46.5 -116.5h82t90 2q59 0 95 -2.5t71 -12.5q-23 -14 -75 -18t-91 -4l-230 6q-6 -2 -7 6 t-1 29v30q0 29 -8 81.5t-18 113.5zM850 1436v18q29 0 72 21q123 78 143 124l-33 -57l-90 -67q-49 -25 -92 -39zM877 1612l30 18l25 15l-37 -37zM903 1266l51 -25q27 -127 39 -190q25 -115 49 -191q-49 119 -77 201q-39 111 -62 205zM942 1657l33 -4q35 -6 56.5 -11.5 t45.5 -13.5q-12 -2 -45 0q-20 4 -41 6l-37 8zM1016 827q63 -150 84 -209q49 -143 49 -335q2 -29 4 -56l8 19l47 -47q-92 354 -102 399q-20 86 -47 246zM1208 168q4 -29 8.5 -48.5t17.5 -50t19 -46.5l47 -9q-6 8 -49 72q-27 39 -43 82z" />
<glyph unicode="&#xc4;" horiz-adv-x="1398" d="M92 45l37 -35l156 711q-43 -180 -86 -359q-68 -268 -107 -317zM115 14q190 0 344 17q6 20 8 55t2 39q8 4 12 46t4 48q8 -27 9 -65q0 -25 -2.5 -53.5t-2.5 -30.5l7 -64h-84q-51 0 -170 4t-127 4zM139 201q59 252 129 501q21 76 144 498l30 17q-45 -160 -96 -338 q-57 -199 -100 -338q-18 -59 -107 -340zM156 43l317 1192h410l317 -1192h-264l-74 287h-364l-78 -287h-264zM211 580q31 145 63 290q46 183 93 283l12 8q-35 -131 -77 -278.5t-91 -302.5zM313 1626l39 25q66 0 132.5 -1t131.5 -1q-16 0 -55 -8.5t-57 -8.5q-31 0 -94.5 -3 t-96.5 -3zM322 1604q6 2 14 8t12 8l-2 -109q0 -14 4 -45.5t4 -46.5l-16 -6q-8 37 -12 92.5t-4 98.5zM344 1409q23 0 55 2q75 8 93 8l118 -2l-231 -28zM362 1434v186q51 -6 71 -6h42q47 0 105 6q4 -20 5 -52t1 -34q0 -18 -1 -34.5t-5 -65.5h-218zM434 1249h115q55 0 179 4 t132 4l2 29h-37q-27 0 -52 -1t-52 -1q-29 0 -80 5t-59 5h-43.5t-30.5 -2q-2 -10 -33 -26q-20 -10 -41 -17zM508 254q111 47 125 53q61 23 192 23l9 -21q-35 6 -52 8q-49 8 -88 9l-162 -7zM547 526h262l-131 484zM569 537h164l-4 18l-137 -2l86 391zM594 1630l29 12l-5 -208 l-18 10v96q0 18 -3 51t-3 39zM700 870l50 -190l6 78zM739 1626l39 25q66 0 132.5 -1t131.5 -1q-16 0 -55 -8.5t-57 -8.5q-31 0 -94.5 -3t-96.5 -3zM750 1604q4 2 12 8t12 8v-109q0 -14 3 -45.5t3 -46.5l-16 -6q-8 37 -11 92.5t-3 98.5zM754 582v12l2 22l24 -63l-24 -10z M770 1409q23 0 55 2q75 8 93 8l120 -2l-233 -28zM788 1434v186q53 -6 73 -6h40q47 0 107 6q2 -20 3 -52t1 -34q0 -18 -1 -34.5t-3 -65.5h-220zM834 254q16 2 45.5 -114.5t46.5 -116.5h82t90 2q59 0 95 -2.5t71 -12.5q-23 -14 -75 -18t-91 -4l-230 6q-6 -2 -7 6t-1 29v30 q0 29 -8 81.5t-18 113.5zM899 1266l51 -25q27 -127 39 -190q25 -115 49 -191q-49 119 -77 201q-39 111 -62 205zM1012 827q63 -150 84 -209q49 -143 49 -335q2 -29 4 -56l8 19l47 -47q-92 354 -102 399q-20 86 -47 246zM1020 1630l29 12l-5 -208l-18 10v96q0 18 -3 51t-3 39 zM1204 168q4 -29 8.5 -48.5t17.5 -50t19 -46.5l47 -9q-6 8 -49 72q-27 39 -43 82z" />
<glyph unicode="&#xc5;" horiz-adv-x="1388" d="M86 45l37 -35l156 711q-43 -180 -86 -359q-68 -268 -107 -317zM109 14q190 0 344 17q6 20 8 55t2 39q8 4 12 46t4 48q8 -27 8 -65q0 -25 -2 -53.5t-2 -30.5l6 -64h-83q-51 0 -170 4t-127 4zM133 201q59 252 129 501q21 76 144 498l30 17q-45 -160 -96 -338 q-57 -199 -100 -338q-18 -59 -107 -340zM150 43l317 1192h410l317 -1192h-264l-74 287h-364l-78 -287h-264zM205 580q31 145 63 290q45 183 92 283l13 8q-35 -131 -77 -278.5t-91 -302.5zM428 1249h115q55 0 179 4t132 4l2 29h-37q-27 0 -52.5 -1t-51.5 -1q-29 0 -80.5 5 t-59.5 5h-43t-30 -2q-2 -10 -33 -26q-20 -10 -41 -17zM475 1647q0 43 6 56t39 40q-10 -12 -18 -25q-12 -16 -13 -26q0 -31 5.5 -93.5t5.5 -91.5q0 -10 -3 -19t-5 -20q-17 91 -17 179zM500 1591q0 61 6 84q10 41 45 58q39 20 119 20q96 0 137 -33q39 -30 39 -98v-66 q0 -59 -33 -88q-39 -37 -117 -36h-41q-76 0 -112 28q-43 31 -43 131zM502 254q111 47 125 53q61 23 192 23l8 -21q-35 6 -51 8q-49 8 -88 9l-162 -7zM502 1427l2 35q4 -10 6 -14t6 -14l109 -9l37 -28l18 16l-55 6q-25 6 -84 -8q-20 10 -39 16zM512 1720q23 10 38 20.5 t34 22.5l55 -6q-8 -2 -34 -4t-30 -4q-8 -2 -30 -14q-12 -4 -33 -15zM541 526h262l-131 484zM563 537h164l-4 18l-137 -2l86 391zM590 1573q0 -49 20 -66q21 -14 64 -14q45 0 61.5 14.5t16.5 46.5q0 12 1 33t1 44.5t-23 41.5q-20 16 -59 17q-57 0 -72 -33q-10 -16 -10 -66 v-18zM600 1561v18l10 -59q-6 4 -8 16t-2 25zM602 1587l2 76l17 -2q-6 -18 -8.5 -35t-2.5 -33q0 -6 1 -21.5t1 -21.5q-2 10 -6 19.5t-4 17.5zM621 1507l10 6q4 0 12 -1t14 -1h19l47 9l-12 -15q-12 -2 -19 -2h-22h-19q-23 2 -30 4zM621 1669l15 9t21 3l31 -2q-16 -2 -31.5 -5 t-21.5 -7zM623 1767q4 0 17 -2t15 -2h7q8 -2 12 -6zM670 1767q8 -4 36.5 -4t36.5 -4l41 -16q-27 4 -60.5 11t-53.5 13zM684 1405h82l6 20l-57 2q-4 2 -31 -22zM694 870l49 -190l7 78zM700 1675l15 -4q14 -14 20 -26.5t6 -24.5q0 -10 2 -34.5t2 -26.5q0 -16 -3 -26.5 t-13 -21.5l6 21q0 10 -2 27.5t-2 21.5q0 35 -2 49q-6 12 -8 27q-4 0 -12.5 8t-8.5 10zM748 582v12l2 22l24 -63l-24 -10zM760 1436l41 16q6 6 20 23l15 12q-4 -6 -7.5 -11.5t-9.5 -13.5l-26 -18l-23 -4zM772 1425l39 23q18 14 35 31q0 -2 -19 -21q-14 -16 -24 -24zM797 1741 q6 -4 14 -6t10 -2q6 -4 19 -33q6 -14 12 -37q-18 31 -25 39q-14 21 -30 39zM827 254q16 2 46 -114.5t47 -116.5h81.5t90.5 2q59 0 95 -2.5t70 -12.5q-23 -14 -75 -18t-90 -4l-230 6q-6 -2 -7 6t-1 29v30q0 29 -8.5 81.5t-18.5 113.5zM846 1495l4 172q0 -14 6 -59 q2 -25 2 -35v-21q0 -18 -2 -31.5t-10 -25.5zM893 1266l51 -25q27 -127 39 -190q25 -115 49 -191q-49 119 -78 201q-38 111 -61 205zM1006 827q63 -150 84 -209q49 -143 49 -335q2 -29 4 -56l8 19l47 -47q-92 354 -102 399q-20 86 -47 246zM1198 168q4 -29 8 -48.5t17.5 -50 t19.5 -46.5l47 -9q-6 8 -49 72q-27 39 -43 82z" />
<glyph unicode="&#xc6;" horiz-adv-x="1927" d="M45 45l37 -35l156 711q-43 -180 -86 -359q-68 -268 -107 -317zM68 14q190 0 354 17q6 20 8 55t2 39q8 4 12.5 46t4.5 48q8 -27 8 -65q0 -25 -2 -53.5t-2 -30.5l6 -64h-84q-61 0 -180 4t-127 4zM92 201q59 252 129 501q21 76 144 498l30 17q-45 -160 -96 -338 q-57 -199 -100 -338q-18 -59 -107 -340zM109 43l317 1192h216t236.5 1t229.5 1h196h136t51 -2q0 -4 9 -41t20 -80l28 -115l-501 2l69 -221h496l59 -233q-143 2 -248 0l-231 -4l78 -242h198h293l41 -256q-53 0 -114.5 -2t-120.5 -4q-168 0 -336 2q-119 0 -238 2l-84 287h-448 l-78 -287h-274zM164 580q31 145 63 290q45 183 92 283l13 8q-35 -131 -77 -278.5t-91 -302.5zM387 1255h115q55 0 179 4.5t132 4.5l2 28h-37q-27 0 -52.5 -1t-51.5 -1q-29 0 -80 5t-59 5h-43.5t-30.5 -2q-2 -10 -33 -26q-20 -10 -41 -17zM471 236q111 47 125 53 q51 23 270 22l8 -20q-35 6 -139 8q-49 8 -88 8l-151 -6zM500 526h342l-154 480zM532 537h234l-4 18l-197 -2l123 387zM694 868l70 -190l-4 78zM784 582v12l2 20l37 -61l-37 -10zM852 1286q164 16 335 21t206 -9l-93 -4q-322 -14 -346 -14zM874 254q16 2 46 -114.5t47 -116.5 q39 0 38 0t46 2q59 0 95 -2.5t71 -12.5q-23 -14 -75 -18t-233 2q-6 -2 -7 6t-1 29v30q0 29 -8.5 81.5t-18.5 113.5zM1079 979q29 -49 45.5 -91t24.5 -89l47 12q-33 55 -51.5 81t-50.5 69l18 12zM1079 1268q172 -8 278 -15.5t124 15.5q-317 4 -402 0zM1133 956v23 q31 4 57.5 8t38.5 4t30.5 -5t40.5 -11l-165 -27zM1237 492q29 -49 45 -91.5t25 -89.5l47 13q-33 55 -51.5 80.5t-51.5 68.5l19 12zM1243 848q86 -8 172 -35q-41 0 -83 -1t-83 -1zM1247 520l410 4l-15 -20l-387 -6zM1253 956l240 -8l61 27q-39 6 -145 10zM1296 864 q14 -4 27.5 -4h28.5h53q33 0 49 -4t25 -6l133 -57q-23 0 -47.5 1t-55.5 7l-123 59q-16 2 -40.5 3t-49.5 1zM1355.5 0q237.5 16 362.5 16q82 0 166 -12l-2 49q-137 -39 -506 -57q-258 -12 -20.5 4zM1380 326v22q31 4 58 8t39 4t30.5 -5t40.5 -11l-166 -27zM1513 1231l66 -234 l16 31l-61 166zM1567 371l2 -56q39 18 78 19q127 -23 44 7t-124 30zM1636 774q23 -61 33 -111.5t12 -103.5l48 6q-27 70 -40.5 100.5t-39.5 86.5l20 10zM1800 291l58 12q-4 -10 -17 -67q0 -16 4 -56.5t4 -42.5q-18 -141 -33.5 -25.5t-15.5 179.5z" />
<glyph unicode="&#xc7;" horiz-adv-x="1456" d="M18 514l54 -88q14 -25 26 -115q4 -39 13 -47l22 -28l-2 -9l8 -16q20 -29 27.5 -77t48.5 -97l111 -74l-117 43q-78 109 -107 199q-35 113 -84 309zM49 1169l72 103q45 10 74 35q43 47 88 96q14 14 79.5 20.5t178.5 10.5q-45 -10 -92.5 -21.5t-88.5 -23.5 q-80 -29 -170 -101q-109 -86 -116 -155l-19 -166zM74 686q10 -72 30.5 -208t53.5 -226q6 -18 20.5 -57t28.5 -62l106 -117l60 -65q-197 139 -254 352q-45 170 -45 383zM74 723v129q0 18 22.5 122.5t59.5 254.5q12 8 80.5 54t70.5 63l43 -37q-29 -4 -84 -39q-39 -25 -76 -56 q-8 -43 -21 -86t-30 -75q0 -2 -14 -21q-6 -10 -8 -18zM119 694q0 338 82 471q109 176 417 176h213q295 0 396 -84q115 -96 114 -380q-35 6 -63 6q-31 0 -92.5 -6.5t-93.5 -6.5l-80 7q0 113 -72 151q-49 27 -166 27h-84q-150 0 -205 -84q-43 -66 -43 -209q0 -53 3.5 -139 t3.5 -88q0 -180 79 -222q47 -25 254 -24q98 0 136 10q94 27 94 164q20 6 52 12t52 6q31 0 92.5 -10t94.5 -10q25 0 38 2q0 -297 -124 -387q-100 -74 -416 -74h-64l-65 -49q20 0 63 6t66 6q100 0 153 -35q45 -29 45 -80q0 -72 -127 -100q-76 -16 -188 -16q-135 0 -274 28 l39 41q43 -6 100 -11t80 -5q51 0 82 6q59 12 59 43q0 33 -26.5 45.5t-65.5 12.5q-35 0 -66.5 -6.5t-50.5 -10.5l-57 25l110 100q-311 10 -413 176q-82 133 -82 516zM348 1350q6 2 29.5 14t32.5 12l6 -8q10 0 31.5 11.5t31.5 15.5t76 7t125 3l-168 -31zM399 -217q23 27 58 39 q4 0 69 -6l21 -15q-51 12 -56.5 11.5t-48.5 -2.5q-18 -14 -34 -37q-6 -29 38 -31q72 -10 125 -18h146q49 0 125 6q86 26 100 30q23 8 49 33l-12 -29l-137 -47h-297l-125 19q-29 16 -21 47zM477 602l8 27q0 4 -4 51t-4 65q0 25 5 46.5t16 50.5v-23q0 -6 14 -96q4 -27 4 -57 v-250zM479 -106.5q0 2.5 64 63.5l49 43l26 12q-18 -16 -43.5 -38.5t-80.5 -69.5l4 -6q16 -14 36.5 -21.5t133.5 10.5l43 -14q-47 6 -154 -8q-37 6 -51 12q-27 14 -27 16.5zM500 868l10 121l37 29q-16 -37 -17 -74v-14zM530 371q8 -2 45 -15q49 -12 76 -12l150 31q12 2 45 8 h72l63 111q-16 -47 -20 -66q-10 -39 -11 -66l4 -10l7 2q-190 -18 -381 -35zM535 -176l49 -12h112l35 14l10 14q-2 16 -13 26.5t-30 16.5l47 -12l9 -41l-19 -16l-35 -11h-110q-12 0 -31.5 7.5t-23.5 13.5zM575 1024h259l129 -47l12 -49q-98 45 -198.5 70.5t-201.5 25.5z M608 1366q59 18 121 37l107 6q-25 -6 -44.5 -11.5t-54.5 -21.5l-43 -16zM698 -41l50 23q51 4 100 2t82 -17l65 -35q23 -25 27 -52t0 -43.5t-25 -45.5q27 74 0 115q-18 43 -110 61q-25 4 -41.5 5t-30.5 1h-49zM745 1358q47 6 99 16q74 17 92 31q172 -31 317 -70 q29 -45 50.5 -96t21.5 -90l-72 137l-161 64q-66 8 -97.5 8h-74.5h-175zM1024 852l205 6h67.5t71.5 -6l-4 360q10 -96 26.5 -193t43.5 -212h-13q-23 0 -98 20q-37 10 -61 11q-12 0 -27.5 -3.5t-38.5 -11.5q-78 8 -123 14.5t-49 14.5zM1042 500q31 16 162 23t133 7l-28 -30 l-66 -17q-31 0 -85 5.5t-116 11.5zM1108 -8l123 49q-14 -10 -28.5 -21.5t-26.5 -25.5zM1239 49q18 16 57 49q23 20 52 54l45 -5q-31 -29 -75 -57.5t-79 -40.5zM1339 209l15 27q2 4 2 40v62q0 41 10 85t23 87l6 -231v-80z" />
<glyph unicode="&#xc8;" horiz-adv-x="1243" d="M31 -25q147 0 362 9q483 18 608 18q82 0 166 -12l-2 49q-137 -39 -506 -57q-258 -12 -524 -13zM72 874q33 -82 49 -220t16 -406q-2 -53 -2 -101.5v-93.5l23 4l-23 -24q0 170 -21.5 400t-41.5 441zM76 1239l55 2q-10 -45 -14 -78q-10 -70 -11 -129q0 -98 11.5 -179 t38.5 -163l-56 -6l6 88q0 180 -4 287.5t-26 177.5zM104 37l23 16l20 -18q0 109 6.5 326t6.5 325q0 84 -6.5 254t-6.5 254h29q0 -305 -16.5 -582.5t-55.5 -574.5zM135 1249q164 16 335 21.5t409 5.5h245l-73 8q-41 0 -164 -14q-70 -8 -99 -8q-113 0 -204 -5 q-322 -14 -346 -14zM166 489q0 123 6 367t6 367h854l21 -238h-555q8 -41 8 -92q0 -31 -3 -69t-5 -58h553q-2 -27 -3 -46.5t-1 -33.5q0 -25 2 -78t2 -80l-138 7q-102 0 -206.5 -2.5t-208.5 -4.5q4 -35 8 -73.5t4 -71.5q0 -57 -12 -113q49 8 119.5 12.5t134.5 4.5 q55 0 179 -8.5t161 -8.5v-239q-59 0 -121 -2t-121 -4q-168 0 -336 2l-336 4q0 74 -6 227.5t-6 230.5zM176 1243l399 -20l-393 10l-4 -6zM315 1729q68 18 137.5 37.5t139.5 37.5l10 -28l-113 -29l-139 -31zM350 1708q18 4 52 9t92 20q51 14 90 28l178 -268l-139 -35 q-57 66 -130 130.5t-143 115.5zM362 1696q51 -59 93.5 -99.5t142.5 -126.5l-20 -30zM526 834q86 -8 172 -35q-41 0 -83 -1t-83 -1zM530 506l549 4l-20 -18l-516 -7zM537 950l155 37q106 -12 160 -16q162 -16 172 -21h-487zM539 291v33q41 6 78 11t55 5q16 0 41.5 -7 t56.5 -16l-229 -36zM567 1260q84 0 252 -2.5t252 -2.5l-100 -51q-23 10 -127.5 23.5t-276.5 32.5zM580 840q14 -4 27.5 -4h27.5h53q33 0 49.5 -4.5t24.5 -6.5l252 -57h-82h-37q-23 0 -47.5 1t-54.5 7l-123 60q-16 2 -41 3t-49 1zM600 1440l68 16l147 39l-90 -39zM614 1776 l97 -101q12 -14 31.5 -47t31.5 -47q16 -16 50 -46t48 -46l-67 22l-107 113q-23 29 -49 74q-4 14 -35 78zM831 332q82 0 171.5 -26.5t168.5 -72.5q-12 14 -22 28.5t-19 31.5l-135 6q-80 0 -157 -16zM1004 950l100 -16l2 -21zM1051 528q18 61 25 119t7 131l33 -24l-29 -4 q12 -70 15.5 -107t3.5 -123zM1053 1223l2 6l22 -111q-2 20 -10 52.5t-14 52.5zM1077 1118l15 -24l36 -109l-24 -16zM1083 1106l15 131l61 -8l-22 31q-6 -23 -31 -89q-12 -37 -19 -53zM1102 287l57 12q-4 -10 -10 -28.5t-6 -39.5q0 -16 4 -56t4 -42l-4 -139 q-18 78 -31.5 153.5t-13.5 139.5z" />
<glyph unicode="&#xc9;" horiz-adv-x="1236" d="M37 -25q147 0 362 9q484 18 609 18q82 0 166 -12l-3 49q-137 -39 -505 -57q-258 -12 -525 -13zM78 874q33 -82 49 -220t16 -406q-2 -53 -2 -101.5v-93.5l23 4l-23 -24q0 170 -21.5 400t-41.5 441zM82 1239l55 2q-10 -45 -14 -78q-10 -70 -10 -129q0 -98 11 -179t38 -163 l-56 -6l7 88q0 180 -4.5 287.5t-26.5 177.5zM111 37l22 16l21 -18q0 109 6 326t6 325q0 84 -6 254t-6 254h28q0 -305 -16 -582.5t-55 -574.5zM141 1249q164 16 335 21.5t409 5.5h245l-73 8q-41 0 -164 -14q-69 -8 -98 -8q-113 0 -205 -5q-322 -14 -346 -14zM172 489 q0 123 6 367t6 367h854l21 -238h-555q8 -41 8 -92q0 -31 -3 -69t-5 -58h553q-2 -27 -3 -46.5t-1 -33.5q0 -25 2 -78t2 -80l-137 7q-102 0 -207 -2.5t-209 -4.5q4 -35 8 -73.5t4 -71.5q0 -57 -12 -113q49 8 119.5 12.5t134.5 4.5q55 0 179 -8.5t161 -8.5v-239q-59 0 -121 -2 t-121 -4q-168 0 -336 2l-336 4q0 74 -6 227.5t-6 230.5zM182 1243l400 -20l-394 10l-4 -6zM393 1489l68 22l106 113q23 29 49 74q4 14 35 78l-96 -101q-12 -14 -31.5 -47t-31.5 -47q-16 -16 -50 -46t-49 -46zM451 1495l147 -39l68 -16l-125 16zM504 1497l178 268 q39 -14 90 -28q57 -14 91 -19.5t52 -9.5q-70 -51 -142.5 -115.5t-129.5 -130.5zM532 834q86 -8 173 -35q-41 0 -83 -1t-83 -1zM537 506l548 4l-20 -18l-516 -7zM543 950l155 37q106 -12 160 -16q162 -16 172 -21h-487zM545 291v33q41 6 78 11t55 5q16 0 41.5 -7t56.5 -16 l-229 -36zM573 1260q84 0 252 -2.5t252 -2.5l-100 -51q-23 10 -127.5 23.5t-276.5 32.5zM586 840q14 -4 27.5 -4h27.5h53q33 0 49.5 -4.5t24.5 -6.5l252 -57h-82h-37q-23 0 -47.5 1t-54.5 7l-123 60q-16 2 -41 3t-49 1zM664 1776l10 28q70 -18 139 -37.5t137 -37.5l-35 -13 l-139 31zM668 1470l20 -30l215 256q-51 -59 -93 -99.5t-142 -126.5zM838 332q82 0 171 -26.5t169 -72.5q-12 14 -22.5 28.5t-18.5 31.5l-136 6q-80 0 -157 -16zM1010 950l100 -16l2 -21zM1057 528q18 61 25.5 119t7.5 131l32 -24l-28 -4q12 -70 15 -107t3 -123zM1059 1223 l2 6l22 -111q-2 20 -10 52.5t-14 52.5zM1083 1118l15 -24l37 -109l-25 -16zM1090 1106l14 131l61 -8l-22 31q-6 -23 -31 -89q-12 -37 -18 -53zM1108 287l57 12q-4 -10 -10 -28.5t-6 -39.5q0 -16 4 -56t4 -42l-4 -139q-18 78 -31.5 153.5t-13.5 139.5z" />
<glyph unicode="&#xca;" horiz-adv-x="1269" d="M37 -25q147 0 362 9q484 18 609 18q82 0 166 -12l-3 49q-137 -39 -505 -57q-258 -12 -525 -13zM78 874q20 -211 41.5 -441t21.5 -400l23 24l-23 -4v93.5t2 101.5q0 268 -16 406t-49 220zM82 1239q23 -70 27 -177.5t4 -287.5l-7 -88l56 6q-27 82 -38 163t-11 179 q0 59 10 129q4 33 14 78zM111 37l22 16l21 -18q0 109 6 326t6 325q0 84 -6 254t-6 254h28q0 -305 -16 -582.5t-55 -574.5zM141 1249q164 16 335 21.5t409 5.5h245l-73 8q-41 0 -164 -14q-69 -8 -98 -8q-113 0 -205 -5q-322 -14 -346 -14zM172 489q0 123 6 367t6 367h854 l21 -238h-555q8 -41 8 -92q0 -31 -3 -69t-5 -58h553q-2 -27 -3 -46.5t-1 -33.5q0 -25 2 -78t2 -80l-137 7q-102 0 -207 -2.5t-209 -4.5q4 -35 8 -73.5t4 -71.5q0 -57 -12 -113q49 8 119.5 12.5t134.5 4.5q55 0 179 -8.5t161 -8.5v-239q-59 0 -121 -2t-121 -4q-168 0 -336 2 l-336 4q0 74 -6 227.5t-6 230.5zM182 1243l400 -20l-394 10l-4 -6zM227 1481l183 186l135 4l-166 10zM238 1458l182 195l348 4l195 -195l-254 -4l-119 111l-111 -109zM248 1440h233l101 94q-29 -39 -76 -113l-152 -8zM532 834q86 -8 173 -35q-41 0 -83 -1t-83 -1zM537 506 l548 4l-20 -18l-516 -7zM543 950h487q-10 4 -172 21q-54 4 -160 16zM545 291v33q41 6 78 11t55 5q16 0 41.5 -7t56.5 -16l-229 -36zM571 1686l201 -5l-123 -8zM573 1260q172 -18 276.5 -32t127.5 -24l100 51q-84 0 -252 2.5t-252 2.5zM586 840q14 -4 27.5 -4h27.5h53 q33 0 49.5 -4.5t24.5 -6.5l252 -57h-82h-37q-23 0 -47.5 1t-54.5 7l-123 60q-16 2 -41 3t-49 1zM596 1542l109 -102q-31 18 -50 30q-35 23 -43 31zM735 1421l230 15l-183 6zM795 1665l155 -172l-112 152zM838 332l6 -49q78 16 157 16l136 -6q8 -16 18 -30.5t23 -29.5 q-80 45 -169 72t-171 27zM1010 950l100 -16l2 -21zM1057 528l55 -8q0 86 -3 123t-15 107l28 4l-32 24q0 -74 -7.5 -131t-25.5 -119zM1059 1223l2 6l22 -111q-2 20 -10 52.5t-14 52.5zM1083 1118l27 -149l25 16l-37 109zM1090 1106l14 131l61 -8l-22 31q-6 -23 -31 -89 q-12 -37 -18 -53zM1108 287l57 12q-4 -10 -10 -28.5t-6 -39.5q0 -16 4 -56t4 -42l-4 -139q-18 78 -31.5 153.5t-13.5 139.5z" />
<glyph unicode="&#xcb;" horiz-adv-x="1236" d="M20 -25q147 0 363 9q483 18 608 18q82 0 166 -12l-2 49q-137 -39 -506 -57q-258 -12 -524 -13zM61 874q20 -211 42 -441t22 -400l22 24l-22 -4v93.5t2 101.5q0 268 -16.5 406t-49.5 220zM66 1239q23 -70 26.5 -177.5t3.5 -287.5l-6 -88l55 6q-27 82 -38 163t-11 179 q0 59 10 129q4 33 15 78zM94 37l23 16l20 -18q0 109 6.5 326t6.5 325q0 84 -6.5 254t-6.5 254h29q0 -305 -16.5 -582.5t-55.5 -574.5zM125 1249q164 16 335 21.5t408 5.5h246l-74 8q-41 0 -163 -14q-70 -8 -99 -8q-113 0 -205 -5q-322 -14 -346 -14zM156 489q0 123 6 367 t6 367h854l20 -238h-555q8 -41 9 -92q0 -31 -3.5 -69t-5.5 -58h553q-2 -27 -3 -46.5t-1 -33.5q0 -25 2 -78t2 -80l-137 7q-102 0 -206.5 -2.5t-209.5 -4.5q4 -35 8.5 -73.5t4.5 -71.5q0 -57 -13 -113q49 8 120 12.5t134 4.5q55 0 179 -8.5t161 -8.5v-239q-59 0 -120.5 -2 t-120.5 -4q-168 0 -336 2l-336 4q0 74 -6 227.5t-6 230.5zM166 1243l399 -20l-393 10l-4 -6zM223 1626l39 25q66 0 132.5 -1t131.5 -1q-16 0 -55 -8.5t-57 -8.5q-31 0 -94.5 -3t-96.5 -3zM231 1604q6 2 14.5 8t12.5 8l-2 -109q0 -14 4 -45.5t4 -46.5l-16 -6 q-8 37 -12.5 92.5t-4.5 98.5zM254 1409q23 0 55 2q74 8 92 8l119 -2l-231 -28zM272 1434v186q51 -6 70.5 -6h42.5q47 0 104 6q4 -20 5.5 -52t1.5 -34q0 -18 -1 -34.5t-6 -65.5h-217zM504 1630l28 12l-4 -208l-18 10v96q0 18 -3 51t-3 39zM516 834q86 -8 172 -35 q-41 0 -83 -1t-83 -1zM520 506l549 4l-20 -18l-517 -7zM526 950h488q-10 4 -172 21q-54 4 -160 16zM528 291v33q41 6 78.5 11t55.5 5q16 0 41.5 -7t56.5 -16l-230 -36zM557 1260q172 -18 276.5 -32t127.5 -24l100 51q-84 0 -252 2.5t-252 2.5zM569 840q14 -4 27.5 -4h28.5 h53q33 0 49 -4.5t25 -6.5l252 -57h-82h-37q-23 0 -47.5 1t-55.5 7l-123 60q-16 2 -40.5 3t-49.5 1zM649 1626l39 25q66 0 132.5 -1t131.5 -1q-16 0 -55 -8.5t-57 -8.5q-31 0 -94.5 -3t-96.5 -3zM659 1604q4 2 12.5 8t12.5 8v-109q0 -14 3 -45.5t3 -46.5l-16 -6 q-8 37 -11.5 92.5t-3.5 98.5zM680 1409q23 0 55 2q74 8 92 8l121 -2l-233 -28zM698 1434v186q53 -6 73 -6h40q47 0 107 6q2 -20 3 -52t1 -34q0 -18 -1 -34.5t-3 -65.5h-220zM821 332l6 -49q78 16 158 16l135 -6q8 -16 18.5 -30.5t22.5 -29.5q-80 45 -169 72t-171 27z M930 1630l28 12l-4 -208l-18 10v96q0 18 -3 51t-3 39zM993 950l101 -16l2 -21zM1040 528l56 -8q0 86 -3 123t-16 107l29 4l-33 24q0 -74 -7 -131t-26 -119zM1042 1223l2 6l23 -111q-2 20 -10.5 52.5t-14.5 52.5zM1067 1118l27 -149l24 16l-37 109zM1073 1106l14 131l62 -8 l-23 31q-6 -23 -30 -89q-12 -37 -19 -53zM1092 287l57 12q-4 -10 -10 -28.5t-6 -39.5q0 -16 4 -56t4 -42l-4 -139q-18 78 -31.5 153.5t-13.5 139.5z" />
<glyph unicode="&#xcc;" horiz-adv-x="684" d="M8 1729q68 18 137.5 37.5t139.5 37.5l10 -28l-113 -29l-139 -31zM43 1708q18 4 52 9t91 20q51 14 90 28l179 -268l-140 -35q-57 66 -129.5 130.5t-142.5 115.5zM55 1696q51 -59 93.5 -99.5t142.5 -126.5l-21 -30zM76 1352q84 10 143.5 16t108.5 6q35 0 102.5 -4t101.5 -4 l-399 -47zM92 524q0 115 4 209q14 326 15 350q0 -113 16 -342t16 -344q0 -61 -4 -204.5t-4 -151.5q-31 98 -37 202.5t-6 280.5zM96 -20q92 25 215 34t246 9l-4 -33q-55 -6 -117.5 -14.5t-103.5 -8.5q-39 0 -117 6.5t-119 6.5zM123 932q0 53 4 177t4 132q55 -403 55 -815v-43 q0 -147 -12 -295q-31 176 -41 382t-10 462zM170 25q10 109 11 260t3 247q0 131 -4 283q-10 379 -10 475h317v-1265h-317zM238 1313q18 8 125.5 15t154.5 7l55 -22h-335zM293 1440l67 16l148 39l-90 -39zM307 1776l96 -101q12 -14 32 -47t32 -47q16 -16 50 -46t48 -46l-67 22 l-107 113q-23 29 -49 74q-4 14 -35 78zM510 1233h43q8 -68 16.5 -136.5t8.5 -127.5q0 -461 -50 -914q0 49 -14 738q-4 197 -4 440z" />
<glyph unicode="&#xcd;" horiz-adv-x="684" d="M76 1352q84 10 143 16t143 6q135 -8 170 -8l-399 -47zM92 524q0 115 4 209q14 326 15 350q0 -113 16 -342t16 -344q0 -61 -4 -204.5t-4 -151.5q-31 98 -37 202.5t-6 280.5zM96 -20q92 25 215 34t246 9l-4 -33q-55 -6 -117.5 -14.5t-103.5 -8.5q-39 0 -117 6.5t-119 6.5z M96 1489l68 22l106 113q23 29 49 74q4 14 35 78l-96 -101q-12 -14 -31.5 -47t-31.5 -47q-16 -16 -50 -46t-49 -46zM123 932q0 53 4 177t4 132q55 -403 55 -815v-43q0 -147 -12 -295q-31 176 -41 382t-10 462zM154 1495l147 -39l68 -16l-125 16zM170 25q10 109 11 260t3 247 q0 131 -4 283q-10 379 -10 475h317v-1265h-317zM207 1497l178 268q39 -14 90 -28q57 -14 91 -19.5t52 -9.5q-70 -51 -142.5 -115.5t-129.5 -130.5zM238 1313q18 8 125.5 15t154.5 7l55 -22h-335zM367 1776l10 28q70 -18 139 -37.5t137 -37.5l-35 -13l-139 31zM371 1470 l20 -30l215 256q-51 -59 -93 -99.5t-142 -126.5zM510 1233h43q8 -68 16.5 -136.5t8.5 -127.5q0 -461 -50 -914q0 49 -14 738q-4 197 -4 440z" />
<glyph unicode="&#xce;" horiz-adv-x="794" d="M29 1481l182 186l135 4l-166 10zM39 1458l182 195l348 4l195 -195l-254 -4l-119 111l-110 -109zM49 1440h234l100 94q-29 -39 -76 -113l-151 -8zM123 1352q84 10 143.5 16t108.5 6q35 0 102.5 -4t102.5 -4l-400 -47zM139 524q0 115 4 209q14 326 15 350q0 -113 16 -342 t16 -344q0 -61 -4 -204.5t-4 -151.5q-31 98 -37 202.5t-6 280.5zM143 -20q92 25 215 34t246 9l-4 -33q-55 -6 -117.5 -14.5t-103.5 -8.5q-39 0 -117 6.5t-119 6.5zM170 932q0 53 4 177t4 132q55 -403 55 -815v-43q0 -147 -12 -295q-31 176 -41 382t-10 462zM217 25 q10 109 11 260t3 247q0 131 -4 283q-10 379 -10 475h318v-1265h-318zM285 1313q18 8 125.5 15t154.5 7l56 -22h-336zM373 1686l200 -5l-122 -8zM397 1542l109 -102q-31 18 -49 30q-35 23 -43 31zM537 1421l229 15l-182 6zM557 1233q0 -244 4 -440q14 -688 14 -738 q49 453 50 914q0 59 -8.5 127.5t-16.5 136.5h-43zM596 1665l156 -172l-113 152z" />
<glyph unicode="&#xcf;" horiz-adv-x="815" d="M31 1626l39 25q66 0 132 -1t132 -1q-16 0 -55.5 -8.5t-57.5 -8.5q-31 0 -94.5 -3t-95.5 -3zM39 1604q6 2 14 8t13 8l-3 -109q0 -14 4.5 -45.5t4.5 -46.5l-17 -6q-8 37 -12 92.5t-4 98.5zM61 1409q23 0 56 2q74 8 92 8l119 -2l-232 -28zM80 1434v186q51 -6 70.5 -6h42.5 q47 0 104 6q4 -20 5 -52t1 -34q0 -18 -1 -34.5t-5 -65.5h-217zM139 524q0 115 4 209q14 326 15 350q0 -113 16 -342t16 -344q0 -61 -4 -204.5t-4 -151.5q-31 98 -37 202.5t-6 280.5zM143 -20q92 25 215 34t246 9l-4 -33q-55 -6 -117.5 -14.5t-103.5 -8.5q-39 0 -117 6.5 t-119 6.5zM170 932q0 53 4 177t4 132q55 -403 55 -815v-43q0 -147 -12 -295q-31 176 -41 382t-10 462zM217 25q10 109 11 260t3 247q0 131 -4 283q-10 379 -10 475h318v-1265h-318zM285 1313q18 8 125.5 15t154.5 7l56 -22h-336zM311 1630l29 12l-4 -208l-19 10v96 q0 18 -3 51t-3 39zM457 1626l39 25q66 0 132 -1t132 -1q-16 0 -55.5 -8.5t-57.5 -8.5q-31 0 -94.5 -3t-95.5 -3zM467 1604q4 2 12 8t13 8v-109q0 -14 3 -45.5t3 -46.5l-17 -6q-8 37 -11 92.5t-3 98.5zM487 1409q23 0 56 2q74 8 92 8l121 -2l-234 -28zM506 1434v186 q53 -6 72.5 -6h39.5q47 0 107 6q2 -20 3 -52t1 -34q0 -18 -1 -34.5t-3 -65.5h-219zM557 1233q0 -244 4 -440q14 -688 14 -738q49 453 50 914q0 59 -8.5 127.5t-16.5 136.5h-43zM737 1630l29 12l-4 -208l-19 10v96q0 18 -3 51t-3 39z" />
<glyph unicode="&#xd0;" horiz-adv-x="1634" d="M39 672q0 23 5 57.5t11 67.5l23 20l-6 -168q0 -33 1 -60.5t7 -60.5l-27 -10q0 27 -4 57q-10 78 -10 97zM90 682q0 25 1 48.5t7 51.5h195v15h-168l-25 26q12 0 193 2l-2 224l49 -160q-10 -35 -18 -62h22v-30h-31q-2 -8 -4 -15h35v-10q2 6 2 10h16v15h-16q0 16 2 30h14v33 q0 106 6.5 231.5t16.5 241.5l141 6q86 0 222.5 -5t156.5 -5q385 0 494 -94q123 -106 123 -487v-152q0 -387 -148 -506q-111 -90 -438 -90h-193q-39 0 -77 2h-25l-256 6l4 111q0 113 -8 276q-4 59 -6 113l-29 2l4 -494l-16 17l-19 -17q0 -2 2 -4l-55 -4q18 121 27 230 q2 45 4 94v-4q0 -33 6 -148q4 -104 16 -160q0 147 13 398q2 47 4 92h-19q-8 0 -18 2v-20v20q-94 2 -199 2l4 29q23 -2 91.5 -10.5t103.5 -8.5v17q-49 2 -86 4q-63 6 -84 18h170v8q-184 4 -201 4zM272 -45l93 31q8 0 144 -4.5t196 -4.5q-76 -10 -170.5 -16t-262.5 -6z M293 332q2 56 2 119v-23q-2 -45 -2 -96zM295 524h37q2 9 2 17h-39v-17zM295 563h39v8q-23 2 -39 0v-8zM338 1370l106 33q12 0 37 -6t35 -6q29 0 143 14q49 6 84 6q25 0 88.5 -15.5t96.5 -15.5q131 0 254 -16q4 0 6 -2q-162 6 -264 6q-147 0 -294 1t-292 1zM342 1323l2 -496 h4l4 74q12 233 13 422h-23zM344 782h2v15h-2v-15zM346 524h27v17h-4h-23v-17zM346 563h25q2 6 0 8q-14 2 -25 0v-8zM618 -49q33 8 78.5 10t102.5 2h82q-14 -4 -33 -8q-20 -4 -35 -4h-195zM705 272h276q104 0 158 66q35 43 51 119l2 2v4q12 66 12 151v115q0 147 -41 229 q-57 113 -188 113h-270q12 -86 14 -201q2 -25 2 -45q16 -2 35 -2q0 23 2 45q8 96 24 191l4 -45q0 -57 -8 -193q18 -2 39 -4q154 -12 230 -12l-271 -4v-19h271v-215h-287v-4q147 -2 196 -4q86 -2 101 -8q-92 0 -297 -4q0 -6 -2 -15q57 4 90 5l182 -5q-86 -18 -158 -24 q-45 -2 -116 -4v-25q-2 12 -2 25h-33q0 -16 -2 -29q-2 -70 -14 -203zM721 530q17 0 31 2v15h-11q-10 0 -20 -2v-15zM721 563q19 -2 31 0v4q-14 2 -31 0v-4zM721 782h33v19h-33v-19zM750 307q8 41 8 92q0 39 -2 78v2q-6 -104 -6 -172zM795 295l14 33l205 -21l-15 -20z M815 -84l125 39q12 4 56 6t51 2q68 8 147 23l57 10q-19 -6 -37 -12q-45 -14 -94 -21zM829 1053l220 -13l84 -82q-23 16 -33 25q-29 20 -42.5 27.5t-92.5 19.5q-76 14 -136 23zM1044 283l146 174q0 2 2 6l-25 248q-2 -2 -3 -36t-1 -57v-98q0 -37 -47 -119q-37 -59 -72 -118z M1051 819l41 -2v-276l-27 -23l4 258zM1188 1362q120 -16 239 -47l-49 43q-25 0 -188 4h-2zM1251 -4q53 6 111 16l10 17q-10 -2 -121 -33zM1386 1307q29 -10 60 -19.5t53 -21.5q39 -64 80 -127zM1397 -47l22 27l-10 -23zM1411 25l49 -19l62 254q4 20 6 43q-2 -17 -6 -33 q-31 -150 -111 -245zM1438 -68l55 99q29 53 43 104l20 -29q-8 -14 -40 -65q-53 -88 -78 -109zM1530 315q14 104 14 250v252q0 59 -5 169t-9 128l16 -18q2 -31 5 -58.5t3 -64.5v-211q0 -293 -24 -447zM1532 166q6 18 22 59q2 8 23 103q-6 20 -10 39.5t-4 29.5v39q0 39 4 81 t14 52l4 -168q2 -84 2 -165v-80z" />
<glyph unicode="&#xd1;" horiz-adv-x="1634" d="M78 1335q20 -205 30.5 -475t10.5 -502h-21q0 172 6 347q19 520 19 577q0 45 10 102zM121 344q0 -63 13.5 -155.5t25.5 -172.5q0 231 -7.5 432t-15.5 465.5t-8 368.5q0 31 4 56.5t10 54.5q10 -68 14.5 -94.5t4.5 -63.5q0 -143 -12 -334q-29 -446 -29 -557zM154 -49l8 43 h22q78 0 171.5 -10.5t168.5 -26.5zM176 1403l60 -55q125 23 237 34zM188 0v1323q137 16 261 16q111 0 231 -16q96 -227 217 -451q109 -199 258 -430q0 147 -4 265q-14 412 -14 440q0 123 2 142.5t16 88.5h318v-1337q-43 -6 -130.5 -14.5t-181.5 -8.5h-74q-31 6 -45 9 l-534 911v-938h-320zM438 1552l56 -2q31 -14 73 -18q-39 -6 -62.5 -4t-35.5 4zM446 1565q39 74 96.5 113.5t141.5 39.5q49 0 145.5 -16t145.5 -16q41 0 76.5 15t52.5 50l123 -25q-43 -76 -116 -115.5t-163 -39.5q-45 0 -131 16.5t-129 16.5q-76 0 -119 -60zM457 1614 q6 12 13 26.5t9 28.5q47 27 84 41t92 23l37 4h86l103 -25q-23 -4 -97.5 10.5t-138.5 16.5q-2 0 -16.5 -5t-22.5 -5q-39 -18 -61.5 -32t-44.5 -32q-4 -4 -15 -18q-61 -103 -28 -33zM498 340q0 -18 7 -33.5t25 -15.5q25 0 45 63q8 25 17 49l-8 -8q0 39 -2 87t-13 59 q-10 84 -13 101t-32 183q0 -104 2 -209.5t4 -209.5q0 -139 -5 -218t-23 -198l55 -6l-2 366h-57v-10zM539 1380l106 13l45 -25zM551 760q78 -92 166 -232q72 -115 149 -258q68 -129 138 -256q10 -20 35.5 -41.5t33.5 -33.5l207 32l-203 13q-105 132 -203 286 q-82 115 -161 232q-100 158 -113 268zM573 1534q10 14 33 30.5t41 28.5l21 -16q2 0 14 -5t16 -7h-49q-41 -12 -76 -31zM670 1585q25 6 48 4l46 -4l33 -4l14 -25q-20 12 -58 18.5t-83 10.5zM707 1430q18 -70 29.5 -115t15.5 -94l55 -21q-20 53 -41 109q-23 45 -33 65l2 -8 q-4 16 -14 35t-14 29zM809 1176q109 -176 168 -277q111 -188 110 -287q0 -14 -4 -30.5t-8 -32.5l51 6q-90 156 -180 313q-137 248 -137 308zM815 1575q31 -4 66 -9.5t53 -9.5q10 -2 41 1.5t33 -1.5q-53 -20 -102.5 -7.5t-90.5 26.5zM897 1708q16 2 43 -2t66 0l47 12l-23 -18 l-43 -8l-61 4zM1018 1550v19q29 0 72 20q123 78 143 125l-33 -57l-90 -68q-49 -25 -92 -39zM1044 1726l31 19l25 14l-37 -37zM1110 1772l33 -5q35 -6 56.5 -11t45.5 -13q-12 -2 -45 0q-20 4 -41 6l-37 8zM1137 -8l368 -6l2 888q0 -147 14.5 -442t14.5 -442l-102 -27 q-63 0 -143.5 10.5t-153.5 18.5zM1139 1391l123 4h100q35 0 76 -4.5t80 -8.5l26 29l-74 27h-141q-53 0 -99 -10.5t-91 -36.5zM1485 926q39 57 51 146t12 208v88h-35q0 -102 -7 -213t-21 -229z" />
<glyph unicode="&#xd2;" horiz-adv-x="1515" d="M96 713q1 168 19 334q72 51 143 112q86 72 135 127q-37 -10 -69.5 -20.5t-34.5 -12.5q-88 -76 -127 -150.5t-39 -184.5q0 -20 8 -65.5t8 -68.5l-6 -430q-6 57 -16 133q-20 152 -21 226zM123 377q33 -63 92 -162q77 -125 100 -137q152 -78 314 -92q39 -4 73.5 -8.5 t53.5 -12.5q-76 31 -193 58q-291 63 -332 77q-25 29 -51 94.5t-57 182.5zM147 541v229q0 252 131.5 373t385.5 121h163q260 0 396 -115q143 -123 143 -379v-229q0 -276 -121 -393t-397 -117h-182q-268 0 -393.5 120.5t-125.5 389.5zM184 1042q68 70 129 129q78 74 138 117 q84 10 172 22.5t161 12.5q23 0 51.5 -6t65.5 -14q-51 -16 -102 -21.5t-125 -5.5q-39 0 -107.5 2t-97.5 2q-18 0 -70 -33q-34 -24 -67 -47q-84 -57 -109.5 -86t-38.5 -72zM410 1729q68 18 137 37.5t139 37.5l10 -28l-112 -29l-140 -31zM444 1708q18 4 52 9t92 20q51 14 90 28 l178 -268l-139 -35q-57 66 -130 130.5t-143 115.5zM457 1696q51 -59 93 -99.5t142 -126.5l-20 -30zM467 551q0 -141 48 -200.5t185 -59.5h109q137 0 187.5 60.5t50.5 201.5v209q0 139 -49.5 192.5t-188.5 53.5h-109q-135 0 -184 -53.5t-49 -188.5v-215zM487 698v66 q0 57 13.5 105.5t52.5 80.5l-29 -86q0 -31 6.5 -92t6.5 -94v-98q0 -59 10 -97q18 -49 31 -90q8 2 36.5 -29.5t36.5 -46.5l-53 17q-72 80 -91.5 156.5t-19.5 207.5zM606 973l348 -4q-16 -18 -54 -31.5t-69 -13.5h-157zM694 1440l68 16l147 39l-90 -39zM709 1776l96 -101 q12 -14 31.5 -47t31.5 -47q16 -16 50 -46t49 -46l-68 22l-106 113q-23 29 -50 74q-4 14 -34 78zM739 340q27 4 57.5 10t49.5 6l108 -6l-149 -33zM741 6l197 -41q-31 6 -64.5 11.5t-52.5 5.5l-12 -5q-10 4 -30.5 11.5t-37.5 17.5zM893 1309q25 -4 52.5 -7.5t45.5 -9.5 q63 -20 158 -67l156 -82q18 -27 30 -68q4 -12 11 -39l12 129q-137 29 -261 55.5t-141 34.5zM924 25q27 6 99.5 8t82.5 6q49 23 108 55q72 39 103 58l-287 -187zM975 899q27 -20 37 -63t10 -91l-6 -55zM979 444q12 90 12 179l-2 67l21 -39l-4 -274zM1288 57q41 57 66 99 q49 78 49 108q0 109 -4 199q-14 311 -15 334q0 27 -6 63q-14 88 -14 109q0 33 8 71.5t17 77.5q16 -160 28.5 -349.5t12.5 -336.5q0 -35 -4.5 -118t-4.5 -89q-55 -80 -133 -168z" />
<glyph unicode="&#xd3;" horiz-adv-x="1540" d="M98 713q1 168 19 334q72 51 143 112q86 72 135 127q-37 -10 -69.5 -20.5t-34.5 -12.5q-88 -76 -127 -150.5t-39 -184.5q0 -20 8 -65.5t8 -68.5l-6 -430q-6 57 -16 133q-20 152 -21 226zM125 377q33 -63 92 -162q77 -125 100 -137q152 -78 314 -92q39 -4 73.5 -8.5 t53.5 -12.5q-76 31 -193 58q-291 63 -332 77q-25 29 -51 94.5t-57 182.5zM150 541v229q0 252 131 373t385 121h163q260 0 396 -115q143 -123 143 -379v-229q0 -276 -121 -393t-397 -117h-182q-268 0 -393 120.5t-125 389.5zM186 1042q68 70 129 129q78 74 138 117 q84 10 172 22.5t161 12.5q23 0 51.5 -6t65.5 -14q-51 -16 -102 -21.5t-125 -5.5q-39 0 -107.5 2t-97.5 2q-18 0 -70 -33q-34 -24 -67 -47q-84 -57 -109.5 -86t-38.5 -72zM469 551q0 -141 48 -200.5t185 -59.5h109q137 0 187.5 60.5t50.5 201.5v209q0 139 -49.5 192.5 t-188.5 53.5h-109q-135 0 -184 -53.5t-49 -188.5v-215zM487 1489l68 22l107 113q23 29 49 74q4 14 34 78l-96 -101q-12 -14 -31.5 -47t-31.5 -47q-16 -16 -50 -46t-49 -46zM489 698v66q0 57 13.5 105.5t52.5 80.5l-29 -86q0 -31 6.5 -92t6.5 -94v-98q0 -59 10 -97 q18 -49 31 -90q8 2 36.5 -29.5t36.5 -46.5l-53 17q-72 80 -91.5 156.5t-19.5 207.5zM545 1495l147 -39l68 -16l-125 16zM598 1497l178 268q39 -14 90 -28q57 -14 91 -19.5t53 -9.5q-70 -51 -143 -115.5t-130 -130.5zM608 973l348 -4q-16 -18 -54 -31.5t-68 -13.5h-158z M741 340q27 4 57.5 10t49.5 6l108 -6l-149 -33zM743 6l197 -41q-31 6 -64.5 11.5t-52.5 5.5l-12 -5q-10 4 -30.5 11.5t-37.5 17.5zM758 1776l10 28q70 -18 139 -37.5t137 -37.5l-34 -13l-140 31zM762 1470l20 -30l215 256q-51 -59 -93 -99.5t-142 -126.5zM895 1309 q25 -4 52.5 -7.5t45.5 -9.5q63 -20 158 -67l156 -82q18 -27 30 -68q4 -12 11 -39l12 129q-137 29 -261 55.5t-141 34.5zM926 25q27 6 99.5 8t82.5 6q49 23 109 55q72 39 102 58l-287 -187zM977 899q27 -20 37 -63t10 -91l-6 -55zM981 444q12 90 12 179l-2 67l21 -39l-4 -274 zM1290 57q41 57 66 99q49 78 49 108q0 109 -4 199q-14 311 -15 334q0 27 -6 63q-14 88 -14 109q0 33 8 71.5t17 77.5q16 -160 28.5 -349.5t12.5 -336.5q0 -35 -4.5 -118t-4.5 -89q-55 -80 -133 -168z" />
<glyph unicode="&#xd4;" horiz-adv-x="1540" d="M102 713q1 168 19 334q72 51 143 112q86 72 135 127q-37 -10 -69.5 -20.5t-34.5 -12.5q-88 -76 -127 -150.5t-39 -184.5q0 -20 8 -65.5t8 -68.5l-6 -430q-6 57 -16 133q-20 152 -21 226zM129 377q33 -63 92 -162q78 -125 101 -137q152 -78 313 -92q39 -4 73.5 -8.5 t53.5 -12.5q-76 31 -193 58q-291 63 -331 77q-25 29 -51.5 94.5t-57.5 182.5zM154 541v229q0 252 131 373t385 121h164q260 0 395 -115q143 -123 143 -379v-229q0 -276 -121 -393t-397 -117h-182q-268 0 -393 120.5t-125 389.5zM190 1042q12 43 38 72t110 86q33 23 68 47 q51 33 69 33q29 0 97.5 -2t107.5 -2q74 0 125 5t102 22q-37 8 -65.5 14t-50.5 6q-74 0 -162 -12.5t-172 -22.5q-59 -43 -138 -117q-61 -59 -129 -129zM393 1481l182 186l136 4l-166 10zM403 1458l183 195l348 4l194 -195l-254 -4l-118 111l-111 -109zM414 1440h233l101 94 q-29 -39 -76 -113l-152 -8zM473 551q0 -141 48 -200.5t186 -59.5h108q137 0 187.5 60.5t50.5 201.5v209q0 139 -49.5 192.5t-188.5 53.5h-108q-135 0 -184.5 -53.5t-49.5 -188.5v-215zM494 698v66q0 57 13 105.5t52 80.5l-29 -86q0 -31 6.5 -92t6.5 -94v-98q0 -59 10 -97 q18 -49 31 -90q8 2 36.5 -29.5t36.5 -46.5l-53 17q-72 80 -91 156.5t-19 207.5zM612 973l349 -4q-16 -18 -54.5 -31.5t-68.5 -13.5h-158zM737 1686l201 -5l-123 -8zM745 340l66 -23l150 33l-109 6q-18 0 -49 -6t-58 -10zM748 6q16 -10 36.5 -17t30.5 -12l12 5q18 0 52 -5.5 t65 -11.5zM762 1542l108 -102q-31 18 -49 30q-35 23 -43 31zM899 1309l64 -54q16 -8 140 -34.5t261 -55.5l-12 -129q-6 27 -11 39q-12 41 -30 68l-156 82q-95 47 -158 67q-18 6 -45.5 9.5t-52.5 7.5zM901 1421l229 15l-182 6zM930 25l106 -60l287 187q-31 -18 -102 -58 q-60 -32 -109 -55q-10 -4 -83 -6t-99 -8zM961 1665l155 -172l-112 152zM981 899q27 -20 37 -63t10 -91l-6 -55zM985 444l27 -67l4 274l-21 39l2 -67q0 -88 -12 -179zM1294 57q41 57 66 99q49 78 49 108q0 109 -4 199q-14 311 -14 334q0 27 -7 63q-14 88 -14 109q0 33 8 71.5 t17 77.5q16 -160 28.5 -349.5t12.5 -336.5q0 -35 -4.5 -118t-4.5 -89q-55 -80 -133 -168z" />
</font>
</defs>
</svg>
